<svg width="384" height="185" viewBox="0 0 384 185" fill="none" xmlns="http://www.w3.org/2000/svg">
<g opacity="0.5">
<g opacity="0.32">
<g opacity="0.16">
<path d="M31.9777 17.9333H443.828" stroke="#555177" stroke-width="1.07533" stroke-linejoin="round" stroke-dasharray="6.45 6.45"/>
<path d="M31.9778 35.1387H443.828" stroke="#555177" stroke-width="1.07533" stroke-linejoin="round" stroke-dasharray="6.45 6.45"/>
<path d="M31.9778 52.3441H443.828" stroke="#555177" stroke-width="1.07533" stroke-linejoin="round" stroke-dasharray="6.45 6.45"/>
<path d="M31.9778 69.5492H443.828" stroke="#555177" stroke-width="1.07533" stroke-linejoin="round" stroke-dasharray="6.45 6.45"/>
<path d="M31.9778 86.7545H443.828" stroke="#555177" stroke-width="1.07533" stroke-linejoin="round" stroke-dasharray="6.45 6.45"/>
<path d="M31.9778 103.96H443.828" stroke="#555177" stroke-width="1.07533" stroke-linejoin="round" stroke-dasharray="6.45 6.45"/>
<path d="M31.9778 121.165H443.828" stroke="#555177" stroke-width="1.07533" stroke-linejoin="round" stroke-dasharray="6.45 6.45"/>
<path d="M31.9778 138.37H443.828" stroke="#555177" stroke-width="1.07533" stroke-linejoin="round" stroke-dasharray="6.45 6.45"/>
<path d="M31.9778 155.575H443.828" stroke="#555177" stroke-width="1.07533" stroke-linejoin="round" stroke-dasharray="6.45 6.45"/>
</g>
<g filter="url(#filter0_f_4_1446)">
<path d="M31.9777 155.572L121.83 105.566C123.568 104.599 125.677 104.579 127.432 105.512L162.516 124.16C164.39 125.156 166.655 125.062 168.44 123.914L288.077 46.9153C289.996 45.6805 292.457 45.6711 294.385 46.8911L325.238 66.4157C326.871 67.4495 328.91 67.6114 330.686 66.8483L443.467 18.4027" stroke="url(#paint0_linear_4_1446)" stroke-width="3.90805"/>
</g>
<path d="M31.9777 155.572L121.83 105.566C123.568 104.599 125.677 104.579 127.432 105.512L162.516 124.16C164.39 125.156 166.655 125.062 168.44 123.914L288.077 46.9153C289.996 45.6805 292.457 45.6711 294.385 46.8911L325.238 66.4157C326.871 67.4495 328.91 67.6114 330.686 66.8483L443.467 18.4027" stroke="url(#paint1_linear_4_1446)" stroke-width="3.90805"/>
<path d="M124.616 104.019L165.549 125.777L291.223 44.8942L327.847 68.0711L444.903 17.9333V153.684L32.6951 155.103L124.616 104.019Z" fill="url(#paint2_linear_4_1446)" fill-opacity="0.12"/>
<rect x="6.16895" y="13.6322" width="17.2052" height="8.60262" rx="4.30131" fill="white" fill-opacity="0.12"/>
<rect x="6.16907" y="30.8375" width="17.2052" height="8.60262" rx="4.30131" fill="white" fill-opacity="0.12"/>
<rect x="6.16907" y="48.0427" width="17.2052" height="8.60262" rx="4.30131" fill="white" fill-opacity="0.12"/>
<rect x="6.16907" y="65.2479" width="17.2052" height="8.60262" rx="4.30131" fill="white" fill-opacity="0.12"/>
<rect x="6.16907" y="82.4531" width="17.2052" height="8.60262" rx="4.30131" fill="white" fill-opacity="0.12"/>
<rect x="6.16907" y="99.6583" width="17.2052" height="8.60262" rx="4.30131" fill="white" fill-opacity="0.12"/>
<rect x="6.16907" y="116.864" width="17.2052" height="8.60262" rx="4.30131" fill="white" fill-opacity="0.12"/>
<rect x="6.16907" y="134.069" width="17.2052" height="8.60262" rx="4.30131" fill="white" fill-opacity="0.12"/>
<rect x="6.16907" y="151.274" width="17.2052" height="8.60262" rx="4.30131" fill="white" fill-opacity="0.12"/>
<rect x="31.9777" y="164.18" width="17.2052" height="8.60262" rx="4.30131" fill="white" fill-opacity="0.12"/>
<rect x="57.7856" y="164.18" width="17.2052" height="8.60262" rx="4.30131" fill="white" fill-opacity="0.12"/>
<rect x="83.5934" y="164.18" width="17.2052" height="8.60262" rx="4.30131" fill="white" fill-opacity="0.12"/>
<rect x="109.401" y="164.18" width="17.2052" height="8.60262" rx="4.30131" fill="white" fill-opacity="0.12"/>
<rect x="135.209" y="164.18" width="17.2052" height="8.60262" rx="4.30131" fill="white" fill-opacity="0.12"/>
<rect x="161.017" y="164.18" width="17.2052" height="8.60262" rx="4.30131" fill="white" fill-opacity="0.12"/>
<rect x="186.825" y="164.18" width="17.2052" height="8.60262" rx="4.30131" fill="white" fill-opacity="0.12"/>
<rect x="212.633" y="164.18" width="17.2052" height="8.60262" rx="4.30131" fill="white" fill-opacity="0.12"/>
<rect x="238.44" y="164.18" width="17.2052" height="8.60262" rx="4.30131" fill="white" fill-opacity="0.12"/>
<rect x="264.248" y="164.18" width="17.2052" height="8.60262" rx="4.30131" fill="white" fill-opacity="0.12"/>
<rect x="290.056" y="164.18" width="17.2052" height="8.60262" rx="4.30131" fill="white" fill-opacity="0.12"/>
<rect x="315.864" y="164.18" width="17.2052" height="8.60262" rx="4.30131" fill="white" fill-opacity="0.12"/>
<rect x="341.672" y="164.18" width="17.2052" height="8.60262" rx="4.30131" fill="white" fill-opacity="0.12"/>
<rect x="367.479" y="164.18" width="17.2052" height="8.60262" rx="4.30131" fill="white" fill-opacity="0.12"/>
</g>
</g>
<defs>
<filter id="filter0_f_4_1446" x="15.3953" y="0.975116" width="444.475" height="171.937" filterUnits="userSpaceOnUse" color-interpolation-filters="sRGB">
<feFlood flood-opacity="0" result="BackgroundImageFix"/>
<feBlend mode="normal" in="SourceGraphic" in2="BackgroundImageFix" result="shape"/>
<feGaussianBlur stdDeviation="7.81609" result="effect1_foregroundBlur_4_1446"/>
</filter>
<linearGradient id="paint0_linear_4_1446" x1="31.9777" y1="18.4027" x2="114.282" y2="265.305" gradientUnits="userSpaceOnUse">
<stop stop-color="#3959E0"/>
<stop offset="1" stop-color="#932BE4"/>
</linearGradient>
<linearGradient id="paint1_linear_4_1446" x1="31.9777" y1="18.4027" x2="114.282" y2="265.305" gradientUnits="userSpaceOnUse">
<stop stop-color="#3959E0"/>
<stop offset="1" stop-color="#932BE4"/>
</linearGradient>
<linearGradient id="paint2_linear_4_1446" x1="274.5" y1="87" x2="274.5" y2="155" gradientUnits="userSpaceOnUse">
<stop offset="0.0421964" stop-color="#F97316"/>
<stop offset="0.963521" stop-color="#F97316" stop-opacity="0"/>
</linearGradient>
</defs>
</svg>
