<svg width="540" height="320" viewBox="0 0 540 320" fill="none" xmlns="http://www.w3.org/2000/svg">
<g opacity="0.3">
<rect width="120.668" height="140.78" rx="24.6299" transform="matrix(1 0 -0.173648 0.984808 50.403 52.1661)" fill="url(#paint0_linear_4_1458)" fill-opacity="0.3"/>
<rect width="107.25" height="125.125" rx="21.5512" transform="matrix(1 0 -0.173648 0.984808 54.2133 59.8744)" fill="black" fill-opacity="0.3"/>
<rect width="120.668" height="140.78" rx="24.6299" transform="matrix(1 0 -0.173648 0.984808 392.913 52.1661)" fill="url(#paint1_linear_4_1458)" fill-opacity="0.3"/>
<rect width="107.1" height="124.95" rx="21.5512" transform="matrix(1 0 -0.173648 0.984808 399.802 59.9607)" fill="black" fill-opacity="0.3"/>
<g opacity="0.6" filter="url(#filter0_f_4_1458)">
<rect width="176.057" height="200.166" rx="15.3937" transform="matrix(1 0 -0.173648 0.984808 199.181 22.8754)" fill="#7F00FF" fill-opacity="0.5"/>
</g>
<g opacity="0.5" filter="url(#filter1_i_4_1458)">
<rect width="155.358" height="176.632" rx="34.6358" transform="matrix(1 0 -0.173648 0.984808 207.487 34.4634)" fill="#644D99" fill-opacity="0.01"/>
</g>
<rect opacity="0.2" width="107.27" height="125.149" rx="20.0118" transform="matrix(1 0 -0.173648 0.984808 228.042 59.8629)" stroke="#951CF2" stroke-width="0.769685"/>
<g opacity="0.5" filter="url(#filter2_i_4_1458)">
<rect width="91.1924" height="106.391" rx="15.3937" transform="matrix(1 0 -0.173648 0.984808 234.452 69.0992)" fill="#8B5CF6" fill-opacity="0.01"/>
</g>
<path d="M252.584 133.467C255.118 129.745 256.815 125.643 257.541 121.487C257.894 119.465 258.706 117.469 259.915 115.647C261.124 113.825 262.701 112.224 264.527 110.962M271.22 121.487C270.023 128.335 267.069 135.073 262.639 141.062M264.381 121.487C264.696 119.7 265.719 117.987 267.224 116.724C268.729 115.461 270.594 114.751 272.408 114.751C274.222 114.751 275.836 115.461 276.896 116.724C277.956 117.987 278.375 119.7 278.06 121.487C276.845 128.43 274.083 135.288 269.97 141.569M288.498 133.274C289.958 129.391 291.043 125.444 291.739 121.487C292.684 116.127 291.428 110.988 288.248 107.198C285.069 103.409 280.225 101.28 274.783 101.28C269.342 101.28 263.747 103.409 259.231 107.198C254.715 110.988 251.647 116.127 250.702 121.487C250.3 123.781 249.503 126.059 248.345 128.222M262.511 128.222C261.157 131.763 259.249 135.163 256.863 138.292M271.867 108.121C272.447 108.052 273.024 108.018 273.595 108.018C277.223 108.018 280.452 109.437 282.572 111.963C284.692 114.49 285.529 117.916 284.899 121.489C284.5 123.74 283.961 125.99 283.284 128.224M280.801 134.958C280.257 136.204 279.671 137.432 279.045 138.641" stroke="#951CF2" stroke-width="2.30906" stroke-linecap="round" stroke-linejoin="round"/>
<path opacity="0.8" d="M231.994 84.259C233.47 75.8865 241.559 69.0992 250.06 69.0992H310.274C318.776 69.0992 324.471 75.8865 322.995 84.259L315.012 129.533H224.011L231.994 84.259Z" fill="url(#paint2_linear_4_1458)"/>
<path d="M307.709 69.0991H310.251C318.753 69.0991 324.065 75.8758 322.116 84.2353L321.283 87.8089" stroke="#951CF2" stroke-width="1.15453" stroke-linecap="round" stroke-linejoin="round"/>
<path d="M233.913 173.874H231.371C222.87 173.874 217.558 167.097 219.507 158.738L220.34 155.164" stroke="#951CF2" stroke-width="1.15453" stroke-linecap="round" stroke-linejoin="round"/>
<path d="M310.469 155.164L309.636 158.738C307.687 167.097 299.215 173.874 290.713 173.874H288.172" stroke="#951CF2" stroke-width="1.15453" stroke-linecap="round" stroke-linejoin="round"/>
<path d="M231.153 87.8089L231.986 84.2353C233.935 75.8758 242.407 69.0991 250.909 69.0991H253.451" stroke="#951CF2" stroke-width="1.15453" stroke-linecap="round" stroke-linejoin="round"/>
<path d="M183.742 129.232H354.612" stroke="url(#paint3_linear_4_1458)" stroke-width="0.769685"/>
</g>
<defs>
<filter id="filter0_f_4_1458" x="16.7738" y="-127.213" width="506.112" height="497.302" filterUnits="userSpaceOnUse" color-interpolation-filters="sRGB">
<feFlood flood-opacity="0" result="BackgroundImageFix"/>
<feBlend mode="normal" in="SourceGraphic" in2="BackgroundImageFix" result="shape"/>
<feGaussianBlur stdDeviation="75.0443" result="effect1_foregroundBlur_4_1458"/>
</filter>
<filter id="filter1_i_4_1458" x="182.305" y="34.4634" width="175.049" height="185.494" filterUnits="userSpaceOnUse" color-interpolation-filters="sRGB">
<feFlood flood-opacity="0" result="BackgroundImageFix"/>
<feBlend mode="normal" in="SourceGraphic" in2="BackgroundImageFix" result="shape"/>
<feColorMatrix in="SourceAlpha" type="matrix" values="0 0 0 0 0 0 0 0 0 0 0 0 0 0 0 0 0 0 127 0" result="hardAlpha"/>
<feOffset dy="11.5453"/>
<feGaussianBlur stdDeviation="17.3179"/>
<feComposite in2="hardAlpha" operator="arithmetic" k2="-1" k3="1"/>
<feColorMatrix type="matrix" values="0 0 0 0 0.319082 0 0 0 0 0.211191 0 0 0 0 0.564706 0 0 0 0.6 0"/>
<feBlend mode="normal" in2="shape" result="effect1_innerShadow_4_1458"/>
</filter>
<filter id="filter2_i_4_1458" x="218.418" y="69.0992" width="104.787" height="104.775" filterUnits="userSpaceOnUse" color-interpolation-filters="sRGB">
<feFlood flood-opacity="0" result="BackgroundImageFix"/>
<feBlend mode="normal" in="SourceGraphic" in2="BackgroundImageFix" result="shape"/>
<feColorMatrix in="SourceAlpha" type="matrix" values="0 0 0 0 0 0 0 0 0 0 0 0 0 0 0 0 0 0 127 0" result="hardAlpha"/>
<feOffset/>
<feGaussianBlur stdDeviation="13.4695"/>
<feComposite in2="hardAlpha" operator="arithmetic" k2="-1" k3="1"/>
<feColorMatrix type="matrix" values="0 0 0 0 0.976471 0 0 0 0 0.45098 0 0 0 0 0.0862745 0 0 0 1 0"/>
<feBlend mode="normal" in2="shape" result="effect1_innerShadow_4_1458"/>
</filter>
<linearGradient id="paint0_linear_4_1458" x1="212.764" y1="59.7787" x2="-14.924" y2="138.854" gradientUnits="userSpaceOnUse">
<stop stop-color="#A855F7"/>
<stop offset="0.812027" stop-color="#A855F7" stop-opacity="0"/>
</linearGradient>
<linearGradient id="paint1_linear_4_1458" x1="-102.562" y1="59.7787" x2="178.825" y2="-37.946" gradientUnits="userSpaceOnUse">
<stop stop-color="#A855F7"/>
<stop offset="0.812027" stop-color="#A855F7" stop-opacity="0"/>
</linearGradient>
<linearGradient id="paint2_linear_4_1458" x1="280.167" y1="69.0992" x2="280.167" y2="129.533" gradientUnits="userSpaceOnUse">
<stop offset="0.45" stop-color="#6B21A8" stop-opacity="0.1"/>
<stop offset="1" stop-color="#9E00FF"/>
</linearGradient>
<linearGradient id="paint3_linear_4_1458" x1="183.742" y1="129.732" x2="354.612" y2="129.732" gradientUnits="userSpaceOnUse">
<stop stop-color="#DDD6FE" stop-opacity="0"/>
<stop offset="0.278114" stop-color="white"/>
<stop offset="0.714266" stop-color="white"/>
<stop offset="1" stop-color="#DDD6FE" stop-opacity="0"/>
</linearGradient>
</defs>
</svg>
