<svg width="384" height="182" viewBox="0 0 384 182" fill="none" xmlns="http://www.w3.org/2000/svg">
<g opacity="0.3">
<g clip-path="url(#clip0_4_1440)">
<mask id="mask0_4_1440" style="mask-type:alpha" maskUnits="userSpaceOnUse" x="-8" y="-11" width="400" height="193">
<rect x="-7.06665" y="-11" width="398.867" height="193" fill="url(#paint0_linear_4_1440)"/>
</mask>
<g mask="url(#mask0_4_1440)">
</g>
<g opacity="0.3" filter="url(#filter0_iiiif_4_1440)">
<g clip-path="url(#clip1_4_1440)">
<rect x="167" y="8" width="139.603" height="139.603" rx="69.8017" fill="#F97316"/>
<g style="mix-blend-mode:screen" filter="url(#filter1_f_4_1440)">
<path d="M207.718 77.8016L310.966 -25.4467L353.865 4.36447L294.97 90.1624L310.966 181.05L207.718 77.8016Z" fill="#DD9FED"/>
</g>
<g style="mix-blend-mode:screen" filter="url(#filter2_f_4_1440)">
<path d="M173.526 218.183L135.734 77.1436L183.001 54.8976L227.857 148.801L314.566 180.392L173.526 218.183Z" fill="#050024"/>
</g>
</g>
<rect x="167.364" y="8.36355" width="138.876" height="138.876" rx="69.4381" stroke="white" stroke-opacity="0.4" stroke-width="0.727101" style="mix-blend-mode:soft-light"/>
</g>
<g clip-path="url(#clip2_4_1440)">
<path d="M-7.06665 8.29993H391.8" stroke="white" stroke-opacity="0.05" stroke-width="0.643333"/>
<path d="M-7.06665 27.6H391.8" stroke="white" stroke-opacity="0.05" stroke-width="0.643333"/>
<path d="M-7.06665 46.9H391.8" stroke="white" stroke-opacity="0.05" stroke-width="0.643333"/>
<path d="M-7.06665 66.2H391.8" stroke="white" stroke-opacity="0.05" stroke-width="0.643333"/>
<path d="M-7.06665 85.5H391.8" stroke="white" stroke-opacity="0.05" stroke-width="0.643333"/>
<path d="M-7.06665 104.8H391.8" stroke="white" stroke-opacity="0.05" stroke-width="0.643333"/>
<path d="M-7.06665 124.1H391.8" stroke="white" stroke-opacity="0.05" stroke-width="0.643333"/>
<path d="M-7.06665 143.4H391.8" stroke="white" stroke-opacity="0.05" stroke-width="0.643333"/>
<path d="M-7.06665 162.7H391.8" stroke="white" stroke-opacity="0.05" stroke-width="0.643333"/>
</g>
<rect x="236.757" y="-10.3567" width="0.834725" height="191.713" fill="url(#paint1_linear_4_1440)"/>
<g clip-path="url(#clip3_4_1440)">
<path d="M-7.06665 112.937L23.6154 116.554L54.2975 82.1964L84.9795 91.2379L115.662 120.17L146.344 107.512L177.026 138.253L207.708 98.471L238.39 71.3467L269.072 125.595L299.754 89.4296L330.436 85.813L361.118 129.212L391.8 80.3881" stroke="url(#paint2_linear_4_1440)" stroke-width="1.28667"/>
<g filter="url(#filter3_bi_4_1440)">
<rect x="74.6368" y="80.3533" width="34.5325" height="34.5325" rx="17.2662" fill="white" fill-opacity="0.02"/>
<rect x="74.7717" y="80.4882" width="34.2627" height="34.2627" rx="17.1313" stroke="white" stroke-opacity="0.08" stroke-width="0.269785"/>
<g clip-path="url(#clip4_4_1440)">
<path d="M88.6864 97.9412L90.6164 99.8712L95.1197 95.3679" stroke="#E5E5E5" stroke-width="0.965" stroke-linecap="round" stroke-linejoin="round"/>
<path d="M91.9029 104.053C95.4559 104.053 98.3363 101.172 98.3363 97.6195C98.3363 94.0665 95.4559 91.1862 91.9029 91.1862C88.3499 91.1862 85.4696 94.0665 85.4696 97.6195C85.4696 101.172 88.3499 104.053 91.9029 104.053Z" stroke="#E5E5E5" stroke-width="0.965" stroke-linecap="round" stroke-linejoin="round"/>
</g>
<mask id="mask1_4_1440" style="mask-type:alpha" maskUnits="userSpaceOnUse" x="74" y="80" width="36" height="35">
<rect x="74.6368" y="80.034" width="34.5341" height="34.5341" fill="url(#paint3_angular_4_1440)"/>
</mask>
<g mask="url(#mask1_4_1440)">
<rect x="74.9585" y="80.3557" width="33.8908" height="33.8908" rx="16.9454" stroke="url(#paint4_linear_4_1440)" stroke-width="0.643333"/>
</g>
</g>
<g filter="url(#filter4_bi_4_1440)">
<rect x="218.1" y="56.55" width="34.5325" height="34.5325" rx="17.2662" fill="white" fill-opacity="0.02"/>
<rect x="218.235" y="56.6849" width="34.2627" height="34.2627" rx="17.1313" stroke="white" stroke-opacity="0.08" stroke-width="0.269785"/>
<path d="M235.366 70.5995V71.8862" stroke="#E5E5E5" stroke-width="0.965" stroke-linecap="round" stroke-linejoin="round"/>
<path d="M235.366 74.4649L235.372 74.4588" stroke="#E5E5E5" stroke-width="0.965" stroke-linecap="round" stroke-linejoin="round"/>
<path d="M229.576 79.1492V69.3129C229.576 68.6023 230.152 68.0262 230.863 68.0262H239.87C240.58 68.0262 241.156 68.6023 241.156 69.3129V75.7462C241.156 76.4569 240.58 77.0329 239.87 77.0329H232.768C232.377 77.0329 232.007 77.2106 231.763 77.5158L230.264 79.3903C230.036 79.6752 229.576 79.5141 229.576 79.1492Z" stroke="#E5E5E5" stroke-width="0.965"/>
<mask id="mask2_4_1440" style="mask-type:alpha" maskUnits="userSpaceOnUse" x="218" y="56" width="35" height="35">
<rect x="218.1" y="56.2306" width="34.5341" height="34.5341" fill="url(#paint5_angular_4_1440)"/>
</mask>
<g mask="url(#mask2_4_1440)">
<rect x="218.422" y="56.5523" width="33.8908" height="33.8908" rx="16.9454" stroke="url(#paint6_linear_4_1440)" stroke-width="0.643333"/>
</g>
</g>
</g>
<rect x="161" y="16" width="153.453" height="24.7267" rx="5.14667" fill="#050024"/>
<rect x="161.322" y="16.3217" width="152.81" height="24.0833" rx="4.825" stroke="#DE98F7" stroke-opacity="0.4" stroke-width="0.643333"/>
<path d="M174.51 24.5242V25.4892" stroke="#E5E5E5" stroke-width="0.965" stroke-linecap="round" stroke-linejoin="round"/>
<path d="M174.51 27.4245L174.515 27.4187" stroke="#E5E5E5" stroke-width="0.965" stroke-linecap="round" stroke-linejoin="round"/>
<path d="M170.167 30.9363V23.5591C170.167 23.0262 170.599 22.5941 171.132 22.5941H177.887C178.42 22.5941 178.852 23.0262 178.852 23.5591V28.3841C178.852 28.9171 178.42 29.3491 177.887 29.3491H172.561C172.268 29.3491 171.991 29.4824 171.808 29.7113L170.683 31.1171C170.512 31.3308 170.167 31.21 170.167 30.9363Z" stroke="#E5E5E5" stroke-width="0.965"/>
<path d="M188.006 30.1466H186.957L189.314 23.5963H190.456L192.813 30.1466H191.764L189.912 24.7861H189.861L188.006 30.1466ZM188.182 27.5815H191.585V28.4131H188.182V27.5815ZM194.639 23.5963V30.1466H193.683V23.5963H194.639ZM198.043 30.2458C197.559 30.2458 197.142 30.1423 196.792 29.9355C196.445 29.7266 196.176 29.4334 195.986 29.056C195.799 28.6764 195.705 28.2318 195.705 27.7222C195.705 27.219 195.799 26.7755 195.986 26.3917C196.176 26.0079 196.44 25.7083 196.779 25.4929C197.121 25.2776 197.519 25.1699 197.976 25.1699C198.253 25.1699 198.521 25.2158 198.782 25.3074C199.042 25.3991 199.275 25.5431 199.482 25.7392C199.689 25.9354 199.852 26.1902 199.971 26.5036C200.091 26.815 200.151 27.1934 200.151 27.6391V27.9781H196.245V27.2617H199.213C199.213 27.0101 199.162 26.7872 199.06 26.5932C198.958 26.397 198.814 26.2424 198.628 26.1294C198.445 26.0164 198.229 25.9599 197.982 25.9599C197.713 25.9599 197.479 26.026 197.278 26.1582C197.08 26.2883 196.927 26.4589 196.818 26.67C196.711 26.8789 196.658 27.106 196.658 27.3512V27.9109C196.658 28.2393 196.715 28.5186 196.831 28.7489C196.948 28.9792 197.111 29.1551 197.32 29.2766C197.529 29.3961 197.773 29.4558 198.052 29.4558C198.234 29.4558 198.399 29.4302 198.548 29.379C198.697 29.3257 198.826 29.2468 198.935 29.1423C199.044 29.0378 199.127 28.9088 199.185 28.7553L200.09 28.9184C200.017 29.185 199.887 29.4184 199.7 29.6189C199.514 29.8172 199.281 29.9718 198.999 30.0826C198.72 30.1914 198.401 30.2458 198.043 30.2458ZM201.212 30.1466V25.2339H202.136V26.0143H202.187C202.277 25.7499 202.434 25.542 202.66 25.3906C202.889 25.2371 203.147 25.1603 203.434 25.1603C203.494 25.1603 203.565 25.1624 203.646 25.1667C203.729 25.171 203.794 25.1763 203.841 25.1827V26.0974C203.802 26.0868 203.734 26.0751 203.636 26.0623C203.538 26.0473 203.44 26.0399 203.342 26.0399C203.116 26.0399 202.914 26.0878 202.737 26.1838C202.562 26.2776 202.424 26.4088 202.321 26.5772C202.219 26.7435 202.168 26.9333 202.168 27.1465V30.1466H201.212ZM207.252 25.2339V26.0015H204.568V25.2339H207.252ZM205.288 24.0569H206.244V28.7041C206.244 28.8896 206.272 29.0293 206.327 29.1231C206.383 29.2148 206.454 29.2777 206.542 29.3118C206.631 29.3438 206.728 29.3598 206.833 29.3598C206.91 29.3598 206.977 29.3545 207.034 29.3438C207.092 29.3331 207.137 29.3246 207.169 29.3182L207.341 30.1082C207.286 30.1295 207.207 30.1509 207.105 30.1722C207.002 30.1956 206.874 30.2084 206.721 30.2106C206.469 30.2148 206.235 30.1701 206.017 30.0762C205.8 29.9824 205.624 29.8374 205.489 29.6413C205.355 29.4451 205.288 29.1988 205.288 28.9024V24.0569ZM213.588 26.9642V27.7926H210.684V26.9642H213.588Z" fill="#E5E5E5"/>
<path d="M216.833 23.5963H217.742L219.558 26.654H219.635L221.452 23.5963H222.36L219.993 27.4472V30.1466H219.2V27.4472L216.833 23.5963ZM224.585 30.249C224.141 30.249 223.752 30.1434 223.417 29.9323C223.085 29.7212 222.824 29.4259 222.637 29.0464C222.451 28.6668 222.359 28.2233 222.359 27.7158C222.359 27.2041 222.451 26.7574 222.637 26.3757C222.824 25.994 223.085 25.6976 223.417 25.4866C223.752 25.2755 224.141 25.1699 224.585 25.1699C225.028 25.1699 225.416 25.2755 225.749 25.4866C226.084 25.6976 226.344 25.994 226.529 26.3757C226.717 26.7574 226.811 27.2041 226.811 27.7158C226.811 28.2233 226.717 28.6668 226.529 29.0464C226.344 29.4259 226.084 29.7212 225.749 29.9323C225.416 30.1434 225.028 30.249 224.585 30.249ZM224.585 29.5709C224.922 29.5709 225.199 29.4845 225.416 29.3118C225.634 29.1391 225.795 28.912 225.899 28.6306C226.004 28.3491 226.056 28.0442 226.056 27.7158C226.056 27.3875 226.004 27.0815 225.899 26.7979C225.795 26.5143 225.634 26.2851 225.416 26.1102C225.199 25.9354 224.922 25.848 224.585 25.848C224.248 25.848 223.971 25.9354 223.753 26.1102C223.536 26.2851 223.375 26.5143 223.27 26.7979C223.166 27.0815 223.113 27.3875 223.113 27.7158C223.113 28.0442 223.166 28.3491 223.27 28.6306C223.375 28.912 223.536 29.1391 223.753 29.3118C223.971 29.4845 224.248 29.5709 224.585 29.5709ZM231.059 28.138V25.2339H231.814V30.1466H231.059V29.315H231.008C230.893 29.5645 230.714 29.7767 230.47 29.9515C230.227 30.1242 229.92 30.2106 229.549 30.2106C229.242 30.2106 228.969 30.1434 228.731 30.0091C228.492 29.8726 228.304 29.6679 228.168 29.395C228.031 29.1199 227.963 28.7734 227.963 28.3555V25.2339H228.718V28.3043C228.718 28.6626 228.818 28.9483 229.018 29.1615C229.221 29.3747 229.479 29.4813 229.792 29.4813C229.98 29.4813 230.171 29.4334 230.365 29.3374C230.561 29.2415 230.725 29.0943 230.857 28.896C230.992 28.6977 231.059 28.4451 231.059 28.138ZM237.175 30.2617C236.864 30.2617 236.581 30.2031 236.328 30.0858C236.074 29.9664 235.872 29.7948 235.723 29.5709C235.574 29.3449 235.499 29.0719 235.499 28.7521C235.499 28.4707 235.555 28.2425 235.665 28.0677C235.776 27.8907 235.925 27.7521 236.11 27.6519C236.296 27.5516 236.5 27.477 236.724 27.428C236.95 27.3768 237.177 27.3363 237.405 27.3064C237.704 27.2681 237.946 27.2393 238.131 27.2201C238.319 27.1988 238.456 27.1636 238.541 27.1145C238.628 27.0655 238.672 26.9802 238.672 26.8587V26.8331C238.672 26.5175 238.586 26.2723 238.413 26.0974C238.242 25.9226 237.983 25.8352 237.636 25.8352C237.275 25.8352 236.993 25.9141 236.788 26.0719C236.583 26.2296 236.439 26.3981 236.356 26.5772L235.64 26.3213C235.768 26.0228 235.938 25.7904 236.152 25.6241C236.367 25.4556 236.602 25.3384 236.855 25.2723C237.111 25.204 237.363 25.1699 237.61 25.1699C237.768 25.1699 237.949 25.1891 238.154 25.2275C238.361 25.2637 238.56 25.3394 238.752 25.4546C238.946 25.5697 239.107 25.7435 239.235 25.9759C239.363 26.2083 239.427 26.5196 239.427 26.9098V30.1466H238.672V29.4813H238.634C238.582 29.588 238.497 29.702 238.378 29.8236C238.258 29.9451 238.099 30.0485 237.901 30.1338C237.703 30.2191 237.461 30.2617 237.175 30.2617ZM237.29 29.5837C237.589 29.5837 237.84 29.5251 238.045 29.4078C238.252 29.2905 238.408 29.1391 238.512 28.9536C238.619 28.7681 238.672 28.573 238.672 28.3683V27.6774C238.64 27.7158 238.57 27.751 238.461 27.783C238.354 27.8128 238.231 27.8395 238.09 27.863C237.951 27.8843 237.816 27.9035 237.684 27.9205C237.554 27.9355 237.448 27.9482 237.367 27.9589C237.171 27.9845 236.987 28.0261 236.817 28.0836C236.648 28.1391 236.512 28.2233 236.407 28.3363C236.305 28.4472 236.254 28.5986 236.254 28.7905C236.254 29.0528 236.351 29.2511 236.545 29.3854C236.741 29.5176 236.99 29.5837 237.29 29.5837ZM240.804 30.1466V25.2339H241.534V25.9759H241.585C241.674 25.7328 241.836 25.5356 242.071 25.3842C242.306 25.2328 242.57 25.1571 242.864 25.1571C242.92 25.1571 242.989 25.1582 243.072 25.1603C243.155 25.1624 243.218 25.1656 243.261 25.1699V25.9375C243.235 25.9311 243.177 25.9215 243.085 25.9087C242.995 25.8938 242.9 25.8864 242.8 25.8864C242.561 25.8864 242.348 25.9365 242.161 26.0367C241.975 26.1348 241.828 26.2712 241.719 26.4461C241.613 26.6188 241.559 26.816 241.559 27.0378V30.1466H240.804ZM246.066 30.249C245.592 30.249 245.184 30.1445 244.841 29.9355C244.5 29.7244 244.236 29.4302 244.051 29.0528C243.867 28.6732 243.776 28.2318 243.776 27.7286C243.776 27.2254 243.867 26.7819 244.051 26.3981C244.236 26.0122 244.494 25.7115 244.825 25.4961C245.157 25.2787 245.546 25.1699 245.989 25.1699C246.245 25.1699 246.498 25.2126 246.747 25.2978C246.997 25.3831 247.224 25.5217 247.428 25.7136C247.633 25.9034 247.796 26.155 247.918 26.4685C248.039 26.7819 248.1 27.1678 248.1 27.6263V27.9461H244.313V27.2936H247.332C247.332 27.0164 247.277 26.7691 247.166 26.5516C247.057 26.3341 246.902 26.1625 246.699 26.0367C246.499 25.9109 246.262 25.848 245.989 25.848C245.688 25.848 245.428 25.9226 245.209 26.0719C244.991 26.219 244.824 26.4109 244.706 26.6476C244.589 26.8842 244.531 27.138 244.531 27.4088V27.8438C244.531 28.2148 244.595 28.5293 244.722 28.7873C244.853 29.0432 245.033 29.2383 245.263 29.3726C245.493 29.5048 245.761 29.5709 246.066 29.5709C246.264 29.5709 246.443 29.5432 246.603 29.4877C246.765 29.4302 246.905 29.3449 247.022 29.2319C247.139 29.1167 247.23 28.9739 247.294 28.8033L248.023 29.008C247.946 29.2553 247.817 29.4728 247.636 29.6605C247.455 29.846 247.231 29.991 246.965 30.0954C246.698 30.1978 246.398 30.249 246.066 30.249ZM251.781 31.9889V25.2339H252.511V26.0143H252.6C252.656 25.929 252.732 25.8203 252.83 25.6881C252.931 25.5537 253.073 25.4343 253.259 25.3298C253.447 25.2232 253.7 25.1699 254.02 25.1699C254.434 25.1699 254.798 25.2733 255.114 25.4802C255.43 25.687 255.676 25.9802 255.853 26.3597C256.03 26.7393 256.118 27.187 256.118 27.703C256.118 28.2233 256.03 28.6743 255.853 29.056C255.676 29.4355 255.431 29.7297 255.117 29.9387C254.804 30.1455 254.442 30.249 254.033 30.249C253.717 30.249 253.465 30.1967 253.275 30.0922C253.085 29.9856 252.939 29.8651 252.837 29.7308C252.734 29.5944 252.656 29.4813 252.6 29.3918H252.536V31.9889H251.781ZM252.523 27.6902C252.523 28.0613 252.578 28.3886 252.686 28.6721C252.795 28.9536 252.954 29.1743 253.163 29.3342C253.372 29.492 253.628 29.5709 253.931 29.5709C254.246 29.5709 254.51 29.4877 254.721 29.3214C254.934 29.153 255.094 28.927 255.2 28.6434C255.309 28.3576 255.364 28.0399 255.364 27.6902C255.364 27.3448 255.31 27.0335 255.204 26.7563C255.099 26.477 254.94 26.2563 254.727 26.0942C254.516 25.9301 254.25 25.848 253.931 25.848C253.624 25.848 253.366 25.9258 253.157 26.0815C252.948 26.235 252.79 26.4503 252.683 26.7275C252.577 27.0026 252.523 27.3235 252.523 27.6902ZM258.715 30.2617C258.404 30.2617 258.122 30.2031 257.868 30.0858C257.614 29.9664 257.413 29.7948 257.263 29.5709C257.114 29.3449 257.039 29.0719 257.039 28.7521C257.039 28.4707 257.095 28.2425 257.206 28.0677C257.317 27.8907 257.465 27.7521 257.65 27.6519C257.836 27.5516 258.041 27.477 258.264 27.428C258.49 27.3768 258.718 27.3363 258.946 27.3064C259.244 27.2681 259.486 27.2393 259.672 27.2201C259.859 27.1988 259.996 27.1636 260.081 27.1145C260.169 27.0655 260.212 26.9802 260.212 26.8587V26.8331C260.212 26.5175 260.126 26.2723 259.953 26.0974C259.783 25.9226 259.524 25.8352 259.176 25.8352C258.816 25.8352 258.533 25.9141 258.328 26.0719C258.124 26.2296 257.98 26.3981 257.897 26.5772L257.18 26.3213C257.308 26.0228 257.479 25.7904 257.692 25.6241C257.907 25.4556 258.142 25.3384 258.396 25.2723C258.651 25.204 258.903 25.1699 259.15 25.1699C259.308 25.1699 259.489 25.1891 259.694 25.2275C259.901 25.2637 260.1 25.3394 260.292 25.4546C260.486 25.5697 260.647 25.7435 260.775 25.9759C260.903 26.2083 260.967 26.5196 260.967 26.9098V30.1466H260.212V29.4813H260.174C260.123 29.588 260.037 29.702 259.918 29.8236C259.799 29.9451 259.64 30.0485 259.441 30.1338C259.243 30.2191 259.001 30.2617 258.715 30.2617ZM258.831 29.5837C259.129 29.5837 259.381 29.5251 259.585 29.4078C259.792 29.2905 259.948 29.1391 260.052 28.9536C260.159 28.7681 260.212 28.573 260.212 28.3683V27.6774C260.18 27.7158 260.11 27.751 260.001 27.783C259.895 27.8128 259.771 27.8395 259.63 27.863C259.492 27.8843 259.356 27.9035 259.224 27.9205C259.094 27.9355 258.988 27.9482 258.907 27.9589C258.711 27.9845 258.528 28.0261 258.357 28.0836C258.189 28.1391 258.052 28.2233 257.948 28.3363C257.845 28.4472 257.794 28.5986 257.794 28.7905C257.794 29.0528 257.891 29.2511 258.085 29.3854C258.282 29.5176 258.53 29.5837 258.831 29.5837ZM262.655 31.9889C262.527 31.9889 262.413 31.9782 262.313 31.9569C262.213 31.9377 262.143 31.9185 262.105 31.8993L262.297 31.2341C262.48 31.281 262.642 31.298 262.783 31.2852C262.924 31.2724 263.048 31.2095 263.157 31.0965C263.268 30.9857 263.369 30.8055 263.461 30.556L263.602 30.1722L261.785 25.2339H262.604L263.96 29.1487H264.011L265.367 25.2339H266.186L264.101 30.863C264.007 31.1168 263.891 31.3268 263.752 31.4931C263.614 31.6616 263.453 31.7863 263.269 31.8673C263.088 31.9484 262.883 31.9889 262.655 31.9889ZM267.182 30.1466V25.2339H267.937V30.1466H267.182ZM267.566 24.4151C267.419 24.4151 267.292 24.365 267.186 24.2648C267.081 24.1646 267.029 24.0441 267.029 23.9033C267.029 23.7626 267.081 23.6421 267.186 23.5419C267.292 23.4417 267.419 23.3916 267.566 23.3916C267.713 23.3916 267.839 23.4417 267.944 23.5419C268.05 23.6421 268.104 23.7626 268.104 23.9033C268.104 24.0441 268.05 24.1646 267.944 24.2648C267.839 24.365 267.713 24.4151 267.566 24.4151ZM270.075 27.1913V30.1466H269.32V25.2339H270.049V26.0015H270.113C270.228 25.752 270.403 25.5516 270.637 25.4002C270.872 25.2467 271.175 25.1699 271.546 25.1699C271.878 25.1699 272.169 25.2381 272.419 25.3746C272.668 25.5089 272.862 25.7136 273.001 25.9887C273.14 26.2616 273.209 26.6071 273.209 27.025V30.1466H272.454V27.0762C272.454 26.6902 272.354 26.3896 272.153 26.1742C271.953 25.9567 271.678 25.848 271.328 25.848C271.087 25.848 270.872 25.9002 270.682 26.0047C270.495 26.1092 270.346 26.2616 270.238 26.4621C270.129 26.6625 270.075 26.9056 270.075 27.1913ZM276.571 32.0912C276.207 32.0912 275.893 32.0443 275.631 31.9505C275.369 31.8588 275.15 31.7373 274.975 31.5859C274.803 31.4366 274.665 31.2767 274.563 31.1061L275.164 30.6839C275.232 30.7735 275.319 30.8758 275.423 30.991C275.528 31.1083 275.67 31.2095 275.852 31.2948C276.035 31.3823 276.275 31.426 276.571 31.426C276.968 31.426 277.295 31.33 277.553 31.1381C277.811 30.9462 277.94 30.6456 277.94 30.2362V29.2383H277.876C277.821 29.3278 277.742 29.4387 277.64 29.5709C277.539 29.701 277.394 29.8172 277.205 29.9195C277.017 30.0197 276.763 30.0698 276.443 30.0698C276.047 30.0698 275.691 29.976 275.375 29.7884C275.062 29.6007 274.813 29.3278 274.63 28.9696C274.449 28.6114 274.358 28.1764 274.358 27.6647C274.358 27.1614 274.446 26.7233 274.623 26.3501C274.8 25.9748 275.047 25.6849 275.362 25.4802C275.678 25.2733 276.042 25.1699 276.456 25.1699C276.776 25.1699 277.03 25.2232 277.217 25.3298C277.407 25.4343 277.552 25.5537 277.652 25.6881C277.755 25.8203 277.834 25.929 277.889 26.0143H277.966V25.2339H278.695V30.2873C278.695 30.7095 278.599 31.0528 278.407 31.3172C278.217 31.5837 277.961 31.7789 277.64 31.9025C277.32 32.0283 276.964 32.0912 276.571 32.0912ZM276.546 29.3918C276.848 29.3918 277.104 29.3225 277.313 29.1839C277.522 29.0453 277.681 28.8459 277.79 28.5858C277.899 28.3257 277.953 28.0143 277.953 27.6519C277.953 27.2979 277.9 26.9855 277.793 26.7147C277.686 26.4439 277.529 26.2318 277.32 26.0783C277.111 25.9247 276.853 25.848 276.546 25.848C276.226 25.848 275.959 25.929 275.746 26.091C275.535 26.2531 275.376 26.4706 275.27 26.7435C275.165 27.0164 275.113 27.3192 275.113 27.6519C275.113 27.993 275.166 28.2947 275.273 28.557C275.381 28.8171 275.541 29.0218 275.752 29.1711C275.966 29.3182 276.23 29.3918 276.546 29.3918ZM282.61 30.1466V25.2339H283.339V26.0015H283.403C283.505 25.7392 283.671 25.5356 283.899 25.3906C284.127 25.2435 284.401 25.1699 284.721 25.1699C285.045 25.1699 285.315 25.2435 285.53 25.3906C285.747 25.5356 285.917 25.7392 286.038 26.0015H286.09C286.215 25.7478 286.404 25.5463 286.656 25.397C286.907 25.2456 287.209 25.1699 287.561 25.1699C288 25.1699 288.359 25.3074 288.639 25.5825C288.918 25.8554 289.058 26.2808 289.058 26.8587V30.1466H288.303V26.8587C288.303 26.4962 288.204 26.2371 288.005 26.0815C287.807 25.9258 287.574 25.848 287.305 25.848C286.96 25.848 286.692 25.9525 286.502 26.1614C286.312 26.3682 286.218 26.6305 286.218 26.9482V30.1466H285.45V26.7819C285.45 26.5026 285.359 26.2776 285.178 26.107C284.997 25.9343 284.763 25.848 284.478 25.848C284.282 25.848 284.098 25.9002 283.928 26.0047C283.759 26.1092 283.623 26.2542 283.518 26.4397C283.416 26.623 283.365 26.8352 283.365 27.0762V30.1466H282.61ZM292.434 30.249C291.99 30.249 291.601 30.1434 291.266 29.9323C290.934 29.7212 290.673 29.4259 290.486 29.0464C290.3 28.6668 290.208 28.2233 290.208 27.7158C290.208 27.2041 290.3 26.7574 290.486 26.3757C290.673 25.994 290.934 25.6976 291.266 25.4866C291.601 25.2755 291.99 25.1699 292.434 25.1699C292.877 25.1699 293.265 25.2755 293.598 25.4866C293.933 25.6976 294.193 25.994 294.378 26.3757C294.566 26.7574 294.66 27.2041 294.66 27.7158C294.66 28.2233 294.566 28.6668 294.378 29.0464C294.193 29.4259 293.933 29.7212 293.598 29.9323C293.265 30.1434 292.877 30.249 292.434 30.249ZM292.434 29.5709C292.771 29.5709 293.048 29.4845 293.265 29.3118C293.483 29.1391 293.644 28.912 293.748 28.6306C293.853 28.3491 293.905 28.0442 293.905 27.7158C293.905 27.3875 293.853 27.0815 293.748 26.7979C293.644 26.5143 293.483 26.2851 293.265 26.1102C293.048 25.9354 292.771 25.848 292.434 25.848C292.097 25.848 291.82 25.9354 291.602 26.1102C291.385 26.2851 291.224 26.5143 291.119 26.7979C291.015 27.0815 290.962 27.3875 290.962 27.7158C290.962 28.0442 291.015 28.3491 291.119 28.6306C291.224 28.912 291.385 29.1391 291.602 29.3118C291.82 29.4845 292.097 29.5709 292.434 29.5709ZM295.812 30.1466V25.2339H296.541V25.9759H296.592C296.682 25.7328 296.844 25.5356 297.079 25.3842C297.313 25.2328 297.577 25.1571 297.872 25.1571C297.927 25.1571 297.996 25.1582 298.08 25.1603C298.163 25.1624 298.226 25.1656 298.268 25.1699V25.9375C298.243 25.9311 298.184 25.9215 298.092 25.9087C298.003 25.8938 297.908 25.8864 297.808 25.8864C297.569 25.8864 297.356 25.9365 297.168 26.0367C296.983 26.1348 296.835 26.2712 296.727 26.4461C296.62 26.6188 296.567 26.816 296.567 27.0378V30.1466H295.812ZM301.073 30.249C300.6 30.249 300.192 30.1445 299.848 29.9355C299.507 29.7244 299.244 29.4302 299.058 29.0528C298.875 28.6732 298.783 28.2318 298.783 27.7286C298.783 27.2254 298.875 26.7819 299.058 26.3981C299.244 26.0122 299.502 25.7115 299.832 25.4961C300.165 25.2787 300.553 25.1699 300.997 25.1699C301.252 25.1699 301.505 25.2126 301.755 25.2978C302.004 25.3831 302.231 25.5217 302.436 25.7136C302.641 25.9034 302.804 26.155 302.925 26.4685C303.047 26.7819 303.107 27.1678 303.107 27.6263V27.9461H299.321V27.2936H302.34C302.34 27.0164 302.284 26.7691 302.174 26.5516C302.065 26.3341 301.909 26.1625 301.707 26.0367C301.506 25.9109 301.269 25.848 300.997 25.848C300.696 25.848 300.436 25.9226 300.216 26.0719C299.999 26.219 299.831 26.4109 299.714 26.6476C299.597 26.8842 299.538 27.138 299.538 27.4088V27.8438C299.538 28.2148 299.602 28.5293 299.73 28.7873C299.86 29.0432 300.04 29.2383 300.271 29.3726C300.501 29.5048 300.768 29.5709 301.073 29.5709C301.272 29.5709 301.451 29.5432 301.611 29.4877C301.773 29.4302 301.912 29.3449 302.03 29.2319C302.147 29.1167 302.238 28.9739 302.302 28.8033L303.031 29.008C302.954 29.2553 302.825 29.4728 302.644 29.6605C302.462 29.846 302.239 29.991 301.972 30.0954C301.706 30.1978 301.406 30.249 301.073 30.249ZM304.806 30.1978C304.648 30.1978 304.513 30.1413 304.4 30.0283C304.287 29.9153 304.23 29.7799 304.23 29.6221C304.23 29.4643 304.287 29.3289 304.4 29.2159C304.513 29.1029 304.648 29.0464 304.806 29.0464C304.964 29.0464 305.099 29.1029 305.212 29.2159C305.325 29.3289 305.382 29.4643 305.382 29.6221C305.382 29.7266 305.355 29.8225 305.302 29.9099C305.25 29.9973 305.181 30.0677 305.094 30.121C305.008 30.1722 304.912 30.1978 304.806 30.1978Z" fill="white" fill-opacity="0.6"/>
</g>
<rect x="-6.74498" y="-10.6783" width="398.223" height="192.357" rx="9.97167" stroke="white" stroke-opacity="0.05" stroke-width="0.643333"/>
</g>
<defs>
<filter id="filter0_iiiif_4_1440" x="70.3887" y="-88.6113" width="332.826" height="332.826" filterUnits="userSpaceOnUse" color-interpolation-filters="sRGB">
<feFlood flood-opacity="0" result="BackgroundImageFix"/>
<feBlend mode="normal" in="SourceGraphic" in2="BackgroundImageFix" result="shape"/>
<feColorMatrix in="SourceAlpha" type="matrix" values="0 0 0 0 0 0 0 0 0 0 0 0 0 0 0 0 0 0 127 0" result="hardAlpha"/>
<feOffset/>
<feGaussianBlur stdDeviation="2.9084"/>
<feComposite in2="hardAlpha" operator="arithmetic" k2="-1" k3="1"/>
<feColorMatrix type="matrix" values="0 0 0 0 1 0 0 0 0 1 0 0 0 0 1 0 0 0 0.05 0"/>
<feBlend mode="normal" in2="shape" result="effect1_innerShadow_4_1440"/>
<feColorMatrix in="SourceAlpha" type="matrix" values="0 0 0 0 0 0 0 0 0 0 0 0 0 0 0 0 0 0 127 0" result="hardAlpha"/>
<feOffset/>
<feGaussianBlur stdDeviation="5.81681"/>
<feComposite in2="hardAlpha" operator="arithmetic" k2="-1" k3="1"/>
<feColorMatrix type="matrix" values="0 0 0 0 1 0 0 0 0 1 0 0 0 0 1 0 0 0 0.1 0"/>
<feBlend mode="normal" in2="effect1_innerShadow_4_1440" result="effect2_innerShadow_4_1440"/>
<feColorMatrix in="SourceAlpha" type="matrix" values="0 0 0 0 0 0 0 0 0 0 0 0 0 0 0 0 0 0 127 0" result="hardAlpha"/>
<feOffset/>
<feGaussianBlur stdDeviation="8.72521"/>
<feComposite in2="hardAlpha" operator="arithmetic" k2="-1" k3="1"/>
<feColorMatrix type="matrix" values="0 0 0 0 1 0 0 0 0 1 0 0 0 0 1 0 0 0 0.2 0"/>
<feBlend mode="normal" in2="effect2_innerShadow_4_1440" result="effect3_innerShadow_4_1440"/>
<feColorMatrix in="SourceAlpha" type="matrix" values="0 0 0 0 0 0 0 0 0 0 0 0 0 0 0 0 0 0 127 0" result="hardAlpha"/>
<feOffset/>
<feGaussianBlur stdDeviation="11.6336"/>
<feComposite in2="hardAlpha" operator="arithmetic" k2="-1" k3="1"/>
<feColorMatrix type="matrix" values="0 0 0 0 1 0 0 0 0 1 0 0 0 0 1 0 0 0 0.3 0"/>
<feBlend mode="normal" in2="effect3_innerShadow_4_1440" result="effect4_innerShadow_4_1440"/>
<feGaussianBlur stdDeviation="48.3056" result="effect5_foregroundBlur_4_1440"/>
</filter>
<filter id="filter1_f_4_1440" x="137.916" y="-95.2483" width="285.751" height="346.1" filterUnits="userSpaceOnUse" color-interpolation-filters="sRGB">
<feFlood flood-opacity="0" result="BackgroundImageFix"/>
<feBlend mode="normal" in="SourceGraphic" in2="BackgroundImageFix" result="shape"/>
<feGaussianBlur stdDeviation="34.9008" result="effect1_foregroundBlur_4_1440"/>
</filter>
<filter id="filter2_f_4_1440" x="65.9328" y="-14.904" width="318.435" height="302.889" filterUnits="userSpaceOnUse" color-interpolation-filters="sRGB">
<feFlood flood-opacity="0" result="BackgroundImageFix"/>
<feBlend mode="normal" in="SourceGraphic" in2="BackgroundImageFix" result="shape"/>
<feGaussianBlur stdDeviation="34.9008" result="effect1_foregroundBlur_4_1440"/>
</filter>
<filter id="filter3_bi_4_1440" x="48.7375" y="54.1346" width="86.3329" height="86.6506" filterUnits="userSpaceOnUse" color-interpolation-filters="sRGB">
<feFlood flood-opacity="0" result="BackgroundImageFix"/>
<feGaussianBlur in="BackgroundImageFix" stdDeviation="12.9497"/>
<feComposite in2="SourceAlpha" operator="in" result="effect1_backgroundBlur_4_1440"/>
<feBlend mode="normal" in="SourceGraphic" in2="effect1_backgroundBlur_4_1440" result="shape"/>
<feColorMatrix in="SourceAlpha" type="matrix" values="0 0 0 0 0 0 0 0 0 0 0 0 0 0 0 0 0 0 127 0" result="hardAlpha"/>
<feOffset/>
<feGaussianBlur stdDeviation="3.23742"/>
<feComposite in2="hardAlpha" operator="arithmetic" k2="-1" k3="1"/>
<feColorMatrix type="matrix" values="0 0 0 0 1 0 0 0 0 1 0 0 0 0 1 0 0 0 0.08 0"/>
<feBlend mode="normal" in2="shape" result="effect2_innerShadow_4_1440"/>
</filter>
<filter id="filter4_bi_4_1440" x="192.201" y="30.3312" width="86.333" height="86.6506" filterUnits="userSpaceOnUse" color-interpolation-filters="sRGB">
<feFlood flood-opacity="0" result="BackgroundImageFix"/>
<feGaussianBlur in="BackgroundImageFix" stdDeviation="12.9497"/>
<feComposite in2="SourceAlpha" operator="in" result="effect1_backgroundBlur_4_1440"/>
<feBlend mode="normal" in="SourceGraphic" in2="effect1_backgroundBlur_4_1440" result="shape"/>
<feColorMatrix in="SourceAlpha" type="matrix" values="0 0 0 0 0 0 0 0 0 0 0 0 0 0 0 0 0 0 127 0" result="hardAlpha"/>
<feOffset/>
<feGaussianBlur stdDeviation="3.23742"/>
<feComposite in2="hardAlpha" operator="arithmetic" k2="-1" k3="1"/>
<feColorMatrix type="matrix" values="0 0 0 0 1 0 0 0 0 1 0 0 0 0 1 0 0 0 0.08 0"/>
<feBlend mode="normal" in2="shape" result="effect2_innerShadow_4_1440"/>
</filter>
<linearGradient id="paint0_linear_4_1440" x1="-7.06665" y1="-11" x2="203.416" y2="38.7976" gradientUnits="userSpaceOnUse">
<stop stop-color="white" stop-opacity="0"/>
<stop offset="1" stop-color="white"/>
</linearGradient>
<linearGradient id="paint1_linear_4_1440" x1="236.736" y1="181.357" x2="236.741" y2="-10.3567" gradientUnits="userSpaceOnUse">
<stop offset="0.09" stop-color="#7F51C4" stop-opacity="0"/>
<stop offset="0.23" stop-color="#7F51C4"/>
<stop offset="0.505" stop-color="#DE98F7"/>
<stop offset="0.795" stop-color="#6B3EEC"/>
<stop offset="0.94" stop-color="#6B3EEC" stop-opacity="0"/>
</linearGradient>
<linearGradient id="paint2_linear_4_1440" x1="-7.06665" y1="105.68" x2="391.8" y2="105.68" gradientUnits="userSpaceOnUse">
<stop stop-color="#7F51C4"/>
<stop offset="0.505" stop-color="#DE98F7"/>
<stop offset="1" stop-color="#6B3EEC"/>
</linearGradient>
<radialGradient id="paint3_angular_4_1440" cx="0" cy="0" r="1" gradientUnits="userSpaceOnUse" gradientTransform="translate(91.9039 97.3011) scale(17.2671 130.942)">
<stop stop-color="#D9D9D9" stop-opacity="0.28"/>
<stop offset="0.125" stop-color="#D9D9D9" stop-opacity="0"/>
<stop offset="0.91" stop-color="#D9D9D9" stop-opacity="0"/>
<stop offset="1" stop-color="#D9D9D9" stop-opacity="0.28"/>
</radialGradient>
<linearGradient id="paint4_linear_4_1440" x1="74.6368" y1="97.7555" x2="109.171" y2="97.7555" gradientUnits="userSpaceOnUse">
<stop stop-color="#7F51C4"/>
<stop offset="0.505" stop-color="#DE98F7"/>
<stop offset="1" stop-color="#D5C6FF"/>
</linearGradient>
<radialGradient id="paint5_angular_4_1440" cx="0" cy="0" r="1" gradientUnits="userSpaceOnUse" gradientTransform="translate(235.367 73.4977) scale(17.2671 130.942)">
<stop stop-color="#D9D9D9" stop-opacity="0.28"/>
<stop offset="0.125" stop-color="#D9D9D9" stop-opacity="0"/>
<stop offset="0.91" stop-color="#D9D9D9" stop-opacity="0"/>
<stop offset="1" stop-color="#D9D9D9" stop-opacity="0.28"/>
</radialGradient>
<linearGradient id="paint6_linear_4_1440" x1="218.1" y1="73.9521" x2="252.634" y2="73.9521" gradientUnits="userSpaceOnUse">
<stop stop-color="#7F51C4"/>
<stop offset="0.505" stop-color="#DE98F7"/>
<stop offset="1" stop-color="#D5C6FF"/>
</linearGradient>
<clipPath id="clip0_4_1440">
<rect x="-7.06665" y="-11" width="398.867" height="193" rx="10.2933" fill="white"/>
</clipPath>
<clipPath id="clip1_4_1440">
<rect x="167" y="8" width="139.603" height="139.603" rx="69.8017" fill="white"/>
</clipPath>
<clipPath id="clip2_4_1440">
<rect width="398.867" height="193" fill="white" transform="translate(-7.06665 -11)"/>
</clipPath>
<clipPath id="clip3_4_1440">
<rect width="398.867" height="193" fill="white" transform="translate(-7.06665 -11)"/>
</clipPath>
<clipPath id="clip4_4_1440">
<rect width="15.44" height="15.44" fill="white" transform="translate(84.183 89.8996)"/>
</clipPath>
</defs>
</svg>
