<svg width="20" height="21" viewBox="0 0 20 21" fill="none" xmlns="http://www.w3.org/2000/svg">
<path d="M11.1886 10.5102L15.5994 6.09937C15.679 6.02249 15.7425 5.93054 15.7862 5.82887C15.8299 5.7272 15.8528 5.61785 15.8538 5.5072C15.8548 5.39655 15.8337 5.28682 15.7918 5.1844C15.7499 5.08199 15.688 4.98895 15.6098 4.9107C15.5315 4.83246 15.4385 4.77058 15.3361 4.72868C15.2336 4.68678 15.1239 4.6657 15.0133 4.66666C14.9026 4.66762 14.7933 4.69061 14.6916 4.73428C14.5899 4.77796 14.498 4.84144 14.4211 4.92103L10.0103 9.33187L5.59943 4.92103C5.44226 4.76923 5.23176 4.68524 5.01326 4.68714C4.79476 4.68904 4.58575 4.77668 4.43125 4.93118C4.27674 5.08569 4.1891 5.2947 4.1872 5.5132C4.1853 5.7317 4.2693 5.9422 4.42109 6.09937L8.83193 10.5102L4.42109 14.921C4.3415 14.9979 4.27802 15.0899 4.23434 15.1915C4.19067 15.2932 4.16768 15.4025 4.16672 15.5132C4.16576 15.6238 4.18684 15.7336 4.22874 15.836C4.27064 15.9384 4.33252 16.0315 4.41076 16.1097C4.48901 16.1879 4.58205 16.2498 4.68447 16.2917C4.78688 16.3336 4.89661 16.3547 5.00726 16.3537C5.11791 16.3528 5.22726 16.3298 5.32893 16.2861C5.4306 16.2424 5.52255 16.179 5.59943 16.0994L10.0103 11.6885L14.4211 16.0994C14.5783 16.2512 14.7888 16.3352 15.0073 16.3333C15.2258 16.3314 15.4348 16.2437 15.5893 16.0892C15.7438 15.9347 15.8314 15.7257 15.8333 15.5072C15.8352 15.2887 15.7512 15.0782 15.5994 14.921L11.1886 10.5102Z" fill="#9CA3AF"/>
</svg>
