<svg width="20" height="20" viewBox="0 0 20 20" fill="none" xmlns="http://www.w3.org/2000/svg">
<rect x="0.5" y="0.5" width="19" height="19" stroke="black"/>
<path d="M5 9.16675C5 6.80973 5 5.63121 5.73223 4.89898C6.46447 4.16675 7.64298 4.16675 10 4.16675H12.5C14.857 4.16675 16.0355 4.16675 16.7678 4.89898C17.5 5.63121 17.5 6.80973 17.5 9.16675V13.3334C17.5 15.6904 17.5 16.869 16.7678 17.6012C16.0355 18.3334 14.857 18.3334 12.5 18.3334H10C7.64298 18.3334 6.46447 18.3334 5.73223 17.6012C5 16.869 5 15.6904 5 13.3334V9.16675Z" stroke="white" stroke-width="1.5"/>
<path opacity="0.5" d="M5 15.8334C3.61929 15.8334 2.5 14.7141 2.5 13.3334V8.33341C2.5 5.19072 2.5 3.61937 3.47631 2.64306C4.45262 1.66675 6.02397 1.66675 9.16667 1.66675H12.5C13.8807 1.66675 15 2.78604 15 4.16675" stroke="white" stroke-width="1.5"/>
</svg>
