<svg width="32" height="32" viewBox="0 0 32 32" fill="none" xmlns="http://www.w3.org/2000/svg">
<path d="M9.44067 25.5037C9.24387 25.5144 9.11427 25.5304 8.98467 25.5272C7.99107 25.5032 6.99267 25.5272 6.00494 25.437C4.72974 25.3208 3.62787 24.7453 2.66094 23.9202C1.54894 22.972 0.814005 21.7704 0.529205 20.3474C-0.0675948 17.3661 1.05507 14.5368 3.79107 12.9618C4.55107 12.5245 5.38254 12.2584 6.26254 12.1794C6.42521 12.165 6.46894 12.0888 6.50041 11.9544C6.78307 10.7394 7.27321 9.61411 7.97934 8.58478C8.56974 7.72504 9.25827 6.95704 10.0812 6.30958C11.9185 4.86478 13.998 4.10211 16.3372 4.05571C19.8801 3.98584 22.7287 5.38904 24.9143 8.14638C26.0764 9.61251 26.7425 11.3042 26.9719 13.1592C27.038 13.6946 27.0316 14.2397 27.046 14.7805C27.0508 14.956 27.1127 15.0274 27.2876 15.052C29.4476 15.356 31.1767 16.957 31.5441 19.1005C31.8679 20.9858 31.4929 22.7138 30.0631 24.0936C29.0956 25.0274 27.9228 25.5096 26.5761 25.5277C25.3676 25.5442 24.1585 25.5325 22.95 25.5293C22.8577 25.5293 22.7649 25.4946 22.6727 25.476C22.7015 25.3794 22.7121 25.2722 22.7623 25.1885C23.6743 23.6685 24.0524 22.0312 23.8727 20.2642C23.6567 18.1384 22.7276 16.38 21.0977 15.0162C19.8129 13.941 18.3217 13.3224 16.6327 13.1992C14.694 13.0578 12.9372 13.5464 11.3665 14.6829C9.67214 15.9085 8.61827 17.5661 8.23481 19.613C7.86254 21.6018 8.21721 23.4818 9.27854 25.2173C9.32334 25.2909 9.36387 25.3677 9.44014 25.5032L9.44067 25.5037Z" fill="white"/>
<path d="M16.0109 14.1988C19.7853 14.1913 22.8616 17.2606 22.8674 21.0393C22.8733 24.8158 19.8077 27.9236 16.0834 27.9396C12.2562 27.9561 9.14264 24.9012 9.15384 21.0302C9.16451 17.2468 12.2141 14.2094 16.0109 14.1982V14.1988ZM10.5592 21.0713C10.6189 21.1902 10.6584 21.3188 10.7368 21.4153C10.8925 21.6068 11.069 21.7822 11.2392 21.9625C11.9208 22.6857 12.5965 23.4142 13.2877 24.1273C13.5522 24.3998 13.8562 24.3961 14.085 24.1652C14.3005 23.9476 14.2738 23.6617 14.0189 23.3924C13.3666 22.7033 12.7245 22.0046 12.0605 21.3268C11.8632 21.1257 11.869 21.0068 12.0626 20.8094C12.7213 20.138 13.3682 19.4548 14.0013 18.7593C14.1197 18.6292 14.228 18.4132 14.2104 18.2516C14.1613 17.8094 13.6434 17.6489 13.324 17.9769C12.4456 18.8793 11.5842 19.7982 10.724 20.7177C10.6456 20.8014 10.6205 20.9348 10.5592 21.0713ZM21.4712 21.0734C21.404 20.9406 21.3634 20.8121 21.2845 20.7145C21.1458 20.5433 20.9832 20.3913 20.8312 20.2302C20.1309 19.4884 19.4354 18.7417 18.7282 18.0062C18.4802 17.7486 18.1757 17.7481 17.948 17.9684C17.7405 18.1689 17.7656 18.4964 18.0082 18.7518C18.6557 19.4334 19.3005 20.1182 19.9533 20.795C20.1261 20.9742 20.205 21.1236 19.9677 21.3118C19.8509 21.4041 19.764 21.5332 19.6605 21.6425C19.1 22.235 18.5368 22.8254 17.9773 23.419C17.6717 23.7438 17.7757 24.1774 18.1816 24.3076C18.4477 24.3929 18.621 24.2548 18.7869 24.0804C19.6104 23.2126 20.4376 22.3481 21.2546 21.4745C21.3506 21.3721 21.3944 21.2201 21.4712 21.0734ZM16.6834 17.8462C16.4125 17.8414 16.2114 18.0004 16.1389 18.2958C15.9794 18.9406 15.8274 19.587 15.6712 20.2324C15.4024 21.3433 15.1368 22.4542 14.8621 23.5636C14.781 23.89 14.9138 24.1881 15.2013 24.2665C15.5149 24.3513 15.7874 24.1801 15.8744 23.8329C16.1192 22.8532 16.3634 21.8729 16.6018 20.8916C16.7965 20.0905 16.9896 19.2889 17.1709 18.4846C17.2509 18.1316 17.0258 17.8526 16.6834 17.8462Z" fill="white"/>
<path d="M10.5591 21.0716C10.6204 20.9356 10.6455 20.8017 10.7239 20.718C11.5847 19.7985 12.446 18.8796 13.3239 17.9772C13.6433 17.6492 14.1612 17.8097 14.2103 18.2519C14.2284 18.4135 14.1196 18.6295 14.0012 18.7596C13.3681 19.4551 12.7212 20.1383 12.0625 20.8097C11.8689 21.0071 11.8631 21.126 12.0604 21.3271C12.7244 22.0049 13.3671 22.7031 14.0188 23.3927C14.2737 23.662 14.2999 23.9479 14.0849 24.1655C13.8556 24.3969 13.5516 24.4007 13.2876 24.1276C12.5959 23.4145 11.9207 22.686 11.2391 21.9628C11.0695 21.7825 10.8929 21.6071 10.7367 21.4156C10.6583 21.3191 10.6188 21.1911 10.5591 21.0716Z" fill="#080B12"/>
<path d="M21.4711 21.0737C21.3938 21.2204 21.3506 21.3724 21.2546 21.4748C20.4375 22.3484 19.6103 23.2129 18.7868 24.0807C18.621 24.2551 18.4476 24.3932 18.1815 24.3079C17.7756 24.1777 17.6716 23.7441 17.9772 23.4193C18.5367 22.8257 19.0999 22.2353 19.6604 21.6428C19.7639 21.5335 19.8514 21.4044 19.9676 21.3121C20.205 21.1239 20.126 20.9745 19.9532 20.7953C19.3004 20.1191 18.6556 19.4343 18.0082 18.7521C17.7655 18.4967 17.7404 18.1692 17.9479 17.9687C18.1756 17.7484 18.4802 17.7489 18.7282 18.0065C19.4354 18.7415 20.1308 19.4881 20.8311 20.2305C20.9831 20.3916 21.1458 20.5431 21.2844 20.7148C21.3634 20.8119 21.4039 20.9404 21.4711 21.0737Z" fill="#080B12"/>
<path d="M16.6833 17.8463C17.0257 17.8527 17.2508 18.1316 17.1708 18.4847C16.9889 19.289 16.7964 20.0906 16.6017 20.8916C16.3628 21.873 16.1191 22.8532 15.8743 23.833C15.7873 24.1802 15.5148 24.3514 15.2012 24.2666C14.9137 24.1887 14.7815 23.89 14.862 23.5636C15.1367 22.4543 15.4023 21.3428 15.6711 20.2324C15.8273 19.5871 15.9793 18.9407 16.1388 18.2959C16.2119 18.0004 16.4129 17.8415 16.6833 17.8463Z" fill="#080B12"/>
</svg>
