<svg width="281" height="282" viewBox="0 0 281 282" fill="none" xmlns="http://www.w3.org/2000/svg">
<path d="M149.569 43.1492C134.135 49.9804 122.85 57.1472 112.136 69.4279C111.451 70.2173 108.237 74.6553 108.237 74.6553C108.237 74.6553 103.472 81.997 101.814 85.3991C99.7742 89.5881 99.0236 93.3608 98.401 97.9606C96.7014 110.516 100.934 122.723 108.777 132.521C109.765 133.755 115.631 141.483 117.303 141.256C117.765 141.194 116.921 140.041 116.921 140.041C116.921 140.041 115.592 138.436 115.256 137.023C114.158 132.424 113.071 125.991 113.249 121.276C113.389 117.531 114.423 114.057 115.385 110.497C116.211 107.438 116.616 103.96 117.848 101.022C120.935 93.6629 126.53 87.12 132.058 81.4298C140.511 72.7279 143.697 73.0895 153.019 65.8988C154.634 64.6528 159.862 62.3925 159.862 62.3925C159.862 62.3925 163.4 68.3578 164.298 70.0037C164.353 70.106 165.432 72.6071 166.128 72.4534C166.776 72.31 167.806 69.149 168.151 68.5826C171.063 63.8087 174.235 59.1277 177.327 54.4527C180.28 49.9843 183.042 45.2138 186.287 40.9491C186.781 40.2986 189.106 37.4207 189.106 37.4207C189.106 37.4207 186.474 36.7913 186.318 36.7489C185.502 36.5288 184.272 35.9187 183.362 35.9509C181.986 35.9986 179.982 35.4256 178.552 35.0812C176.812 34.6623 174.324 34.6721 172.482 34.21C167.799 33.0348 165.623 32.6359 160.814 32.2847C157.856 32.0695 154.862 31.7591 151.912 31.6688C150.864 31.6373 145.087 30.6726 144.939 30.9962C144.693 31.5294 149.698 43.0949 149.572 43.1503M154.602 236.57C154.602 236.57 149.276 237.984 146.573 238.352C142.194 238.961 137.765 239.135 133.351 238.873C131.117 238.729 128.097 238.609 125.88 238.512C115.455 238.085 105.308 235.021 96.3887 229.606C92.5749 227.276 89.0018 223.936 85.5606 221.069C82.3645 218.405 80.4224 215.28 78.0826 211.832C76.2818 209.178 75.8778 205.45 75.8778 205.45C75.8778 205.45 71.2871 208.315 70.819 208.812C67.9406 211.87 64.7497 216.553 65.2575 219.751C66.7125 228.901 76.3674 235.975 83.955 241.076C93.3456 247.39 102.261 249.328 113.568 250.741C116.912 251.159 118.905 251.27 122.238 251.04C129.689 250.527 137.934 249.841 143.795 247.064C148.711 244.735 154.602 236.568 154.602 236.568" fill="url(#paint0_linear_384_3539)"/>
<path d="M103.028 124.564C106.118 133.983 111.758 141.409 117.063 149.46C122.911 158.336 130.37 166.57 137.545 174.419C144.964 182.533 152.721 192.13 160.109 204.928C161.965 208.144 161.58 212.28 162.035 219.321C162.151 221.12 159.95 229.045 158.351 231.233C156.2 234.179 152.848 240.371 149.887 242.525C149.419 242.866 144.597 246.81 144.597 246.81C144.597 246.81 148.953 245.498 149.58 245.342C154.357 244.16 160.575 240.907 164.584 238.101C167.734 235.896 172.976 230.821 174.109 228.611C175.25 226.383 178.676 216.563 178.676 216.563C179.335 212.109 178.426 207.647 177.393 203.289C176.871 201.084 175.873 198.95 174.855 196.933C173.923 195.086 171.697 191.577 170.335 190.093C167.815 187.347 167.403 185.353 164.713 182.844C160.889 179.275 157.492 175.499 153.659 171.901C150.505 168.942 146.665 166.13 143.369 163.52C139.844 160.727 136.975 158.436 133.43 155.698C128.844 152.157 126.698 150.188 124.053 147.804C120.744 144.819 118.377 142.524 115.246 139.313C111.533 135.503 106.467 129.686 104.258 126.23" fill="#C5A4FE"/>
<path d="M221.264 162.267C221.264 162.267 221.698 166.507 223.658 168.89C225.617 171.274 229.1 171.804 229.1 171.804C229.1 171.804 225.617 172.334 223.658 174.719C221.699 177.103 221.264 181.342 221.264 181.342C221.264 181.342 220.829 177.101 218.87 174.719C216.911 172.336 213.428 171.804 213.428 171.804C213.428 171.804 216.911 171.276 218.87 168.89C220.829 166.505 221.264 162.267 221.264 162.267ZM63.0906 56.0959C63.0906 56.0959 62.6559 60.3354 60.6969 62.719C58.738 65.1025 55.2549 65.633 55.2549 65.633C55.2549 65.633 58.7383 66.1623 60.6969 68.5471C62.6556 70.932 63.0906 75.1701 63.0906 75.1701C63.0906 75.1701 63.5251 70.9291 65.4843 68.5471C67.4435 66.1651 70.9272 65.633 70.9272 65.633C70.9272 65.633 67.4435 65.1043 65.4843 62.719C63.5251 60.3336 63.0906 56.0959 63.0906 56.0959ZM204.094 183.316C204.094 183.316 203.576 188.38 201.235 191.228C198.895 194.077 194.733 194.708 194.733 194.708C194.733 194.708 198.896 195.34 201.235 198.189C203.574 201.038 204.094 206.101 204.094 206.101C204.094 206.101 204.615 201.036 206.954 198.189C209.294 195.341 213.456 194.708 213.456 194.708C213.456 194.708 209.295 194.078 206.954 191.228C204.614 188.379 204.094 183.316 204.094 183.316ZM45.921 77.1444C45.921 77.1444 45.4022 82.2092 43.0618 85.0574C40.7215 87.9057 36.5598 88.5371 36.5598 88.5371C36.5598 88.5371 40.7228 89.1689 43.0618 92.0171C45.4009 94.8654 45.921 99.9299 45.921 99.9299C45.921 99.9299 46.4414 94.8651 48.781 92.0171C51.1206 89.1691 55.2827 88.5371 55.2827 88.5371C55.2827 88.5371 51.1198 87.9054 48.781 85.0574C46.4422 82.2094 45.921 77.1444 45.921 77.1444ZM239.079 182.462C239.079 182.462 238.78 185.374 237.435 187.01C236.09 188.647 233.698 189.011 233.698 189.011C233.698 189.011 236.09 189.374 237.435 191.012C238.78 192.651 239.079 195.56 239.079 195.56C239.079 195.56 239.377 192.649 240.722 191.012C242.068 189.376 244.46 189.011 244.46 189.011C244.46 189.011 242.068 188.647 240.722 187.01C239.377 185.374 239.079 182.462 239.079 182.462ZM80.9053 76.292C80.9053 76.292 80.6068 79.203 79.2617 80.8403C77.9165 82.4777 75.5238 82.8406 75.5238 82.8406C75.5238 82.8406 77.9175 83.2049 79.2617 84.8412C80.6058 86.4775 80.9053 89.3895 80.9053 89.3895C80.9053 89.3895 81.2034 86.4785 82.5491 84.8412C83.8948 83.2039 86.2864 82.8406 86.2864 82.8406C86.2864 82.8406 83.8943 82.4777 82.5491 80.8403C81.2039 79.203 80.9053 76.292 80.9053 76.292Z" fill="white"/>
<path d="M149.941 42.702C150.004 42.6804 150.073 42.6846 150.133 42.7138C150.193 42.743 150.238 42.7948 150.26 42.8577C150.282 42.9207 150.277 42.9897 150.248 43.0496C150.219 43.1094 150.167 43.1552 150.104 43.1769L149.863 43.2622L149.609 43.3577L149.34 43.4639L149.058 43.5786L148.763 43.7027L148.456 43.8362L148.138 43.9772L147.81 44.126L147.471 44.2821L147.126 44.4447L146.772 44.6136L146.411 44.7882L145.671 45.1525L144.913 45.5339L144.143 45.9283L143.366 46.3319L142.588 46.7417L141.817 47.1528L141.057 47.5615L140.316 47.9651L139.601 48.3569L138.914 48.7368L138.266 49.0979L137.661 49.4374L137.376 49.5975L137.104 49.7517L136.847 49.8972L136.603 50.0367L136.375 50.1667L136.165 50.2877L135.969 50.4007L135.792 50.5032L135.634 50.5948L135.495 50.6767L135.376 50.7467L135.282 50.8026L134.517 51.271L133.755 51.7372L132.996 52.2225L132.238 52.7085L131.483 53.212L130.729 53.7159L129.98 54.2363L129.231 54.7567L128.488 55.295L127.746 55.8328L127.012 56.3878L126.277 56.9435L125.549 57.5159L124.822 58.087L124.105 58.6738L123.388 59.2605L122.682 59.8641L121.976 60.4677L121.279 61.0857L120.584 61.7026L119.901 62.3356L119.218 62.9679L118.549 63.6147L117.881 64.2628L117.224 64.9234L116.569 65.5832L115.929 66.2582L115.29 66.9323L114.665 67.6197L114.042 68.3074L113.435 69.0075L112.829 69.7066L112.241 70.4183L111.653 71.1304L111.085 71.854L110.515 72.5804L109.962 73.311L109.419 74.0486L108.887 74.7927L108.365 75.541L107.855 76.2956L107.356 77.0548L106.867 77.8184L106.391 78.587L105.927 79.3606L105.474 80.1388L105.034 80.9212L104.606 81.7085L104.19 82.4994L103.788 83.294L103.398 84.0928L103.019 84.895L102.655 85.7015L102.303 86.511L101.965 87.3246L101.641 88.1426L101.329 88.9619L101.03 89.7851L100.746 90.612L100.477 91.4433L100.223 92.2775L99.9861 93.115L99.7652 93.9567L99.5604 94.8015L99.3721 95.65L99.2011 96.5016L99.0468 97.3568L98.9105 98.2154L98.7926 99.0769L98.6922 99.9409L98.6102 100.805L98.5473 101.674L98.502 102.547L98.476 103.421L98.4703 104.3L98.482 105.18L98.514 106.062L98.5673 106.946L98.6396 107.833L98.7323 108.721L98.847 109.613L98.981 110.506L99.1371 111.4L99.3146 112.298L99.5131 113.196L99.7342 114.096L99.978 114.997L100.243 115.901L100.532 116.805L100.844 117.711L101.179 118.62L101.358 119.072L101.537 119.526L101.728 119.981L101.92 120.436L102.123 120.891L102.325 121.346L102.541 121.802L102.756 122.257L102.984 122.713L103.212 123.17L103.422 123.573L103.645 123.982L103.88 124.398L104.125 124.821L104.381 125.249L104.649 125.682L104.93 126.125L105.212 126.566L105.513 127.015L105.813 127.464L106.131 127.92L106.45 128.376L106.782 128.837L107.114 129.298L107.46 129.762L107.806 130.227L108.165 130.692L108.523 131.159L108.891 131.627L109.259 132.093L109.637 132.559L110.014 133.024L110.398 133.487L110.782 133.949L111.173 134.408L111.563 134.867L111.956 135.319L112.35 135.772L112.745 136.217L113.14 136.662L113.535 137.099L113.931 137.536L114.325 137.962L114.72 138.389L115.112 138.803L115.502 139.217L115.889 139.618L116.276 140.02L116.657 140.406L117.038 140.792L117.411 141.162L117.784 141.531L118.149 141.883L118.513 142.236L119.219 142.9L119.9 143.524C119.953 143.571 119.984 143.637 119.988 143.708C119.992 143.778 119.967 143.847 119.92 143.899C119.872 143.952 119.806 143.983 119.736 143.987C119.665 143.991 119.596 143.966 119.544 143.919L118.851 143.303L118.131 142.643L117.759 142.292L117.388 141.942L117.007 141.576L116.625 141.208L116.237 140.825L115.848 140.442L115.453 140.043L115.058 139.645L114.658 139.234L114.259 138.823L113.856 138.4L113.453 137.976L113.049 137.542L112.646 137.108L112.242 136.666L111.838 136.224L111.437 135.773L111.035 135.323L110.636 134.867L110.238 134.411L109.845 133.951L109.451 133.49L109.065 133.027L108.678 132.563L108.301 132.098L107.925 131.633L107.556 131.168L107.188 130.703L106.831 130.239L106.475 129.775L106.132 129.314L105.789 128.853L105.461 128.396L105.132 127.938L104.82 127.487L104.508 127.035L104.214 126.591L103.922 126.147L103.642 125.708L103.373 125.273L103.115 124.845L102.868 124.42L102.633 124.002L102.41 123.588L102.171 123.128L101.932 122.666L101.706 122.205L101.48 121.743L101.266 121.281L101.052 120.821L100.85 120.359L100.648 119.898L100.458 119.436L100.267 118.973L99.9112 118.052L99.5786 117.13L99.269 116.207L98.9844 115.286L98.7203 114.366L98.4801 113.446L98.2624 112.528L98.0651 111.61L97.8908 110.693L97.7386 109.777L97.607 108.863L97.4972 107.95L97.4084 107.039L97.3398 106.13L97.2916 105.221L97.2656 104.315L97.2573 103.412L97.269 102.509L97.301 101.61L97.3512 100.712L97.4207 99.8168L97.5094 98.9244L97.6158 98.0351L97.7402 97.1476L97.883 96.263L98.043 95.382L98.2205 94.5036L98.4161 93.6289L98.6274 92.7578L98.8561 91.889L99.1015 91.0249L99.3617 90.164L99.6398 89.3054L99.9335 88.4525L100.243 87.604L100.574 86.761L100.919 85.9235L101.278 85.0893L101.654 84.2609L102.044 83.4377L102.448 82.6191L102.869 81.8068L103.303 81.0002L103.75 80.1991L104.211 79.4027L104.685 78.6133L105.171 77.8286L105.669 77.0496L106.18 76.2768L106.7 75.5093L107.234 74.748L107.778 73.9935L108.332 73.2444L108.898 72.501L109.475 71.7629L110.063 71.0375L110.653 70.309L111.262 69.5943L111.872 68.8803L112.499 68.1791L113.127 67.4795L113.77 66.7921L114.414 66.1036L115.073 65.4308L115.734 64.7577L116.41 64.0989L117.083 63.4411L117.772 62.7967L118.46 62.1522L119.163 61.5228L119.865 60.8942L120.579 60.2807L121.293 59.6682L122.017 59.0698L122.742 58.4713L123.476 57.8893L124.211 57.3078L124.955 56.7432L125.698 56.1786L126.45 55.6304L127.201 55.0822L127.96 54.5509L128.719 54.0203L129.483 53.5067L130.247 52.9944L131.017 52.4988L131.786 52.0026L132.559 51.5252L133.333 51.0483L134.109 50.5903L134.883 50.1347L134.987 50.0749L135.109 50.0049L135.252 49.9248L135.413 49.835L135.592 49.7346L135.791 49.6248L136.005 49.5069L136.237 49.3792L136.483 49.2439L136.743 49.1013L137.019 48.9525L137.307 48.7964L137.919 48.4664L138.575 48.1139L139.269 47.7449L139.994 47.3635L140.743 46.9732L141.512 46.5751L142.293 46.1755L143.08 45.7769L143.867 45.3843L144.647 45.0002L145.418 44.6274L146.167 44.2738L146.534 44.1037L146.893 43.9397L147.245 43.781L147.589 43.6293L147.923 43.4839L148.247 43.3465L148.561 43.2164L148.863 43.0947L149.153 42.9817L149.43 42.8777L149.695 42.784L149.942 42.7013M159.471 62.3171L159.346 62.3798L159.193 62.4579L159.018 62.551L158.821 62.6551L158.602 62.7743L158.363 62.9059L158.104 63.0488L157.826 63.2049L157.529 63.3714L157.217 63.5473L156.888 63.7336L156.544 63.9295L156.186 64.134L155.815 64.3468L155.431 64.5683L155.036 64.7957L154.631 65.0298L154.215 65.2708L153.788 65.5195L153.362 65.768L152.922 66.0261L152.482 66.2842L152.032 66.5493L151.583 66.8144L151.128 67.084L150.674 67.3535L150.216 67.6278L149.759 67.9002L149.305 68.1726L148.85 68.4453L148.402 68.7156L147.953 68.9867L147.513 69.2532L147.074 69.5204L146.649 69.7805L146.224 70.0407L145.406 70.546L144.631 71.0302L143.908 71.4874L143.565 71.7067L143.239 71.9172L142.928 72.1196L142.634 72.3132L142.358 72.4977L142.1 72.6725L141.586 73.0287L141.07 73.3859L140.56 73.7502L140.05 74.1144L139.546 74.485L139.042 74.856L138.543 75.233L138.045 75.6097L137.552 75.9938L137.059 76.377L136.573 76.7673L136.087 77.1576L135.607 77.5541L135.126 77.9506L134.653 78.3539L134.179 78.7572L133.713 79.1672L133.247 79.5773L132.788 79.9936L132.329 80.4099L131.877 80.8327L131.425 81.2565L130.981 81.6856L130.537 82.1151L130.1 82.5504L129.664 82.9865L129.235 83.4288L128.807 83.8711L128.387 84.32L127.967 84.7688L127.556 85.2236L127.144 85.6789L126.741 86.1405L126.338 86.6023L125.945 87.0706L125.551 87.539L125.167 88.0133L124.783 88.4884L124.408 88.9697L124.033 89.4516L123.669 89.94L123.305 90.4286L122.951 90.9229L122.597 91.4173L122.256 91.92L121.914 92.4239L121.585 92.9334L121.256 93.4428L120.938 93.9588L120.62 94.4755L120.313 94.9985L120.011 95.524L119.72 96.0553L119.43 96.5864L119.151 97.1229L118.872 97.6602L118.605 98.2029L118.338 98.7464L118.082 99.2954L117.828 99.8439L117.585 100.398L117.342 100.952L117.111 101.512L116.881 102.072L116.663 102.638L116.446 103.203L116.24 103.773L116.034 104.344L115.842 104.921L115.65 105.498L115.471 106.08L115.292 106.662L115.127 107.249L114.961 107.836L114.809 108.429L114.657 109.022L114.52 109.621L114.382 110.219L114.259 110.822L114.134 111.426L114.025 112.035L113.916 112.645L113.822 113.26L113.728 113.874L113.648 114.493L113.568 115.112L113.503 115.737L113.439 116.361L113.39 116.992L113.341 117.622L113.307 118.257L113.273 118.892L113.255 119.533L113.237 120.174V120.82V121.463L113.243 122.249L113.25 123.049L113.258 123.861L113.27 124.684L113.287 125.516L113.311 126.359L113.349 127.205L113.387 128.056L113.452 128.908L113.516 129.764L113.615 130.615L113.713 131.463L113.841 132.311L113.991 133.15L114.167 133.979L114.367 134.8L114.597 135.609L114.857 136.403L115.148 137.183L115.475 137.945L115.839 138.686L116.238 139.408L116.679 140.107L117.158 140.771C117.178 140.8 117.204 140.824 117.233 140.842C117.263 140.861 117.296 140.874 117.33 140.88C117.364 140.885 117.4 140.885 117.434 140.877C117.468 140.869 117.5 140.855 117.528 140.835C117.557 140.815 117.581 140.789 117.6 140.759C117.618 140.73 117.631 140.697 117.637 140.663C117.643 140.628 117.642 140.593 117.634 140.559C117.627 140.525 117.612 140.493 117.592 140.464L117.135 139.804L116.725 139.126L116.353 138.424L116.014 137.703L115.713 136.962L115.445 136.203L115.207 135.429L114.999 134.64L114.818 133.838L114.662 133.026L114.532 132.204L114.423 131.377L114.341 130.537L114.259 129.7L114.211 128.859L114.164 128.017L114.143 127.179L114.121 126.338L114.113 125.505V124.678L114.118 123.859L114.125 123.049L114.134 122.251L114.143 121.468L114.156 120.831L114.17 120.197L114.199 119.569L114.229 118.94L114.275 118.318L114.321 117.696L114.38 117.078L114.44 116.461L114.515 115.85L114.591 115.24L114.681 114.635L114.771 114.029L114.875 113.429L114.979 112.831L115.098 112.237L115.217 111.644L115.351 111.057L115.484 110.469L115.631 109.887L115.776 109.305L115.937 108.729L116.097 108.153L116.272 107.584L116.446 107.013L116.633 106.448L116.82 105.884L117.019 105.326L117.219 104.768L117.432 104.216L117.645 103.664L117.871 103.117L118.095 102.571L118.333 102.031L118.571 101.491L118.821 100.957L119.072 100.423L119.333 99.8933L119.594 99.3646L119.867 98.8443L120.14 98.3213L120.426 97.8056L120.712 97.2886L121.007 96.7771L121.302 96.2664L121.608 95.7616L121.91 95.2548L122.222 94.7531L122.534 94.251L122.856 93.7537L123.177 93.2568L123.508 92.7656L123.839 92.2738L124.177 91.787L124.517 91.2986L124.866 90.8162L125.213 90.3334L125.57 89.857L125.928 89.3795L126.295 88.9083L126.663 88.4363L127.039 87.9698L127.415 87.5033L127.799 87.043L128.184 86.5823L128.578 86.128L128.973 85.6727L129.376 85.2233L129.778 84.774L130.19 84.3317L130.601 83.8893L131.02 83.4528L131.441 83.0154L131.869 82.5832L132.296 82.1516L132.731 81.7264L133.167 81.3008L133.61 80.8813L134.053 80.4611L134.504 80.0477L134.954 79.6332L135.412 79.2258L135.87 78.8178L136.335 78.4163L136.8 78.0146L137.271 77.6186L137.742 77.2224L138.221 76.8321L138.699 76.4418L139.183 76.0591L139.669 75.6753L140.159 75.2978L140.649 74.9202L141.146 74.5492L141.642 74.1782L142.144 73.8139L142.648 73.4497L142.893 73.2748L143.16 73.0885L143.447 72.8908L143.749 72.6845L144.068 72.4685L144.402 72.245L145.111 71.7738L145.872 71.2753L146.675 70.7549L147.093 70.4859L147.511 70.2174L147.943 69.9421L148.375 69.6661L148.817 69.3864L149.26 69.1069L149.707 68.8241L150.154 68.5423L150.604 68.2608L151.054 67.9785L151.502 67.7001L151.95 67.4212L152.392 67.1464L152.835 66.8719L153.268 66.6045L153.702 66.3372L154.122 66.0797L154.542 65.8218L154.951 65.5726L155.35 65.3293L155.739 65.093L156.118 64.8641L156.484 64.6437L156.836 64.4319L157.174 64.2285L157.498 64.0357L157.805 63.8535L158.096 63.6815L158.37 63.5215L158.624 63.3732L158.859 63.2371L159.073 63.1143L159.265 63.0066L159.434 62.9119L159.579 62.8339L159.7 62.7704C159.73 62.7558 159.757 62.7353 159.779 62.7102C159.801 62.6851 159.818 62.6558 159.829 62.6241C159.839 62.5924 159.844 62.5589 159.841 62.5255C159.839 62.4922 159.829 62.4597 159.814 62.4299C159.799 62.4001 159.778 62.3737 159.752 62.3521C159.727 62.3305 159.697 62.3143 159.665 62.3043C159.633 62.2944 159.6 62.2909 159.567 62.2941C159.533 62.2972 159.501 62.307 159.471 62.3229M116.792 140.248L117.26 140.946L117.755 141.634L118.27 142.311L118.804 142.976L119.356 143.631L119.926 144.276L120.511 144.911L121.109 145.535L121.722 146.151L122.346 146.759L122.981 147.357L123.625 147.948L124.277 148.528L124.931 149.109L125.594 149.676L126.258 150.243L126.926 150.798L127.593 151.352L128.26 151.898L128.927 152.445L129.587 152.982L130.248 153.519L130.896 154.048L131.544 154.578L132.024 154.97L132.503 155.363L132.983 155.755L133.463 156.148L133.946 156.539L134.429 156.929L134.911 157.319L135.394 157.711L135.879 158.101L136.363 158.492L136.848 158.882L137.333 159.272L137.818 159.664L138.303 160.054L138.789 160.446L139.274 160.837L139.759 161.229L140.245 161.621L140.73 162.014L141.215 162.406L141.697 162.804L142.182 163.198L142.667 163.593L143.15 163.986L143.633 164.383L144.116 164.78L144.6 165.176L145.081 165.572L145.561 165.972L146.042 166.371L146.523 166.772L147.002 167.17L147.477 167.573L147.954 167.977L148.432 168.381L148.907 168.784L149.378 169.189L149.852 169.598L150.325 170.006L150.796 170.412L151.261 170.823L151.729 171.237L152.198 171.651L152.662 172.062L153.121 172.478L153.583 172.897L154.045 173.317L154.504 173.733L154.956 174.156L155.411 174.581L155.867 175.008L156.318 175.429L156.762 175.859L157.209 176.292L157.657 176.725L158.099 177.153L158.533 177.59L158.973 178.032L159.412 178.474L159.847 178.912L160.274 179.355L160.703 179.799L161.128 180.248L161.552 180.697L161.97 181.151L162.389 181.604L162.803 182.063L163.216 182.52L163.624 182.983L164.031 183.446L164.433 183.914L164.835 184.382L165.231 184.855L165.627 185.327L166.017 185.805L166.407 186.282L166.79 186.766L167.173 187.249L167.55 187.739L167.927 188.226L168.297 188.72L168.667 189.214L169.029 189.714L169.394 190.214L169.751 190.719L170.109 191.223L170.458 191.734L170.808 192.245L171.15 192.762L171.493 193.279L171.828 193.803L172.163 194.326L172.489 194.857L172.818 195.385L173.139 195.921L173.461 196.457L173.899 197.217L174.318 197.971L174.718 198.721L175.097 199.468L175.456 200.211L175.795 200.954L176.114 201.695L176.412 202.436L176.688 203.179L176.945 203.923L177.179 204.669L177.392 205.42L177.584 206.174L177.754 206.934L177.901 207.701L178.028 208.475L178.132 209.255L178.212 210.048L178.272 210.849L178.307 211.661L178.319 212.486L178.309 213.322L178.274 214.173L178.214 215.041L178.178 215.435L178.128 215.864L178.065 216.321L177.991 216.803L177.904 217.305L177.807 217.827L177.699 218.364L177.581 218.913L177.453 219.473L177.315 220.038L177.169 220.607L177.013 221.174L176.845 221.741L176.679 222.306L176.497 222.854L176.315 223.4L176.12 223.921L175.925 224.441L175.724 224.929L175.517 225.395L175.307 225.835L175.094 226.247L174.879 226.623L174.662 226.965L174.26 227.558L173.862 228.136L173.468 228.696L173.077 229.24L172.687 229.769L172.297 230.283L171.906 230.784L171.516 231.273L171.122 231.75L170.725 232.217L170.322 232.674L169.914 233.122L169.492 233.562L169.072 234L168.631 234.427L168.191 234.855L167.725 235.275L167.257 235.697L166.771 236.113L166.269 236.529L165.749 236.947L165.212 237.366L164.655 237.787L164.076 238.211L163.796 238.41L163.5 238.613L163.187 238.82L162.86 239.03L162.519 239.242L162.164 239.456L161.796 239.674L161.417 239.892L161.025 240.112L160.623 240.335L160.211 240.556L159.79 240.778L158.919 241.226L158.469 241.449L158.02 241.671L157.556 241.893L157.093 242.114L156.621 242.333L156.148 242.551L155.668 242.766L155.189 242.98L154.703 243.19L154.218 243.4L153.73 243.603L153.243 243.807L152.756 244.004L152.268 244.2L151.784 244.388L151.3 244.576L150.82 244.755L150.341 244.934L149.869 245.102L149.399 245.27L148.477 245.582L147.58 245.871L146.715 246.131L145.887 246.361L145.489 246.465L145.101 246.56L144.726 246.646L144.362 246.724L144.012 246.792L143.674 246.852C143.638 246.857 143.604 246.869 143.574 246.887C143.544 246.905 143.517 246.929 143.496 246.958C143.475 246.987 143.46 247.019 143.452 247.054C143.444 247.088 143.442 247.124 143.448 247.159C143.454 247.194 143.467 247.228 143.486 247.258C143.505 247.288 143.53 247.314 143.559 247.334C143.588 247.354 143.621 247.368 143.656 247.376C143.691 247.383 143.727 247.383 143.762 247.376L144.106 247.32L144.467 247.255L144.841 247.179L145.225 247.096L145.622 247.004L146.03 246.904L146.87 246.681L147.749 246.429L148.66 246.148L149.593 245.843L150.071 245.68L150.549 245.515L151.034 245.341L151.52 245.166L152.01 244.982L152.501 244.799L152.996 244.607L153.49 244.415L153.984 244.215L154.479 244.015L154.97 243.811L155.462 243.605L155.949 243.395L156.435 243.184L156.914 242.969L157.393 242.755L157.863 242.537L158.333 242.319L158.791 242.1L159.249 241.88L160.131 241.44L160.562 241.218L160.983 240.997L161.394 240.778L161.794 240.56L162.184 240.341L162.562 240.125L162.927 239.91L163.28 239.697L163.618 239.485L163.943 239.277L164.254 239.07L164.549 238.866L165.141 238.443L165.713 238.022L166.265 237.603L166.801 237.184L167.319 236.765L167.819 236.341L168.301 235.918L168.783 235.494L169.241 235.061L169.698 234.629L170.135 234.184L170.57 233.741L170.998 233.285L171.416 232.822L171.83 232.348L172.239 231.866L172.644 231.371L173.048 230.865L173.451 230.347L173.854 229.813L174.259 229.266L174.665 228.703L175.076 228.124L175.494 227.523L175.74 227.147L175.982 226.735L176.217 226.294L176.448 225.829L176.672 225.34L176.891 224.826L177.099 224.294L177.307 223.758L177.502 223.194L177.697 222.632L177.876 222.053L178.054 221.477L178.222 220.894L178.38 220.312L178.529 219.734L178.668 219.162L178.798 218.599L178.916 218.049L179.024 217.512L179.12 216.992L179.204 216.494L179.276 216.016L179.336 215.563L179.381 215.136L179.455 214.243L179.503 213.36L179.527 212.491V211.632L179.501 210.783L179.451 209.946L179.378 209.117L179.281 208.296L179.16 207.483L179.018 206.677L178.852 205.877L178.662 205.083L178.452 204.294L178.218 203.508L177.963 202.728L177.687 201.949L177.389 201.172L177.07 200.396L176.732 199.62L176.372 198.843L175.992 198.065L175.593 197.285L175.174 196.502L174.735 195.716L174.415 195.164L174.095 194.613L173.766 194.066L173.434 193.524L173.093 192.989L172.753 192.454L172.406 191.926L172.058 191.397L171.7 190.877L171.343 190.357L170.979 189.842L170.615 189.329L170.242 188.823L169.869 188.316L169.488 187.816L169.107 187.316L168.719 186.822L168.331 186.33L167.936 185.843L167.541 185.356L167.14 184.875L166.738 184.394L166.33 183.919L165.922 183.445L165.509 182.976L165.095 182.508L164.675 182.044L164.256 181.581L163.83 181.123L163.405 180.664L162.975 180.211L162.544 179.757L162.108 179.309L161.673 178.861L161.232 178.417L160.79 177.972L160.342 177.534L159.897 177.099L159.453 176.664L159.004 176.224L158.546 175.793L158.092 175.366L157.639 174.94L157.182 174.509L156.716 174.086L156.255 173.666L155.794 173.247L155.329 172.825L154.858 172.409L154.39 171.996L153.922 171.583L153.451 171.166L152.974 170.758L152.5 170.35L152.026 169.943L151.549 169.534L151.067 169.131L150.588 168.729L150.109 168.328L149.628 167.924L149.143 167.526L148.66 167.128L148.177 166.732L147.692 166.332L147.205 165.938L146.718 165.545L146.231 165.152L145.744 164.758L145.253 164.367L144.764 163.977L144.275 163.587L143.785 163.197L143.294 162.808L142.803 162.421L142.313 162.033L141.822 161.645L141.33 161.259L140.84 160.873L140.348 160.488L139.857 160.102L139.365 159.717L138.875 159.332L138.384 158.948L137.892 158.563L137.403 158.18L136.913 157.795L136.423 157.411L135.934 157.027L135.446 156.643L134.957 156.259L134.47 155.874L133.982 155.49L133.497 155.105L133.013 154.72L132.527 154.334L132.042 153.949L131.386 153.429L130.729 152.908L130.061 152.381L129.394 151.854L128.72 151.319L128.048 150.785L127.374 150.242L126.702 149.699L126.035 149.145L125.368 148.592L124.711 148.025L124.055 147.458L123.41 146.882L122.774 146.298L122.149 145.707L121.535 145.108L120.935 144.5L120.349 143.882L119.778 143.255L119.225 142.618L118.69 141.97L118.174 141.312L117.679 140.643L117.206 139.959C117.187 139.932 117.164 139.909 117.136 139.89C117.108 139.872 117.077 139.86 117.045 139.853C117.013 139.847 116.979 139.848 116.947 139.854C116.914 139.861 116.884 139.874 116.856 139.893C116.829 139.911 116.806 139.935 116.787 139.962C116.769 139.99 116.757 140.021 116.751 140.053C116.744 140.086 116.745 140.119 116.751 140.152C116.758 140.184 116.771 140.215 116.79 140.242M101.947 122.345L102.091 122.852L102.236 123.364L102.4 123.876L102.563 124.387L102.744 124.897L102.925 125.407L103.12 125.917L103.315 126.426L103.525 126.934L103.736 127.443L103.959 127.949L104.184 128.455L104.419 128.96L104.653 129.465L104.9 129.968L105.147 130.471L105.405 130.972L105.662 131.472L105.928 131.971L106.194 132.47L106.469 132.966L106.742 133.46L107.024 133.954L107.305 134.447L107.591 134.938L107.878 135.428L108.169 135.915L108.461 136.402L108.757 136.886L109.053 137.369L109.35 137.849L109.648 138.329L109.947 138.805L110.246 139.281L110.546 139.753L110.846 140.225L111.144 140.691L111.442 141.157L111.74 141.622L112.038 142.088L112.331 142.544L112.623 143.001L112.916 143.457L113.208 143.912L113.489 144.357L113.772 144.803L114.054 145.249L114.337 145.696L114.764 146.368L115.193 147.042L115.626 147.705L116.058 148.367L116.494 149.019L116.93 149.67L117.37 150.315L117.809 150.959L118.251 151.597L118.693 152.235L119.135 152.869L119.579 153.503L120.026 154.136L120.471 154.768L120.917 155.4L121.363 156.031L121.811 156.668L122.26 157.304L122.708 157.941L123.155 158.576L123.603 159.225L124.053 159.875L124.503 160.526L124.952 161.176L125.335 161.728L125.735 162.285L126.147 162.844L126.571 163.404L127.006 163.965L127.451 164.528L127.908 165.089L128.364 165.65L128.835 166.211L129.306 166.772L129.786 167.33L130.265 167.888L130.75 168.442L131.234 168.996L131.719 169.544L132.203 170.091L132.684 170.632L133.165 171.172L133.638 171.704L134.111 172.235L134.572 172.756L135.032 173.276L135.474 173.784L135.918 174.294L136.223 174.645L136.523 174.989L136.815 175.323L137.102 175.65L137.383 175.97L137.658 176.283L138.194 176.887L138.711 177.466L139.21 178.023L139.695 178.563L140.166 179.088L140.626 179.601L141.079 180.105L141.525 180.604L141.964 181.101L142.403 181.602L142.841 182.102L143.284 182.617L143.726 183.132L144.181 183.678L144.638 184.225L145.106 184.797L145.588 185.396L146.087 186.024L146.602 186.68L147.139 187.37L147.7 188.101L147.848 188.294L148.004 188.497L148.168 188.707L148.339 188.924L148.516 189.147L148.698 189.378L149.079 189.853L149.481 190.352L149.901 190.87L150.333 191.404L150.779 191.953L151.233 192.514L151.692 193.083L152.155 193.659L152.616 194.237L153.067 194.815L153.52 195.395L153.973 195.975L154.419 196.547L154.812 197.084L155.211 197.631L155.61 198.177L155.998 198.708L156.279 199.154L156.574 199.62L156.868 200.086L157.151 200.533L157.541 201.244L157.919 201.956L158.278 202.661L158.62 203.361L158.943 204.057L159.248 204.751L159.536 205.442L159.806 206.132L160.057 206.823L160.291 207.516L160.508 208.212L160.706 208.913L160.888 209.619L161.052 210.332L161.197 211.053L161.327 211.784L161.438 212.524L161.531 213.279L161.607 214.045L161.665 214.825L161.705 215.622L161.728 216.435L161.734 217.266L161.72 218.116L161.691 218.905L161.641 219.684L161.569 220.453L161.478 221.213L161.366 221.962L161.234 222.703L161.084 223.436L160.913 224.158L160.723 224.873L160.515 225.579L160.287 226.277L160.039 226.967L159.775 227.65L159.491 228.324L159.189 228.991L158.87 229.651L158.532 230.304L158.176 230.95L157.804 231.589L157.413 232.221L157.005 232.845L156.587 233.47L156.147 234.083L155.687 234.693L155.238 235.279L154.788 235.867L154.344 236.453L153.902 237.037L153.458 237.616L153.015 238.193L152.568 238.762L152.122 239.331L151.665 239.887L151.211 240.441L150.741 240.979L150.27 241.518L149.789 242.043L149.297 242.556L148.793 243.057L148.277 243.547L147.747 244.024L147.201 244.486L146.641 244.935L146.063 245.367L145.464 245.784L144.848 246.184L144.211 246.566L143.546 246.93C143.515 246.947 143.488 246.969 143.466 246.996C143.444 247.023 143.428 247.055 143.418 247.088C143.408 247.122 143.404 247.157 143.408 247.191C143.411 247.226 143.422 247.26 143.438 247.291C143.455 247.321 143.478 247.349 143.505 247.371C143.532 247.393 143.563 247.409 143.597 247.419C143.63 247.429 143.665 247.432 143.7 247.429C143.735 247.425 143.768 247.415 143.799 247.398L144.477 247.036L145.137 246.652L145.774 246.25L146.391 245.83L146.99 245.394L147.57 244.94L148.134 244.475L148.682 243.994L149.214 243.499L149.735 242.993L150.243 242.476L150.74 241.948L151.222 241.409L151.705 240.868L152.174 240.312L152.642 239.756L153.1 239.188L153.556 238.621L154.009 238.045L154.461 237.471L154.912 236.89L155.363 236.311L155.819 235.73L156.276 235.146L156.75 234.534L157.209 233.913L157.651 233.284L158.077 232.648L158.485 232.004L158.875 231.353L159.25 230.694L159.605 230.027L159.943 229.351L160.263 228.668L160.564 227.976L160.846 227.276L161.11 226.567L161.355 225.848L161.579 225.121L161.785 224.386L161.972 223.64L162.137 222.885L162.283 222.121L162.408 221.347L162.512 220.563L162.597 219.769L162.659 218.966L162.7 218.152L162.724 217.281L162.729 216.428L162.716 215.593L162.686 214.773L162.636 213.966L162.564 213.175L162.478 212.395L162.374 211.625L162.25 210.867L162.109 210.117L161.949 209.374L161.771 208.639L161.575 207.91L161.36 207.184L161.126 206.463L160.876 205.744L160.606 205.026L160.318 204.308L160.014 203.589L159.691 202.868L159.35 202.144L158.992 201.415L158.616 200.68L158.217 199.93L157.918 199.441L157.632 198.971L157.345 198.5L157.045 198.011L156.644 197.443L156.253 196.891L155.863 196.339L155.466 195.778L155.016 195.183L154.573 194.596L154.129 194.009L153.683 193.419L153.225 192.826L152.77 192.24L152.318 191.661L151.872 191.092L151.436 190.535L151.012 189.995L150.598 189.472L150.208 188.971L149.837 188.491L149.66 188.262L149.489 188.039L149.324 187.824L149.168 187.616L149.018 187.415L148.875 187.223L148.322 186.48L147.785 185.772L147.268 185.103L146.765 184.464L146.277 183.855L145.801 183.269L145.339 182.715L144.877 182.161L144.429 181.638L143.98 181.116L143.534 180.611L143.088 180.109L142.639 179.611L142.186 179.112L141.727 178.608L141.259 178.1L140.781 177.579L140.291 177.046L139.786 176.496L139.266 175.926L138.724 175.33L138.446 175.024L138.163 174.711L137.873 174.389L137.578 174.06L137.276 173.721L136.965 173.373L136.512 172.869L136.059 172.364L135.589 171.847L135.119 171.33L134.638 170.803L134.157 170.278L133.669 169.745L133.182 169.212L132.691 168.673L132.201 168.134L131.712 167.589L131.224 167.046L130.74 166.5L130.257 165.953L129.784 165.405L129.311 164.858L128.853 164.31L128.393 163.762L127.949 163.215L127.514 162.671L127.091 162.128L126.68 161.587L126.283 161.049L125.896 160.514L125.438 159.87L124.979 159.226L124.52 158.582L124.059 157.935L123.6 157.303L123.143 156.674L122.685 156.044L122.228 155.413L121.772 154.789L121.317 154.164L120.863 153.54L120.408 152.915L119.957 152.291L119.506 151.665L119.057 151.036L118.608 150.406L118.162 149.772L117.716 149.137L117.274 148.495L116.832 147.854L116.393 147.203L115.953 146.553L115.518 145.889L115.081 145.224L114.793 144.782L114.504 144.339L114.215 143.897L113.926 143.455L113.626 143.001L113.327 142.55L113.028 142.098L112.729 141.646L112.424 141.185L112.12 140.723L111.815 140.263L111.511 139.802L111.205 139.336L110.9 138.869L110.595 138.399L110.29 137.929L109.986 137.455L109.683 136.982L109.382 136.499L109.082 136.022L108.785 135.542L108.488 135.062L108.196 134.579L107.904 134.096L107.618 133.61L107.332 133.126L107.053 132.637L106.774 132.149L106.503 131.659L106.232 131.169L105.97 130.676L105.708 130.184L105.456 129.69L105.205 129.195L104.965 128.699L104.725 128.205L104.496 127.707L104.267 127.21L104.053 126.711L103.838 126.213L103.639 125.714L103.438 125.214L103.253 124.713L103.068 124.213L102.9 123.712L102.732 123.211L102.582 122.709L102.43 122.204C102.41 122.142 102.366 122.09 102.308 122.06C102.251 122.029 102.183 122.022 102.121 122.041C102.058 122.059 102.005 122.101 101.973 122.157C101.94 122.214 101.931 122.281 101.947 122.345ZM75.8646 205.266L75.7967 205.552L75.7532 205.853L75.7345 206.158L75.7376 206.464L75.7621 206.773L75.8055 207.082L75.8651 207.391L75.9411 207.7L76.0308 208.007L76.1318 208.313L76.2439 208.617L76.3667 208.92L76.6269 209.508L76.9072 210.08L77.1921 210.626L77.4699 211.143L77.7275 211.622L77.9544 212.06L78.3293 212.78L78.7383 213.496L79.1744 214.203L79.6344 214.899L80.1199 215.587L80.6278 216.263L81.1544 216.931L81.7008 217.589L82.2651 218.236L82.8435 218.873L83.4368 219.501L84.0422 220.118L84.6573 220.724L85.2817 221.319L85.9135 221.904L86.5496 222.478L87.1905 223.042L87.8342 223.593L88.476 224.128L89.1187 224.664L89.7561 225.176L90.3928 225.687L91.0172 226.175L91.6417 226.663L92.3741 227.221L93.1125 227.765L93.8556 228.294L94.6031 228.81L95.3558 229.311L96.1127 229.799L96.874 230.274L97.6408 230.735L98.4107 231.182L99.1858 231.617L99.9663 232.039L100.75 232.448L101.537 232.845L102.33 233.228L103.126 233.599L103.926 233.959L104.731 234.304L105.539 234.638L106.352 234.959L107.169 235.268L107.99 235.562L108.816 235.844L109.645 236.113L110.481 236.37L111.317 236.608L112.157 236.842L113.004 237.054L113.85 237.265L114.703 237.454L115.555 237.643L116.413 237.815L117.272 237.985L118.135 238.137L118.998 238.288L119.867 238.422L120.735 238.556L121.607 238.672L122.48 238.789L123.359 238.888L124.236 238.988L125.121 239.071L126.003 239.154L126.891 239.221L127.778 239.29L128.67 239.342L129.562 239.394L130.458 239.432L131.353 239.469L131.881 239.486L132.405 239.502L132.93 239.518L133.457 239.534L133.981 239.543L134.501 239.553L135.022 239.562L135.547 239.571H136.067H136.584H137.1H137.621L138.138 239.562L138.655 239.553L139.17 239.537L139.685 239.52L140.198 239.496L140.712 239.472L141.224 239.441L141.736 239.409L142.246 239.369L142.756 239.328L143.265 239.278L143.774 239.228L144.281 239.168L144.788 239.109L145.294 239.038L145.8 238.968L146.304 238.885L146.808 238.803L147.311 238.709L147.814 238.615L148.314 238.509L148.816 238.401L149.316 238.281L149.815 238.16L150.313 238.026L150.811 237.892L151.308 237.743L151.805 237.594L152.299 237.43L152.794 237.265L153.288 237.084L153.783 236.904L154.275 236.707L154.767 236.51L155.258 236.295L155.744 236.082C155.776 236.068 155.805 236.048 155.83 236.023C155.854 235.998 155.874 235.969 155.887 235.936C155.9 235.904 155.906 235.869 155.906 235.834C155.906 235.799 155.898 235.765 155.885 235.733C155.871 235.701 155.851 235.671 155.826 235.647C155.801 235.623 155.772 235.603 155.739 235.59C155.707 235.577 155.672 235.571 155.637 235.571C155.603 235.571 155.568 235.578 155.536 235.592L155.045 235.796L154.559 235.998L154.071 236.182L153.583 236.367L153.095 236.535L152.606 236.702L152.117 236.855L151.627 237.008L151.136 237.144L150.646 237.282L150.154 237.404L149.661 237.526L149.167 237.636L148.673 237.744L148.178 237.84L147.684 237.935L147.19 238.018L146.694 238.1L146.196 238.172L145.698 238.243L145.2 238.303L144.701 238.363L144.2 238.412L143.7 238.46L143.197 238.5L142.695 238.54L142.192 238.569L141.688 238.599L141.183 238.619L140.676 238.641L140.169 238.653L139.661 238.667L139.153 238.672L138.643 238.678L138.133 238.677H137.622L137.11 238.667L136.593 238.657L136.076 238.647L135.565 238.638L135.049 238.619L134.529 238.599L134.008 238.579L133.492 238.56L132.971 238.534L132.447 238.508L131.923 238.481L131.403 238.455L130.514 238.399L129.624 238.335L128.743 238.264L127.862 238.192L126.986 238.106L126.11 238.02L125.24 237.919L124.369 237.817L123.505 237.699L122.641 237.582L121.783 237.447L120.924 237.311L120.072 237.16L119.222 237.008L118.377 236.838L117.533 236.667L116.695 236.478L115.857 236.288L115.026 236.08L114.195 235.872L113.372 235.644L112.549 235.418L111.733 235.17L110.912 234.928L110.101 234.674L109.291 234.41L108.485 234.137L107.681 233.854L106.879 233.563L106.081 233.261L105.286 232.95L104.494 232.627L103.706 232.292L102.921 231.946L102.14 231.589L101.362 231.218L100.588 230.836L99.8178 230.441L99.051 230.033L98.2879 229.613L97.5284 229.178L96.7738 228.731L96.0224 228.27L95.2749 227.796L94.5316 227.307L93.7913 226.805L93.0558 226.289L92.3231 225.758L91.694 225.29L91.0643 224.82L90.4217 224.328L89.7803 223.836L89.1327 223.322L88.4844 222.807L87.8383 222.278L87.1938 221.738L86.5533 221.186L85.9187 220.626L85.2911 220.054L84.6732 219.471L84.0646 218.88L83.4695 218.279L82.888 217.667L82.3208 217.047L81.7721 216.416L81.2424 215.776L80.7319 215.127L80.244 214.469L79.7809 213.801L79.3409 213.125L78.929 212.44L78.5422 211.744L78.303 211.307L78.0317 210.83L77.7455 210.324L77.4538 209.796L77.1689 209.248L76.903 208.684L76.7823 208.403L76.6699 208.119L76.5679 207.834L76.4781 207.55L76.4 207.267L76.3394 206.987L76.2936 206.709L76.2655 206.436L76.2567 206.166L76.2666 205.901L76.2975 205.642L76.3548 205.378C76.3621 205.346 76.363 205.313 76.3574 205.28C76.3518 205.248 76.3399 205.217 76.3223 205.189C76.3047 205.161 76.2818 205.137 76.2548 205.117C76.2279 205.098 76.1974 205.085 76.1652 205.077C76.133 205.07 76.0997 205.069 76.0672 205.075C76.0346 205.08 76.0035 205.092 75.9755 205.11C75.9476 205.128 75.9234 205.15 75.9043 205.177C75.8852 205.204 75.8716 205.235 75.8643 205.267M76.3465 204.924L75.8232 205.124L75.3265 205.347L74.8582 205.588L74.4128 205.844L73.9861 206.116L73.5752 206.402L73.174 206.697L72.7775 207.001L72.3817 207.314L71.9818 207.632L71.5723 207.956L71.1456 208.286L70.8037 208.552L70.4548 208.837L70.1043 209.137L69.7547 209.449L69.4078 209.774L69.0696 210.11L68.7389 210.456L68.4202 210.811L68.1176 211.173L67.8314 211.541L67.5657 211.915L67.3274 212.288L67.1692 212.555L67.0131 212.831L66.857 213.117L66.7027 213.413L66.5505 213.718L66.3996 214.033L66.1134 214.678L65.8441 215.35L65.6 216.038L65.3843 216.737L65.2053 217.439L65.0713 218.133L65.0193 218.487L64.9816 218.832L64.9579 219.174L64.948 219.512L64.954 219.846L64.9771 220.174L65.0318 220.631L65.1098 221.091L65.2097 221.55L65.3297 222.01L65.4699 222.469L65.6307 222.928L65.8079 223.386L66.0041 223.844L66.2169 224.3L66.4456 224.755L66.6899 225.209L66.9501 225.662L67.2231 226.112L67.5093 226.561L67.8087 227.007L68.1197 227.452L68.4423 227.894L68.7764 228.335L69.1219 228.768L69.4692 229.203L69.8335 229.631L70.1978 230.059L70.5776 230.48L70.9565 230.899L71.3467 231.312L71.737 231.724L72.1364 232.127L72.536 232.531L72.9422 232.924L73.3463 233.314L73.7553 233.696L74.1643 234.078L74.5743 234.448L74.9841 234.818L75.3921 235.175L75.7995 235.532L76.2026 235.875L76.6061 236.219L77.0024 236.549L77.3984 236.878L78.168 237.502L78.9142 238.096L79.6284 238.655L80.3049 239.177L81.0464 239.734L81.801 240.281L82.5677 240.814L83.3447 241.334L84.1328 241.844L84.9305 242.339L85.7371 242.824L86.5556 243.294L87.3827 243.751L88.2195 244.193L89.0653 244.623L89.9198 245.039L90.782 245.441L91.6524 245.831L92.5313 246.202L93.4159 246.561L94.3083 246.906L95.206 247.238L96.1086 247.558L97.0171 247.866L97.9301 248.16L98.8467 248.443L99.7681 248.714L100.692 248.971L101.62 249.218L102.552 249.452L103.485 249.673L104.422 249.882L105.36 250.078L106.3 250.263L107.241 250.436L108.185 250.596L109.128 250.744L110.072 250.88L111.017 251.003L111.961 251.114L112.904 251.213L113.847 251.3L114.789 251.373L115.729 251.436L116.668 251.486L117.605 251.523L118.54 251.549L119.471 251.561H120.4L121.325 251.549L122.247 251.525L123.165 251.488L123.909 251.443L124.65 251.381L125.387 251.303L126.12 251.213L126.85 251.112L127.579 251.004L128.304 250.891L129.027 250.777L129.75 250.663L130.47 250.549L131.19 250.445L131.913 250.341L132.4 250.273L132.892 250.205L133.393 250.129L133.895 250.053L134.404 249.969L134.913 249.883L135.427 249.791L135.941 249.697L136.458 249.593L136.975 249.489L137.491 249.374L138.007 249.259L138.52 249.134L139.034 249.008L139.542 248.869L140.05 248.731L140.55 248.578L141.049 248.427L141.538 248.261L142.028 248.096L142.503 247.915L142.979 247.733L143.439 247.536L143.892 247.341C143.956 247.313 144.006 247.261 144.032 247.196C144.057 247.131 144.057 247.059 144.03 246.995C144.003 246.931 143.952 246.88 143.887 246.853C143.823 246.826 143.751 246.825 143.686 246.851L143.23 247.037L142.778 247.223L142.31 247.392L141.842 247.561L141.359 247.715L140.876 247.871L140.381 248.013L139.887 248.154L139.385 248.282L138.883 248.41L138.375 248.526L137.866 248.641L137.355 248.746L136.844 248.85L136.332 248.944L135.819 249.038L135.31 249.122L134.8 249.205L134.294 249.281L133.789 249.356L133.291 249.423L132.792 249.49L132.305 249.55L131.814 249.609L131.088 249.702L130.36 249.795L129.633 249.897L128.909 250L128.184 250.101L127.461 250.201L126.739 250.296L126.017 250.382L125.295 250.458L124.574 250.522L123.851 250.57L123.127 250.601L122.222 250.622L121.311 250.63L120.398 250.626L119.482 250.61L118.564 250.582L117.643 250.541L116.72 250.489L115.796 250.425L114.869 250.346L113.942 250.258L113.015 250.156L112.087 250.04L111.159 249.914L110.231 249.776L109.304 249.625L108.377 249.462L107.453 249.287L106.529 249.099L105.608 248.9L104.69 248.689L103.773 248.464L102.86 248.23L101.95 247.981L101.043 247.721L100.141 247.449L99.2433 247.163L98.3503 246.866L97.462 246.557L96.579 246.237L95.7092 245.907L94.8376 245.563L93.9724 245.206L93.1138 244.839L92.2617 244.46L91.4143 244.076L90.5736 243.679L89.7379 243.274L88.9126 242.857L88.0943 242.43L87.2823 241.992L86.4801 241.544L85.6858 241.084L84.8998 240.613L84.126 240.131L83.3603 239.636L82.6039 239.131L81.8593 238.613L81.1237 238.082L80.4472 237.581L79.7317 237.043L78.9839 236.471L78.2117 235.866L77.8162 235.55L77.4205 235.234L77.0169 234.903L76.6139 234.572L76.2059 234.228L75.798 233.886L75.3884 233.53L74.9789 233.175L74.5704 232.807L74.1622 232.441L73.7571 232.063L73.352 231.687L72.9539 231.3L72.5558 230.914L72.1671 230.519L71.7784 230.124L71.4003 229.721L71.0231 229.32L70.6609 228.911L70.2992 228.503L69.9547 228.088L69.609 227.672L69.2801 227.256L68.9608 226.836L68.6536 226.414L68.3577 225.992L68.0754 225.568L67.8064 225.144L67.5506 224.718L67.3113 224.293L67.0867 223.867L66.8773 223.441L66.6855 223.017L66.5117 222.592L66.3543 222.169L66.2159 221.748L66.0978 221.327L65.9976 220.908L65.9195 220.492L65.8615 220.076L65.8355 219.796L65.8248 219.507L65.8277 219.207L65.843 218.9L65.8711 218.587L65.9109 218.274L66.0249 217.614L66.1795 216.951L66.3712 216.285L66.5913 215.623L66.8367 214.974L67.1034 214.345L67.2394 214.044L67.3797 213.748L67.5223 213.461L67.6656 213.184L67.81 212.917L67.9513 212.666L68.168 212.312L68.4077 211.961L68.6697 211.609L68.9491 211.26L69.2457 210.917L69.5561 210.578L69.8764 210.249L70.204 209.928L70.536 209.619L70.8701 209.323L71.2028 209.04L71.5322 208.773L71.9543 208.433L72.3607 208.098L72.7538 207.772L73.1402 207.455L73.5224 207.149L73.9067 206.855L74.297 206.573L74.6992 206.306L75.1184 206.054L75.5578 205.816L76.0241 205.596L76.5301 205.391C76.5609 205.379 76.589 205.361 76.6127 205.338C76.6365 205.315 76.6556 205.288 76.6688 205.257C76.682 205.227 76.6891 205.194 76.6897 205.161C76.6903 205.128 76.6844 205.095 76.6723 205.065C76.6603 205.034 76.6422 205.006 76.6193 204.982C76.5964 204.958 76.569 204.939 76.5387 204.926C76.5084 204.913 76.4758 204.906 76.4428 204.905C76.4098 204.905 76.3769 204.91 76.3462 204.923M144.239 30.7918L144.398 31.2471L144.557 31.7173L144.717 32.2025L144.878 32.7003L145.039 33.2097L145.201 33.7301L145.366 34.2616L145.53 34.7942L145.7 35.3377L145.871 35.8823L146.05 36.4287L146.251 36.9712L146.505 37.4895L146.778 37.9929L147.048 38.4995L147.319 39.0155L147.599 39.5051L147.872 39.9847L148.145 40.4644L148.423 40.9567L148.711 41.3949L148.992 41.819L149.272 42.2436L149.553 42.6685C149.569 42.7008 149.591 42.7295 149.619 42.7529C149.646 42.7762 149.678 42.7938 149.713 42.8044C149.747 42.815 149.783 42.8185 149.819 42.8147C149.855 42.8109 149.89 42.7998 149.921 42.7822C149.953 42.7645 149.98 42.7406 150.002 42.712C150.024 42.6834 150.04 42.6506 150.049 42.6156C150.058 42.5806 150.06 42.5442 150.054 42.5086C150.048 42.4729 150.036 42.4388 150.016 42.4083L149.798 41.9496L149.579 41.4888L149.36 41.0293L149.15 40.5823L148.957 40.0801L148.757 39.5658L148.559 39.0509L148.367 38.5453L148.19 38.0122L148.012 37.4684L147.837 36.922L147.643 36.391L147.411 35.8737L147.156 35.3601L146.902 34.8533L146.648 34.3441L146.397 33.8461L146.146 33.3479L145.898 32.8587L145.653 32.3797L145.41 31.9114L145.169 31.4553L144.932 31.013L144.698 30.5878C144.67 30.5285 144.619 30.4826 144.558 30.4599C144.496 30.4371 144.428 30.4394 144.368 30.4663C144.308 30.4931 144.261 30.5423 144.237 30.6034C144.213 30.6645 144.214 30.7326 144.239 30.7931M159.31 62.4056L159.541 62.8479L159.774 63.2902L160.014 63.7276L160.253 64.166L160.496 64.6031L160.739 65.0397L160.985 65.4737L161.23 65.9082L161.478 66.3409L161.725 66.7725L161.975 67.2011L162.244 67.6145L162.545 68.0048L162.866 68.3862L163.184 68.7684L163.496 69.1475L163.796 69.5336L164.099 69.9278L164.4 70.3215L164.698 70.7084L164.977 71.1075L165.26 71.5149L165.543 71.9224L165.826 72.3304C165.843 72.3613 165.867 72.3884 165.895 72.4102C165.923 72.432 165.955 72.4481 165.989 72.4574C166.023 72.4667 166.059 72.469 166.094 72.4644C166.129 72.4597 166.163 72.4481 166.193 72.4302C166.224 72.4123 166.25 72.3885 166.272 72.3601C166.293 72.3318 166.308 72.2995 166.317 72.2652C166.325 72.2308 166.327 72.1951 166.322 72.1601C166.316 72.1251 166.304 72.0915 166.285 72.0613L166.067 71.6148L165.849 71.1694L165.632 70.7237L165.41 70.2694L165.171 69.8248L164.937 69.3869L164.703 68.9487L164.467 68.5038L164.221 68.0633L163.979 67.6278L163.742 67.1899L163.486 66.7611L163.189 66.3591L162.874 65.9738L162.555 65.5916L162.236 65.2101L161.918 64.8287L161.6 64.4473L161.284 64.0651L160.968 63.6831L160.656 63.2973L160.344 62.9124L160.038 62.5222L159.73 62.1319C159.712 62.1042 159.689 62.0803 159.662 62.0616C159.635 62.0428 159.604 62.0296 159.572 62.0227C159.54 62.0158 159.506 62.0153 159.474 62.0213C159.441 62.0273 159.41 62.0395 159.383 62.0575C159.355 62.0754 159.331 62.0986 159.312 62.1257C159.294 62.1529 159.281 62.1835 159.274 62.2157C159.267 62.248 159.266 62.2813 159.272 62.3137C159.278 62.3462 159.29 62.3771 159.308 62.4048M144.563 31.0666L145.316 31.1855L146.072 31.3046L146.829 31.4087L147.585 31.5128L148.342 31.6059L149.096 31.6991L149.852 31.7841L150.608 31.8695L151.363 31.9475L152.117 32.0256L152.872 32.101L153.626 32.1768L154.381 32.2517L155.135 32.3271L155.89 32.4031L156.641 32.4778L157.391 32.5621L158.143 32.6464L158.898 32.7307L159.642 32.8134L160.387 32.9175L161.14 33.0216L161.892 33.1257L162.633 33.2284L163.427 33.3635L164.219 33.5196L165.015 33.6936L165.813 33.8758L166.615 34.0579L167.424 34.24L168.238 34.406L169.059 34.571L169.882 34.7164L170.713 34.8632L171.546 34.9706L172.371 35.0776L173.072 35.1491L173.763 35.2188L174.454 35.2899L175.142 35.3604L175.825 35.4358L176.51 35.5116L177.194 35.588L177.874 35.6643L178.549 35.753L179.229 35.8428L179.909 35.9331L180.585 36.0215L181.26 36.1232L181.934 36.2252L182.606 36.3389L183.279 36.4524L183.951 36.5799L184.623 36.7079L185.295 36.8494L185.966 36.9907L186.638 37.1494L187.309 37.3081L187.98 37.4856L188.657 37.6643C188.724 37.6824 188.796 37.6732 188.857 37.6388C188.917 37.6044 188.962 37.5475 188.981 37.4803C189.001 37.4132 188.993 37.3412 188.959 37.2799C188.926 37.2186 188.87 37.1728 188.803 37.1525L188.135 36.947L187.464 36.7388L186.792 36.5515L186.12 36.3637L185.448 36.1927L184.776 36.0223L184.102 35.8662L183.429 35.7101L182.754 35.573L182.08 35.4291L181.403 35.2974L180.727 35.1652L180.048 35.0463L179.372 34.9277L178.695 34.8088L178.015 34.6896L177.33 34.5843L176.65 34.4778L175.97 34.3709L175.287 34.2634L174.598 34.1609L173.91 34.0584L173.224 33.9556L172.547 33.8537L171.744 33.7093L170.948 33.5648L170.158 33.3801L169.36 33.1938L168.564 32.9893L167.761 32.7859L166.953 32.5946L166.138 32.4125L165.316 32.2467L164.488 32.0977L163.653 31.9676L162.814 31.8635L162.046 31.7935L161.289 31.7222L160.532 31.6533L159.767 31.5838L159.003 31.5344L158.245 31.488L157.488 31.4407L156.728 31.3928L155.968 31.3541L155.212 31.315L154.455 31.2765L153.698 31.2378L152.942 31.1992L152.187 31.1602L151.431 31.1183L150.676 31.0764L149.922 31.0288L149.167 30.9799L148.413 30.9242L147.658 30.868L146.903 30.8006L146.149 30.733L145.394 30.6508L144.636 30.5686C144.57 30.5598 144.503 30.5777 144.45 30.6183C144.397 30.6589 144.363 30.7188 144.354 30.7849C144.345 30.851 144.363 30.9179 144.404 30.9708C144.444 31.0237 144.504 31.0583 144.57 31.0671M188.529 37.3362L188.166 37.834L187.802 38.3312L187.437 38.8279L187.075 39.3256L186.713 39.8215L186.352 40.3174L185.992 40.8131L185.631 41.3093L185.272 41.8036L184.913 42.298L184.555 42.7923L184.196 43.2867L183.84 43.781L183.483 44.2754L183.127 44.7697L182.771 45.2654L182.416 45.7597L182.062 46.2541L181.708 46.7484L181.349 47.2485L180.997 47.7449L180.646 48.2409L180.294 48.737L179.942 49.234L179.593 49.7338L179.244 50.2323L178.897 50.7306L178.548 51.228L178.2 51.7268L177.853 52.2259L177.507 52.7249L177.161 53.2296L176.823 53.7404L176.491 54.2514L176.163 54.765L175.841 55.2828L175.524 55.8031L175.208 56.3248L174.892 56.8452L174.574 57.37L174.26 57.9015L173.948 58.4297L173.635 58.9574L173.323 59.4845L173.009 60.0119L172.696 60.5395L172.382 61.0662L172.069 61.593L171.824 62.0044L171.569 62.4168L171.305 62.8331L171.034 63.2538L170.756 63.6787L170.473 64.1072L170.187 64.5409L169.898 64.9749L169.609 65.4144L169.319 65.8567L169.033 66.3032L168.747 66.7502L168.469 67.2008L168.184 67.6538L167.92 68.1104L167.656 68.5683L167.413 69.0294L167.171 69.4902L166.944 69.9562L166.733 70.4245L166.537 70.8941L166.357 71.3653L166.195 71.8384L166.056 72.3082C166.034 72.3754 166.04 72.4484 166.072 72.5112C166.105 72.5739 166.161 72.6213 166.228 72.6428C166.295 72.6644 166.368 72.6584 166.431 72.6261C166.493 72.5939 166.541 72.538 166.562 72.4709L166.718 72.0181L166.893 71.5722L167.086 71.1273L167.294 70.6849L167.518 70.2426L167.756 69.804L168.013 69.3635L168.268 68.9251L168.545 68.4916L168.822 68.0558L169.114 67.6252L169.408 67.1933L169.71 66.766L170.013 66.3378L170.321 65.9144L170.628 65.4903L170.935 65.0704L171.244 64.6507L171.547 64.2329L171.847 63.8166L172.142 63.4026L172.431 62.9902L172.712 62.5797L172.982 62.1743L173.32 61.6628L173.658 61.1518L173.998 60.641L174.338 60.1305L174.678 59.6201L175.018 59.1096L175.359 58.5986L175.697 58.093L176.041 57.5945L176.387 57.0929L176.733 56.5907L177.078 56.0883L177.418 55.5822L177.751 55.0728L178.081 54.5608L178.409 54.0461L178.734 53.5372L179.058 53.0233L179.382 52.5089L179.705 51.994L180.028 51.4791L180.351 50.9642L180.673 50.4488L180.994 49.9352L181.319 49.4237L181.645 48.9108L181.97 48.3975L182.294 47.8849L182.622 47.3734L182.949 46.8611L183.277 46.3483L183.604 45.8362L183.933 45.3247L184.263 44.8124L184.594 44.2998L184.923 43.788L185.255 43.2755L185.587 42.7627L185.919 42.2496L186.251 41.7373L186.585 41.2239L186.92 40.7101L187.254 40.1959L187.588 39.6826L187.925 39.1672L188.262 38.6517L188.598 38.1366L188.937 37.6206C188.975 37.5658 188.989 37.4981 188.977 37.4325C188.965 37.3669 188.928 37.3087 188.873 37.2708C188.818 37.2328 188.751 37.2182 188.685 37.2302C188.619 37.2421 188.561 37.2796 188.523 37.3344" fill="#010001"/>
<path d="M229.323 171.358L229.266 171.334L229.231 171.323L229.207 171.317L229.19 171.313L229.176 171.31H229.17H229.167L229.123 171.304L229.045 171.291L228.938 171.272L228.804 171.246L228.644 171.212L228.462 171.17L228.259 171.118L228.037 171.056L227.799 170.986L227.547 170.905L227.282 170.812L227.009 170.708L226.727 170.592L226.44 170.462L226.149 170.32L225.858 170.163L225.567 169.993L225.279 169.808L224.997 169.609L224.721 169.392L224.455 169.161L224.201 168.912L223.959 168.646L223.73 168.361L223.515 168.058L223.312 167.738L223.121 167.406L222.943 167.063L222.778 166.713L222.624 166.357L222.482 166.002L222.351 165.645L222.232 165.291L222.124 164.945L222.026 164.607L221.939 164.28L221.86 163.968L221.793 163.674L221.732 163.399L221.68 163.147L221.638 162.921L221.602 162.721L221.575 162.552L221.554 162.417L221.54 162.317L221.532 162.256L221.53 162.237C221.521 162.168 221.486 162.104 221.431 162.061C221.376 162.017 221.306 161.997 221.237 162.004C221.167 162.012 221.103 162.046 221.059 162.101C221.015 162.155 220.994 162.225 221 162.294L221.002 162.316V162.326L220.989 162.42L220.968 162.554L220.939 162.722L220.903 162.923L220.861 163.149L220.809 163.4L220.747 163.676L220.678 163.97L220.6 164.282L220.511 164.608L220.412 164.945L220.303 165.292L220.183 165.645L220.051 166.001L219.908 166.356L219.752 166.711L219.585 167.062L219.406 167.403L219.214 167.734L219.011 168.054L218.794 168.355L218.565 168.639L218.323 168.905L218.068 169.152L217.801 169.382L217.526 169.598L217.244 169.796L216.956 169.98L216.665 170.15L216.374 170.304L216.084 170.445L215.797 170.574L215.516 170.689L215.242 170.793L214.978 170.885L214.726 170.966L214.488 171.036L214.267 171.096L214.064 171.146L213.882 171.188L213.723 171.222L213.589 171.248L213.485 171.267L213.407 171.28L213.363 171.286H213.357H213.35L213.337 171.289L213.318 171.293L213.292 171.3L213.255 171.311L213.196 171.337L213.095 171.405L212.947 171.613V171.995L213.095 172.203L213.196 172.27L213.255 172.296L213.292 172.309L213.318 172.315L213.337 172.319L213.35 172.322H213.357H213.359H213.362L213.404 172.33L213.483 172.346L213.587 172.37L213.718 172.401L213.877 172.442L214.056 172.491L214.255 172.55L214.474 172.619L214.707 172.699L214.953 172.789L215.214 172.892L215.48 173.005L215.753 173.131L216.032 173.27L216.312 173.421L216.591 173.585L216.869 173.764L217.143 173.955L217.41 174.16L217.668 174.381L217.917 174.615L218.151 174.863L218.372 175.128L218.58 175.409L218.775 175.707L218.957 176.022L219.129 176.35L219.288 176.687L219.435 177.032L219.572 177.383L219.697 177.734L219.811 178.086L219.915 178.434L220.008 178.776L220.093 179.108L220.167 179.429L220.235 179.735L220.293 180.024L220.343 180.295L220.387 180.542L220.424 180.763L220.455 180.958L220.479 181.121L220.496 181.252L220.508 181.348L220.514 181.402V181.407V181.409V181.416L220.516 181.43L220.519 181.448L220.523 181.474L220.532 181.514L220.551 181.58L220.61 181.71L220.886 181.987H221.643L221.918 181.71L221.978 181.58L221.997 181.514L222.006 181.474L222.01 181.448L222.013 181.43L222.015 181.416V181.409V181.407V181.403L222.021 181.349L222.032 181.253L222.049 181.123L222.073 180.959L222.102 180.764L222.139 180.543L222.181 180.296L222.229 180.025L222.285 179.735L222.349 179.428L222.422 179.106L222.503 178.772L222.595 178.43L222.697 178.081L222.81 177.728L222.934 177.376L223.069 177.024L223.216 176.677L223.374 176.339L223.547 176.01L223.729 175.693L223.925 175.393L224.133 175.111L224.355 174.845L224.589 174.595L224.838 174.361L225.098 174.14L225.366 173.934L225.641 173.742L225.92 173.563L226.201 173.399L226.483 173.247L226.762 173.108L227.037 172.982L227.304 172.868L227.564 172.766L227.812 172.676L228.046 172.598L228.265 172.529L228.465 172.471L228.645 172.421L228.803 172.381L228.936 172.35L229.04 172.327L229.118 172.31L229.165 172.302H229.16H229.162H229.164H229.166L229.172 172.3L229.185 172.297L229.203 172.294L229.227 172.288L229.262 172.276L229.318 172.252L229.415 172.188L229.556 171.989V171.625L229.415 171.427L229.323 171.358ZM213.524 172.317H213.521H213.525H213.531H213.536H213.534H213.524ZM226.92 171.866L226.621 171.98L226.311 172.107L225.996 172.249L225.674 172.407L225.35 172.581L225.025 172.772L224.701 172.98L224.38 173.208L224.066 173.455L223.759 173.722L223.462 174.012L223.18 174.325L222.914 174.655L222.666 175.003L222.437 175.364L222.223 175.733L222.026 176.11L221.844 176.493L221.675 176.876L221.521 177.261L221.38 177.641L221.276 177.948L221.169 177.635L221.03 177.254L220.877 176.869L220.709 176.483L220.527 176.101L220.329 175.721L220.117 175.349L219.887 174.987L219.639 174.637L219.372 174.304L219.088 173.992L218.79 173.7L218.482 173.432L218.167 173.184L217.845 172.954L217.52 172.746L217.194 172.555L216.868 172.381L216.545 172.225L216.229 172.082L215.918 171.954L215.618 171.84L215.401 171.764L215.588 171.691L215.881 171.567L216.184 171.429L216.492 171.275L216.804 171.108L217.118 170.924L217.431 170.724L217.743 170.507L218.049 170.273L218.347 170.019L218.637 169.747L218.915 169.455L219.175 169.143L219.42 168.813L219.648 168.467L219.856 168.109L220.049 167.742L220.226 167.367L220.388 166.989L220.537 166.608L220.672 166.228L220.794 165.85L220.905 165.478L221.004 165.114L221.092 164.761L221.17 164.421L221.239 164.097L221.258 163.996L221.278 164.1L221.348 164.424L221.426 164.762L221.514 165.115L221.615 165.479L221.727 165.851L221.85 166.228L221.986 166.608L222.137 166.988L222.299 167.366L222.478 167.741L222.673 168.106L222.882 168.463L223.11 168.808L223.356 169.137L223.619 169.449L223.896 169.74L224.186 170.011L224.484 170.263L224.791 170.497L225.102 170.713L225.414 170.912L225.728 171.094L226.041 171.261L226.349 171.413L226.651 171.551L226.944 171.674L227.191 171.771L226.92 171.866ZM228.98 172.289H228.987H228.981H228.98Z" fill="#010001"/>
<path d="M71.1493 65.1873L71.0926 65.1631L71.0577 65.1519L71.0335 65.1454L71.0164 65.1415L71.0026 65.1389H70.9966H70.9945L70.9469 65.1327L70.8688 65.1189L70.7624 65.0996L70.6284 65.0736L70.4682 65.0395L70.286 64.9971L70.0836 64.9451L69.8614 64.8839L69.6233 64.8137L69.3717 64.7323L69.1071 64.6396L68.8331 64.5356L68.5516 64.4187L68.2639 64.2886L67.9738 64.1468L67.6821 63.9907L67.3915 63.8198L67.1032 63.6351L66.8211 63.4352L66.5464 63.219L66.2792 62.9875L66.025 62.7398L65.7835 62.4725L65.5546 62.1876L65.3391 61.8848L65.1362 61.565L64.9455 61.2325L64.7678 60.8904L64.602 60.5396L64.448 60.1866L64.3059 59.8301L64.1758 59.4734L64.0577 59.1198L63.9492 58.7732L63.8516 58.435L63.764 58.1092L63.6859 57.797L63.618 57.5028L63.5579 57.2277L63.5059 56.9756L63.4634 56.7495L63.4278 56.55L63.4002 56.3808L63.3802 56.2463L63.3654 56.1459L63.3573 56.0847L63.3549 56.0665C63.3462 55.9973 63.3107 55.9343 63.256 55.8911C63.2013 55.8478 63.1318 55.8277 63.0625 55.8351C62.9932 55.8426 62.9295 55.8769 62.8852 55.9308C62.8409 55.9847 62.8196 56.0538 62.8257 56.1232L62.8278 56.1454V56.1547L62.8143 56.2484L62.7929 56.3829L62.7648 56.5507L62.7289 56.7513L62.686 56.9774L62.634 57.2293L62.5747 57.5067L62.5052 57.8007L62.4271 58.1129L62.3379 58.4389L62.2388 58.7756L62.1297 59.1219L62.0093 59.4747L61.8776 59.8309L61.7348 60.1871L61.5787 60.542L61.4121 60.8919L61.2334 61.2333L61.0411 61.5648L60.8377 61.8837L60.6214 62.1858L60.3917 62.4692L60.15 62.7351L59.8953 62.982L59.6281 63.2125L59.353 63.4285L59.0707 63.627L58.783 63.8091L58.4923 63.979L58.2012 64.1333L57.9103 64.2743L57.6241 64.4029L57.3428 64.5181L57.0694 64.6222L56.8048 64.7143L56.5529 64.7947L56.3156 64.8647L56.094 64.9253L55.8913 64.9755L55.7091 65.0169L55.5497 65.0518L55.4157 65.0778L55.3103 65.0965L55.2322 65.1098L55.1901 65.1155H55.1823H55.1758L55.162 65.1181L55.1438 65.122L55.1177 65.1285L55.0808 65.1402L55.0215 65.1662L54.9205 65.2347L54.7722 65.441V65.823L54.9205 66.0311L55.0215 66.098L55.0808 66.124L55.1177 66.1362L55.1438 66.1422L55.162 66.1461L55.1758 66.149H55.1823H55.1844H55.1859H55.1883H55.1831L55.2304 66.1578L55.3085 66.1742L55.4125 66.1984L55.5447 66.2294L55.7026 66.2697L55.8816 66.3189L56.0812 66.3782L56.3 66.4471L56.5324 66.5275L56.7793 66.617L57.0395 66.7196L57.3059 66.8333L57.5788 66.9587L57.8578 67.0981L58.138 67.2488L58.4174 67.4127L58.6956 67.5922L58.9693 67.7829L59.236 67.988L59.4941 68.2096L59.7423 68.4438L59.9764 68.6915L60.1971 68.9561L60.4052 69.2379L60.5998 69.5355L60.782 69.8509L60.954 70.1785L61.1132 70.5151L61.2605 70.8604L61.3965 71.2111L61.5217 71.5626L61.6359 71.9139L61.74 72.2623L61.8334 72.6036L61.9172 72.9359L61.9921 73.258L62.0597 73.5635L62.1178 73.8528L62.168 74.1234L62.212 74.3706L62.2494 74.5909L62.2799 74.7861L62.3035 74.9495L62.3207 75.0796L62.3332 75.1758L62.3389 75.2297V75.2352V75.2422L62.341 75.256L62.3433 75.2747L62.3478 75.3007L62.3566 75.3397L62.3759 75.4056L62.4349 75.5357L62.7105 75.8128H63.4679L63.7455 75.5375L63.8045 75.4074L63.8238 75.3416L63.8321 75.3025L63.8371 75.2765L63.8397 75.2578L63.841 75.244V75.237V75.2336L63.847 75.1795L63.8581 75.0827L63.8753 74.9526L63.8987 74.7887L63.9287 74.5941L63.9651 74.3726L64.0075 74.1255L64.0554 73.8543L64.111 73.5648L64.1751 73.2577L64.2479 72.9359L64.3299 72.6018L64.4214 72.2594L64.526 71.9079L64.6384 71.5554L64.762 71.2031L64.8976 70.851L65.0443 70.5037L65.203 70.1654L65.375 69.8368L65.5587 69.5204L65.7539 69.2205L65.962 68.9376L66.1842 68.6717L66.4197 68.4222L66.6689 68.188L66.9291 67.9669L67.1966 67.7613L67.4716 67.5685L67.7508 67.3898L68.0318 67.2251L68.313 67.0739L68.5925 66.935L68.867 66.8088L69.1344 66.6956L69.3946 66.5931L69.6421 66.5028L69.8762 66.4248L70.095 66.3558L70.2956 66.2973L70.4749 66.2478L70.6336 66.208L70.7661 66.1765L70.8701 66.1534L70.9482 66.1375L70.9903 66.1292H70.995H70.9922H70.9945H71.0005L71.0143 66.1266L71.0314 66.1227L71.0557 66.1167L71.0905 66.105L71.1472 66.0808L71.2438 66.0163L71.3853 65.8183V65.454L71.2438 65.2565L71.1493 65.1873ZM55.353 66.1456H55.3511H55.3527H55.353ZM55.3532 66.1464H55.3592H55.3636H55.3621H55.3532ZM68.7462 65.6957L68.4473 65.8094L68.1377 65.9372L67.8221 66.0795L67.5007 66.2356L67.176 66.4094L66.8513 66.6006L66.5271 66.8088L66.2063 67.037L65.892 67.2844L65.5855 67.5514L65.2884 67.842L65.0061 68.1529L64.7399 68.4836L64.4922 68.8325L64.263 69.1926L64.0496 69.5618L63.8522 69.9396L63.67 70.3216L63.5017 70.7048L63.3469 71.0891L63.2059 71.47L63.1018 71.7762L62.9956 71.464L62.8567 71.0823L62.7034 70.6975L62.5354 70.3117L62.3532 69.9289L62.1558 69.5493L61.9424 69.1788L61.7127 68.8177L61.4639 68.4675L61.1972 68.1352L60.9139 67.823L60.616 67.5313L60.3079 67.2633L59.9926 67.0149L59.6705 66.7864L59.3452 66.5783L59.0195 66.387L58.6935 66.2127L58.3711 66.0566L58.0542 65.9138L57.7438 65.7857L57.4438 65.6723L57.2265 65.5961L57.4136 65.5227L57.7068 65.3988L58.0094 65.2604L58.3172 65.1072L58.6295 64.9396L58.9438 64.7559L59.256 64.5558L59.5682 64.3391L59.8747 64.105L60.1726 63.8513L60.4625 63.5799L60.7403 63.2882L61.0021 62.976L61.2472 62.6464L61.4746 62.3L61.6827 61.9423L61.8758 61.5752L62.0532 61.2008L62.2153 60.8219L62.3642 60.441L62.4989 60.0606L62.6212 59.6836L62.7315 59.3116L62.8307 58.9473L62.9189 58.5945L62.9969 58.2544L63.0654 57.9308L63.0851 57.8293L63.1054 57.9334L63.1749 58.2575L63.253 58.5976L63.3422 58.9499L63.4426 59.3142L63.5545 59.6857L63.6776 60.0627L63.8142 60.4431L63.9638 60.8235L64.1269 61.2013L64.3059 61.5754L64.5 61.9412L64.7095 62.2982L64.9374 62.6435L65.1835 62.9721L65.4461 63.283L65.7239 63.5742L66.0135 63.8453L66.3117 64.0971L66.6187 64.3313L66.9291 64.5467L67.2413 64.7463L67.5556 64.9284L67.8679 65.095L68.1759 65.2469L68.478 65.3848L68.771 65.5079L69.0187 65.6047L68.7462 65.6957ZM70.8033 66.1183L70.8202 66.1214L70.8074 66.1193L70.8033 66.1183Z" fill="#010001"/>
<path d="M213.677 194.263L213.621 194.239L213.585 194.227L213.561 194.221L213.544 194.218L213.53 194.215H213.524H213.522H213.519L213.464 194.206L213.369 194.19L213.241 194.166L213.08 194.134L212.887 194.092L212.668 194.04L212.424 193.978L212.157 193.903L211.871 193.818L211.568 193.719L211.25 193.607L210.92 193.481L210.582 193.34L210.237 193.184L209.887 193.013L209.537 192.824L209.187 192.616L208.841 192.393L208.503 192.15L208.172 191.888L207.851 191.608L207.545 191.308L207.253 190.982L206.977 190.638L206.719 190.272L206.476 189.887L206.247 189.486L206.035 189.074L205.838 188.653L205.654 188.227L205.485 187.797L205.329 187.37L205.187 186.946L205.057 186.53L204.942 186.125L204.838 185.735L204.746 185.362L204.665 185.009L204.594 184.679L204.534 184.377L204.484 184.106L204.442 183.867L204.41 183.665L204.386 183.504L204.369 183.383L204.36 183.31L204.357 183.287C204.348 183.218 204.313 183.155 204.258 183.112C204.203 183.068 204.134 183.048 204.064 183.056C203.995 183.063 203.931 183.097 203.887 183.151C203.843 183.205 203.822 183.274 203.828 183.344L203.83 183.37V183.377L203.829 183.386L203.821 183.44L203.812 183.505L203.787 183.666L203.754 183.869L203.712 184.108L203.66 184.379L203.598 184.681L203.527 185.011L203.445 185.363L203.352 185.736L203.248 186.127L203.134 186.532L203.004 186.949L202.861 187.372L202.705 187.799L202.535 188.228L202.35 188.653L202.152 189.074L201.938 189.485L201.708 189.885L201.464 190.269L201.206 190.634L200.929 190.978L200.638 191.299L200.332 191.598L200.011 191.878L199.68 192.138L199.341 192.379L198.995 192.601L198.646 192.807L198.296 192.995L197.946 193.166L197.601 193.322L197.263 193.462L196.934 193.587L196.616 193.698L196.314 193.797L196.027 193.881L195.76 193.955L195.517 194.017L195.299 194.069L195.106 194.111L194.945 194.142L194.817 194.166L194.722 194.182L194.668 194.19H194.664H194.663H194.661H194.655L194.641 194.192L194.622 194.196L194.596 194.203L194.559 194.215L194.5 194.241L194.399 194.309L194.25 194.517V194.899L194.399 195.107L194.5 195.174L194.559 195.2L194.596 195.212L194.622 195.219L194.641 195.223L194.655 195.226H194.661H194.663L194.72 195.236L194.814 195.256L194.941 195.283L195.101 195.321L195.291 195.37L195.507 195.428L195.748 195.497L196.011 195.58L196.292 195.675L196.589 195.783L196.902 195.905L197.223 196.041L197.553 196.191L197.89 196.357L198.228 196.539L198.566 196.735L198.905 196.95L199.237 197.18L199.56 197.428L199.874 197.694L200.177 197.977L200.463 198.277L200.733 198.598L200.988 198.939L201.225 199.3L201.448 199.681L201.656 200.077L201.851 200.483L202.03 200.899L202.196 201.322L202.348 201.744L202.487 202.167L202.613 202.586L202.727 202.996L202.829 203.397L202.92 203.783L203.002 204.15L203.073 204.498L203.134 204.822L203.186 205.119L203.231 205.386L203.268 205.62L203.296 205.817L203.317 205.973L203.332 206.09L203.339 206.156V206.159V206.161V206.163V206.165V206.168V206.172V206.177V206.182V206.188V206.196L203.341 206.206L203.343 206.218L203.346 206.236L203.352 206.265L203.366 206.314L203.411 206.428L203.756 206.772L204.707 206.524L204.818 206.279L204.834 206.196L204.837 206.172L204.839 206.156L204.842 206.126L204.847 206.086L204.853 206.034L204.86 205.972L204.881 205.815L204.909 205.617L204.946 205.383L204.99 205.117L205.042 204.819L205.1 204.494L205.169 204.146L205.247 203.777L205.336 203.39L205.436 202.989L205.548 202.578L205.673 202.159L205.81 201.734L205.961 201.31L206.126 200.887L206.305 200.469L206.498 200.061L206.707 199.664L206.931 199.282L207.169 198.917L207.424 198.575L207.696 198.253L207.982 197.951L208.285 197.667L208.6 197.4L208.925 197.152L209.258 196.921L209.596 196.706L209.937 196.509L210.277 196.327L210.615 196.16L210.946 196.009L211.269 195.874L211.581 195.752L211.879 195.644L212.161 195.55L212.425 195.467L212.666 195.398L212.882 195.34L213.074 195.292L213.234 195.255L213.361 195.227L213.455 195.208L213.507 195.198H213.509H213.511H213.513H213.515H213.521L213.535 195.196L213.552 195.192L213.576 195.185L213.611 195.174L213.668 195.148L213.765 195.083L213.906 194.885V194.521L213.765 194.323L213.677 194.263ZM211.231 194.758L210.889 194.879L210.534 195.015L210.169 195.167L209.794 195.337L209.415 195.524L209.031 195.731L208.648 195.958L208.266 196.205L207.888 196.476L207.518 196.769L207.157 197.085L206.808 197.427L206.477 197.795L206.165 198.186L205.874 198.597L205.605 199.024L205.354 199.461L205.121 199.908L204.908 200.36L204.709 200.816L204.527 201.272L204.362 201.724L204.21 202.17L204.104 202.508L203.999 202.165L203.849 201.717L203.685 201.264L203.505 200.807L203.307 200.351L203.094 199.897L202.862 199.448L202.611 199.009L202.341 198.582L202.049 198.169L201.737 197.776L201.405 197.407L201.055 197.063L200.693 196.746L200.322 196.452L199.942 196.181L199.559 195.934L199.174 195.707L198.789 195.498L198.408 195.311L198.033 195.142L197.666 194.989L197.311 194.853L196.968 194.732L196.786 194.673L196.945 194.616L197.281 194.485L197.63 194.34L197.989 194.177L198.355 193.996L198.725 193.798L199.099 193.582L199.471 193.345L199.84 193.09L200.204 192.813L200.558 192.514L200.902 192.193L201.231 191.848L201.543 191.48L201.835 191.09L202.105 190.68L202.354 190.257L202.584 189.822L202.797 189.378L202.991 188.928L203.169 188.475L203.331 188.023L203.478 187.574L203.611 187.132L203.731 186.699L203.837 186.279L203.931 185.874L204.013 185.488L204.085 185.123L204.092 185.084L204.1 185.125L204.172 185.489L204.256 185.875L204.351 186.28L204.459 186.7L204.579 187.132L204.714 187.575L204.861 188.023L205.025 188.475L205.204 188.926L205.399 189.376L205.613 189.82L205.845 190.254L206.095 190.676L206.365 191.084L206.658 191.473L206.97 191.84L207.3 192.184L207.644 192.503L207.998 192.801L208.362 193.077L208.732 193.332L209.104 193.566L209.477 193.782L209.847 193.978L210.213 194.158L210.572 194.32L210.921 194.466L211.256 194.596L211.481 194.676L211.231 194.758ZM213.349 195.195H213.351H213.357H213.35H213.349Z" fill="#010001"/>
<path d="M55.5044 88.0917L55.4477 88.0677L55.4123 88.0563L55.3881 88.0503L55.3709 88.0464L55.3571 88.044H55.3506H55.3488H55.3465H55.3415H55.3475L55.2898 88.0347L55.1943 88.0191L55.0663 87.9954L54.9049 87.9626L54.7119 87.921L54.4936 87.8689L54.2498 87.8062L53.9826 87.7323L53.6964 87.6468L53.3933 87.5481L53.0751 87.4357L52.7464 87.3095L52.4082 87.1693L52.0632 87.0116L51.7138 86.8404L51.3641 86.6513L51.0141 86.4431L50.6678 86.2199L50.3296 85.9774L49.9981 85.7172L49.6773 85.4367L49.3713 85.1367L49.0804 84.8126L48.8052 84.4681L48.5471 84.1038L48.304 83.718L48.0753 83.3175L47.863 82.9057L47.6656 82.4842L47.4816 82.0585L47.3133 81.6289L47.1584 81.2012L47.0161 80.7779L46.886 80.3616L46.7708 79.957L46.6667 79.5667L46.5741 79.1931L46.4937 78.8408L46.4226 78.5106L46.3625 78.2088L46.3131 77.9348L46.2712 77.6954L46.2387 77.4933L46.215 77.3333L46.1978 77.2115L46.1885 77.1386L46.1856 77.116C46.1768 77.047 46.1412 76.9841 46.0866 76.941C46.032 76.8978 45.9626 76.8778 45.8934 76.8852C45.8241 76.8926 45.7606 76.9268 45.7163 76.9805C45.672 77.0342 45.6505 77.1031 45.6564 77.1725L45.6587 77.1985V77.2053V77.2146L45.6509 77.269L45.6416 77.3335L45.6169 77.4951L45.5838 77.697L45.5417 77.9366L45.4896 78.208L45.4287 78.5096L45.3572 78.8397L45.2755 79.192L45.1823 79.5654L45.077 79.9557L44.9601 80.3597L44.8301 80.776L44.6867 81.1994L44.5306 81.6266L44.3602 82.0556L44.1754 82.4813L43.9769 82.9018L43.763 83.3131L43.5338 83.7128L43.2895 84.0976L43.0309 84.4618L42.7543 84.8063L42.4637 85.1276L42.1572 85.4271L41.8364 85.7065L41.5049 85.9667L41.1666 86.2074L40.8203 86.4301L40.4704 86.6354L40.1204 86.8233L39.7713 86.9942L39.4257 87.1503L39.0875 87.2898L38.7584 87.4149L38.4407 87.5273L38.1381 87.6249L37.8519 87.7097L37.5849 87.7836L37.3417 87.845L37.1234 87.897L36.9306 87.9384L36.7695 87.9704L36.6418 87.9936L36.5468 88.0094L36.4948 88.0175H36.4893H36.4877H36.4812L36.4672 88.0199L36.4487 88.0243L36.4227 88.0303L36.3857 88.0425L36.3267 88.0685L36.2252 88.1359L36.0769 88.344V88.7289L36.2252 88.937L36.3267 89.0047L36.3857 89.0307L36.4227 89.0426L36.4487 89.0489L36.4672 89.0528L36.4812 89.0559L36.4877 89.0575H36.4911H36.4929L36.5473 89.0674L36.6415 89.0866L36.7685 89.1147L36.9282 89.1522L37.1189 89.2008L37.3346 89.2591L37.575 89.3291L37.8384 89.4118L38.1191 89.5065L38.4167 89.6137L38.729 89.736L39.0506 89.8721L39.3807 90.0222L39.7172 90.1888L40.0554 90.3709L40.3936 90.5681L40.7319 90.7828L41.0639 91.0125L41.387 91.2599L41.7013 91.5259L42.0039 91.8092L42.2901 92.1092L42.5599 92.43L42.8147 92.7711L43.0522 93.1322L43.2754 93.5134L43.4836 93.9086L43.6777 94.3153L43.8567 94.7316L44.0232 95.1544L44.1749 95.5764L44.3138 95.9992L44.44 96.4181L44.5543 96.8284L44.6562 97.2291L44.7473 97.615L44.8288 97.9823L44.8998 98.33L44.9612 98.6549L45.0132 98.9518L45.0585 99.2177L45.0954 99.4519L45.1241 99.6499L45.1454 99.806L45.1597 99.9223L45.167 99.9889V99.992V99.9959V99.9983V100.003V100.008V100.013V100.02V100.027L45.1686 100.037L45.1704 100.049L45.1738 100.067L45.1797 100.095L45.193 100.145L45.2383 100.259L45.5828 100.603L46.5348 100.354L46.6456 100.11L46.662 100.027L46.6649 100.004L46.6667 99.9866L46.6698 99.9574L46.6742 99.9176L46.6805 99.8656L46.688 99.8039L46.7086 99.6462L46.7367 99.4493L46.7734 99.2151L46.8171 98.9492L46.8691 98.6521L46.9277 98.3263L46.9958 97.9784L47.0739 97.6098L47.1634 97.2226L47.263 96.8214L47.3749 96.4106L47.5001 95.9909L47.6369 95.5665L47.7878 95.1422L47.9533 94.7191L48.1315 94.3012L48.3249 93.8928L48.5348 93.4962L48.7578 93.1138L48.9964 92.7511L49.2516 92.4087L49.5225 92.086L49.8087 91.785L50.1123 91.5006L50.4277 91.2331L50.7524 90.9857L51.0854 90.7547L51.4237 90.5392L51.7632 90.3423L52.1033 90.1601L52.4415 89.9936L52.7722 89.8432L53.0954 89.7077L53.4076 89.5856L53.7055 89.4777L53.9873 89.3835L54.2514 89.3013L54.4923 89.2318L54.7088 89.1738L54.9 89.1254L55.06 89.0879L55.1872 89.0603L55.2817 89.0411L55.3337 89.0317H55.3387H55.3402H55.3462L55.36 89.0294L55.3772 89.0252L55.4014 89.019L55.4368 89.0075L55.4935 88.9831L55.59 88.9183L55.7316 88.7203V88.356L55.59 88.1572L55.5044 88.0917ZM36.6613 89.051H36.667H36.6719H36.668H36.6613ZM53.0571 88.5884L52.7152 88.7091L52.3611 88.8452L51.9948 88.9974L51.6209 89.168L51.241 89.3546L50.8572 89.5627L50.4761 89.7878L50.0936 90.035L49.7158 90.3051L49.3458 90.5978L48.9844 90.9136L48.6358 91.256L48.3046 91.6242L47.9923 92.0145L47.7012 92.4261L47.4322 92.8523L47.1813 93.2891L46.9487 93.7372L46.7351 94.1894L46.5369 94.6447L46.3547 95.1005L46.1898 95.5527L46.0381 95.9982L45.9322 96.3364L45.8266 95.9927L45.6764 95.546L45.5123 95.0925L45.3325 94.6358L45.1347 94.179L44.9216 93.7252L44.6896 93.2759L44.4387 92.8374L44.1692 92.4102L43.877 91.9968L43.5648 91.6065L43.2328 91.2368L42.8826 90.8928L42.5209 90.5767L42.1499 90.2819L41.7698 90.0111L41.3865 89.7636L41.0022 89.536L40.6169 89.3278L40.236 89.1405L39.861 88.9711L39.4939 88.8184L39.1388 88.6828L38.7964 88.5621L38.6142 88.5028L38.7724 88.4453L39.1088 88.3152L39.4572 88.1689L39.8165 88.0058L40.1826 87.826L40.5531 87.628L40.9265 87.4113L41.2986 87.1745L41.6678 86.9193L42.032 86.6419L42.3859 86.343L42.7293 86.0227L43.059 85.6777L43.3712 85.3092L43.6629 84.919L43.9332 84.51L44.1819 84.0861L44.4125 83.6516L44.6248 83.2067L44.8183 82.7568L44.9974 82.3049L45.1594 81.8522L45.3057 81.4039L45.4394 80.9616L45.5586 80.5286L45.6645 80.1087L45.7592 79.7036L45.8414 79.3174L45.9127 78.9547L45.92 78.9149L45.9275 78.9558L46.0001 79.32L46.0839 79.7059L46.1794 80.111L46.2868 80.5307L46.407 80.9639L46.5416 81.4062L46.6893 81.8545L46.853 82.3062L47.0323 82.7581L47.2274 83.207L47.4408 83.6508L47.6728 84.0851L47.9226 84.5079L48.1937 84.9158L48.4859 85.304L48.7981 85.6712L49.1278 86.0156L49.4718 86.3344L49.8261 86.6328L50.1904 86.9089L50.5593 87.1631L50.9314 87.3972L51.3045 87.6137L51.675 87.8096L52.0411 87.9897L52.3999 88.1518L52.7483 88.2975L53.0842 88.4276L53.3087 88.5087L53.0571 88.5884Z" fill="#010001"/>
<path d="M244.781 188.631L244.684 188.566L244.628 188.543L244.592 188.53L244.569 188.524L244.551 188.521L244.539 188.519H244.533H244.528L244.502 188.515L244.45 188.507L244.38 188.495L244.289 188.478L244.182 188.456L244.059 188.43L243.923 188.397L243.773 188.357L243.612 188.311L243.442 188.259L243.268 188.199L242.888 188.053L242.498 187.875L242.104 187.659L241.72 187.405L241.355 187.111L241.014 186.76L240.867 186.58L240.721 186.378L240.583 186.164L240.453 185.942L240.331 185.711L240.219 185.48L240.011 184.993L239.837 184.512L239.694 184.048L239.577 183.612L239.486 183.224L239.421 182.899L239.395 182.764L239.375 182.65L239.361 182.558L239.35 182.49L239.344 182.449V182.437C239.34 182.402 239.33 182.368 239.313 182.338C239.296 182.307 239.273 182.28 239.246 182.258C239.219 182.236 239.188 182.22 239.154 182.21C239.121 182.2 239.085 182.197 239.051 182.201C239.016 182.204 238.982 182.215 238.951 182.232C238.921 182.248 238.894 182.271 238.872 182.298C238.85 182.326 238.833 182.357 238.824 182.39C238.814 182.424 238.811 182.459 238.814 182.494L238.816 182.51V182.52L238.81 182.56L238.795 182.652L238.775 182.766L238.749 182.902L238.718 183.057L238.681 183.229L238.638 183.416L238.589 183.616L238.532 183.828L238.47 184.047L238.325 184.513L238.149 184.994L237.941 185.474L237.702 185.94L237.433 186.374L237.122 186.771L236.966 186.938L236.795 187.101L236.615 187.253L236.429 187.394L236.24 187.525L236.052 187.642L235.651 187.861L235.261 188.037L234.886 188.179L234.536 188.293L234.226 188.377L233.966 188.436L233.863 188.457L233.774 188.473L233.704 188.485L233.652 188.493L233.621 188.497H233.615L233.601 188.5L233.583 188.504L233.557 188.51L233.52 188.522L233.462 188.548L233.36 188.616L233.212 188.824V189.206L233.36 189.414L233.462 189.481L233.52 189.507L233.557 189.519L233.583 189.525L233.601 189.529L233.615 189.532H233.621H233.623H233.626H233.62L233.651 189.538L233.703 189.55L233.772 189.566L233.86 189.588L233.964 189.616L234.084 189.651L234.218 189.692L234.363 189.74L234.52 189.795L234.684 189.857L234.85 189.924L235.216 190.09L235.586 190.287L235.955 190.521L236.311 190.786L236.639 191.087L236.945 191.442L237.067 191.613L237.192 191.809L237.31 192.017L237.421 192.236L237.525 192.461L237.617 192.683L237.793 193.166L237.935 193.636L238.049 194.09L238.143 194.516L238.214 194.892L238.268 195.211L238.288 195.337L238.304 195.447L238.315 195.534L238.323 195.598L238.327 195.631V195.635V195.641L238.329 195.655L238.332 195.673L238.336 195.699L238.345 195.738L238.364 195.803L238.423 195.933L238.699 196.21H239.456L239.731 195.933L239.791 195.803L239.81 195.738L239.818 195.699L239.823 195.673L239.826 195.655L239.827 195.641V195.635V195.632V195.635L239.832 195.596L239.839 195.532L239.85 195.446L239.865 195.336L239.885 195.205L239.911 195.056L239.937 194.891L239.968 194.706L240.003 194.511L240.045 194.302L240.089 194.091L240.202 193.629L240.34 193.157L240.509 192.682L240.707 192.221L240.935 191.793L241.209 191.394L241.341 191.231L241.494 191.067L241.656 190.911L241.825 190.763L242.001 190.625L242.173 190.501L242.554 190.261L242.926 190.064L243.288 189.902L243.629 189.767L243.932 189.665L244.189 189.591L244.29 189.564L244.379 189.542L244.449 189.526L244.501 189.515L244.527 189.51H244.529H244.535L244.548 189.507L244.565 189.504L244.588 189.497L244.624 189.486L244.68 189.46L244.777 189.396L244.918 189.198V188.834L244.781 188.631ZM233.799 189.524L233.808 189.522H233.802L233.799 189.524ZM238.33 195.465V195.454V195.452V195.458V195.465ZM242.472 189.062L242.02 189.27L241.571 189.519L241.332 189.671L241.104 189.83L240.879 190.004L240.659 190.192L240.446 190.398L240.232 190.632L239.873 191.097L239.554 191.614L239.283 192.146L239.089 192.593L238.898 192.146L238.765 191.868L238.623 191.601L238.47 191.341L238.305 191.086L238.126 190.837L237.922 190.587L237.518 190.171L237.069 189.805L236.608 189.499L236.147 189.244L235.693 189.036L235.49 188.958L235.648 188.887L236.082 188.658L236.512 188.389L236.736 188.231L236.95 188.064L237.158 187.884L237.361 187.691L237.555 187.483L237.745 187.252L238.07 186.786L238.348 186.275L238.579 185.748L238.772 185.217L238.928 184.697L239.051 184.202L239.075 184.096L239.098 184.2L239.225 184.696L239.384 185.217L239.578 185.742L239.691 186.01L239.814 186.272L239.948 186.529L240.093 186.779L240.251 187.023L240.43 187.264L240.799 187.682L241.212 188.055L241.643 188.372L242.08 188.645L242.514 188.871L242.725 188.965L242.472 189.062ZM244.353 189.499L244.362 189.501H244.368L244.356 189.498L244.353 189.499Z" fill="#010001"/>
<path d="M86.51 82.3951L86.4543 82.3709L86.4187 82.3592L86.395 82.3532L86.3778 82.3498L86.3646 82.3472H86.3591H86.357H86.3539H86.3599L86.3284 82.3423L86.2764 82.3342L86.2053 82.322L86.1158 82.3056L86.0079 82.2835L85.8856 82.2559L85.7492 82.2228L85.5989 82.183L85.4383 82.1372L85.2682 82.0852L85.0949 82.0256L84.715 81.8802L84.3247 81.7014L83.9311 81.4852L83.5463 81.2318L83.182 80.9373L82.8412 80.5868L82.6934 80.406L82.5474 80.2046L82.4095 79.9912L82.2794 79.768L82.1576 79.5382L82.0455 79.3064L81.8374 78.8196L81.6646 78.3385L81.5212 77.8744L81.4044 77.4388L81.3136 77.0511L81.2483 76.7259L81.2223 76.5909L81.2025 76.4766L81.1882 76.3851L81.1781 76.3169L81.1715 76.2755L81.17 76.2633C81.1616 76.1937 81.1262 76.1303 81.0714 76.0867C81.0165 76.043 80.9467 76.0228 80.8771 76.0304C80.8074 76.0379 80.7436 76.0726 80.6993 76.1269C80.6551 76.1812 80.634 76.2508 80.6408 76.3205L80.6423 76.3361V76.3468L80.6358 76.3869L80.621 76.4785L80.601 76.5929L80.5749 76.7288L80.544 76.8836L80.507 77.0556L80.4636 77.2424L80.4149 77.443L80.3587 77.6542L80.2965 77.8736L80.1508 78.3396L79.975 78.8201L79.7668 79.301L79.5287 79.7664L79.2587 80.2007L78.9483 80.5982L78.7921 80.7648L78.6212 80.9274L78.4414 81.0796L78.2557 81.2214L78.066 81.3515L77.8786 81.4683L77.4774 81.6882L77.0872 81.864L76.7122 82.0064L76.3625 82.1198L76.0527 82.2041L75.7925 82.2637L75.6884 82.2842L75.5992 82.3006L75.5289 82.3118L75.4769 82.3199L75.4509 82.3235H75.4472H75.4503H75.4477H75.442L75.4282 82.3266L75.4097 82.3311L75.3853 82.3365L75.3483 82.3488L75.2898 82.3748L75.1881 82.4422L75.0403 82.6503V83.0307L75.1881 83.2389L75.2898 83.3065L75.3483 83.3325L75.3853 83.3445L75.4097 83.3507L75.4282 83.3546L75.442 83.3578H75.4477L75.4784 83.3635L75.5305 83.3749L75.5999 83.3911L75.6881 83.4132L75.7922 83.4415L75.9119 83.4759L76.0456 83.5167L76.1913 83.5646L76.3475 83.6203L76.5121 83.6825L76.6781 83.7499L77.0442 83.9153L77.4137 84.1126L77.7829 84.3454L78.1386 84.6111L78.4667 84.9113L78.7726 85.267L78.8944 85.4369L79.0195 85.6336L79.1379 85.8418L79.2493 86.0603L79.3534 86.2851L79.4452 86.5073L79.6211 86.9907L79.7624 87.4591L79.8776 87.9133L79.9708 88.3385L80.0418 88.716L80.0959 89.0337L80.1157 89.1604L80.1318 89.2697L80.1433 89.3563L80.1511 89.4209L80.155 89.4544V89.4586V89.4646L80.1571 89.4784L80.1594 89.4966L80.1638 89.5226L80.1727 89.5616L80.1919 89.6277L80.251 89.7578L80.5265 90.0341H81.2839L81.5592 89.7578L81.6183 89.6277L81.6375 89.5616L81.6459 89.5226L81.6508 89.4966L81.6529 89.4784L81.655 89.4646V89.4586V89.4573V89.4601V89.456L81.6589 89.4219L81.6667 89.3574L81.6773 89.2707L81.6927 89.1615L81.7125 89.0293L81.7372 88.8799L81.7632 88.7139L81.7936 88.5302L81.8293 88.3346L81.8707 88.1264L81.9154 87.9149L82.0278 87.4528L82.1662 86.9803L82.3351 86.5057L82.5328 86.0447L82.7615 85.6164L83.0353 85.2173L83.1674 85.0552L83.3196 84.8903L83.4817 84.7341L83.6514 84.5864L83.8267 84.4479L83.9992 84.3244L84.3802 84.0842L84.7525 83.8878L85.1141 83.7251L85.4547 83.5906L85.7576 83.4886L86.0149 83.4142L86.1164 83.3882L86.2046 83.3663L86.2746 83.3502L86.3266 83.339L86.3526 83.3338H86.3573H86.3628L86.376 83.3312L86.3932 83.3273L86.4169 83.3216L86.4525 83.3101L86.5085 83.2854L86.6052 83.2209L86.7465 83.0234V82.6592L86.6052 82.4609L86.51 82.3951ZM75.6169 83.3544H75.6226L75.6434 83.3502L75.6286 83.3533L75.6169 83.3544ZM80.1568 89.2942V89.283V89.2806V89.2876V89.2942ZM84.3 82.8913L83.8486 83.0994L83.3992 83.3479L83.1604 83.499L82.9317 83.6593L82.7072 83.8326L82.4878 84.021L82.274 84.2268L82.0601 84.4609L81.701 84.9254L81.3826 85.4429L81.1112 85.9755L80.9176 86.4222L80.7269 85.9758L80.5932 85.6979L80.4514 85.4307L80.2986 85.1687L80.1337 84.9134L79.9541 84.6652L79.7502 84.4149L79.3458 83.9999L78.8973 83.6333L78.4367 83.3284L77.9749 83.0731L77.5211 82.865L77.3187 82.7869L77.4764 82.7159L77.9104 82.4872L78.3399 82.2182L78.5642 82.06L78.7786 81.8929L78.9868 81.7131L79.1887 81.5201L79.3836 81.3119L79.5732 81.0811L79.8948 80.6128L80.1727 80.1018L80.4037 79.5752L80.5976 79.0447L80.7537 78.5227L80.8773 78.0284L80.9007 77.922L80.9236 78.026L81.0503 78.5222L81.21 79.0426L81.4036 79.5671L81.5168 79.8362L81.6396 80.0979L81.7736 80.3547L81.9188 80.6047L82.077 80.8493L82.256 81.0897L82.6249 81.5086L83.0373 81.8804L83.4685 82.1979L83.9061 82.4703L84.3396 82.6969L84.55 82.7906L84.3 82.8913Z" fill="#010001"/>
<defs>
<linearGradient id="paint0_linear_384_3539" x1="65.2039" y1="30.9299" x2="253.429" y2="136.827" gradientUnits="userSpaceOnUse">
<stop stop-color="#3959E0"/>
<stop offset="1" stop-color="#932BE4"/>
</linearGradient>
</defs>
</svg>
