<svg width="20" height="20" viewBox="0 0 20 20" fill="none" xmlns="http://www.w3.org/2000/svg">
<path d="M9.41154 15.9495C9.43893 15.9608 9.46796 15.9697 9.5 15.9765V16.6667C9.5 16.9428 9.72386 17.1667 10 17.1667C10.2761 17.1667 10.5 16.9428 10.5 16.6667V15.9765C10.532 15.9697 10.5611 15.9608 10.5885 15.9495C10.7518 15.8818 10.8816 15.7521 10.9493 15.5887C11 15.4662 11 15.3109 11 15.0002V14.5976C10.6868 14.6457 10.3654 14.6694 10.0377 14.6667C9.68399 14.6639 9.33726 14.6305 9 14.569V15.0002C9 15.3109 9 15.4662 9.05075 15.5887C9.11841 15.7521 9.24819 15.8818 9.41154 15.9495Z" fill="white"/>
<path opacity="0.5" d="M15.9998 8.7151C16.0265 12.0287 13.362 14.6932 10.0484 14.6665C6.73482 14.6397 4.02694 11.9319 4.0002 8.61827C3.97346 5.30467 6.63799 2.64015 9.95158 2.66689C13.2652 2.69363 15.9731 5.40151 15.9998 8.7151Z" fill="white"/>
<path d="M10.9163 6.30462C11.1163 6.49506 11.124 6.81155 10.9336 7.01152L9.83343 8.16669H11.3334C11.5334 8.16669 11.7142 8.28589 11.793 8.46973C11.8718 8.65357 11.8334 8.86668 11.6955 9.01152L9.79073 11.0115C9.60029 11.2115 9.2838 11.2192 9.08384 11.0288C8.88387 10.8383 8.87615 10.5218 9.0666 10.3219L10.1668 9.16669H8.66676C8.46675 9.16669 8.28598 9.04749 8.20719 8.86365C8.1284 8.67981 8.16675 8.4667 8.30469 8.32186L10.2095 6.32186C10.3999 6.1219 10.7164 6.11418 10.9163 6.30462Z" fill="white"/>
</svg>
