<svg width="32" height="33" viewBox="0 0 32 33" fill="none" xmlns="http://www.w3.org/2000/svg">
<g clip-path="url(#clip0_55_1278)" filter="url(#filter0_d_55_1278)">
<path d="M7.91474 10.8175C7.50747 10.4395 7.30493 9.97156 7.30493 9.41481C7.30493 8.85806 7.50855 8.36954 7.91474 7.99043C8.32201 7.6124 8.84627 7.42285 9.48858 7.42285C10.1309 7.42285 10.6346 7.6124 11.0408 7.99043C11.448 8.36845 11.6506 8.84398 11.6506 9.41481C11.6506 9.98564 11.447 10.4395 11.0408 10.8175C10.6335 11.1955 10.1168 11.3851 9.48858 11.3851C8.86035 11.3851 8.32201 11.1955 7.91474 10.8175ZM11.3083 12.986V24.5759H7.64612V12.986H11.3083Z" fill="white"/>
<path d="M23.4993 14.1309C24.2976 14.9974 24.6962 16.1867 24.6962 17.701V24.3711H21.2182V18.1711C21.2182 17.4074 21.02 16.8139 20.6246 16.3914C20.2293 15.969 19.6964 15.7567 19.0291 15.7567C18.3619 15.7567 17.829 15.9679 17.4336 16.3914C17.0383 16.8139 16.84 17.4074 16.84 18.1711V24.3711H13.3414V12.9535H16.84V14.4677C17.1942 13.963 17.6719 13.5644 18.272 13.2708C18.8721 12.9773 19.5469 12.8311 20.2975 12.8311C21.6341 12.8311 22.7021 13.2643 23.4993 14.1309Z" fill="white"/>
</g>
<defs>
<filter id="filter0_d_55_1278" x="-4" y="0" width="40" height="40" filterUnits="userSpaceOnUse" color-interpolation-filters="sRGB">
<feFlood flood-opacity="0" result="BackgroundImageFix"/>
<feColorMatrix in="SourceAlpha" type="matrix" values="0 0 0 0 0 0 0 0 0 0 0 0 0 0 0 0 0 0 127 0" result="hardAlpha"/>
<feOffset dy="4"/>
<feGaussianBlur stdDeviation="2"/>
<feComposite in2="hardAlpha" operator="out"/>
<feColorMatrix type="matrix" values="0 0 0 0 0 0 0 0 0 0 0 0 0 0 0 0 0 0 0.25 0"/>
<feBlend mode="normal" in2="BackgroundImageFix" result="effect1_dropShadow_55_1278"/>
<feBlend mode="normal" in="SourceGraphic" in2="effect1_dropShadow_55_1278" result="shape"/>
</filter>
<clipPath id="clip0_55_1278">
<rect width="32" height="32" fill="white"/>
</clipPath>
</defs>
</svg>
