<svg width="4907" height="1072" viewBox="0 0 4907 1072" fill="none" xmlns="http://www.w3.org/2000/svg">
<g clip-path="url(#clip0_2099_2145)">
<path d="M78.5195 303.62L131.09 292.19L247.66 310.48L371.09 470.48L405.38 691.05L351.67 862.48L296.81 888.77L366.52 723.06L310.85 845.63L241.95 882.82C241.95 882.82 425.9 740.49 283.38 460.05C233.88 362.65 159.66 333.34 139.09 325.34C118.52 317.34 78.5195 303.63 78.5195 303.63V303.62Z" fill="url(#paint0_linear_2099_2145)"/>
<path d="M79.5002 302.5C93.0002 297 109.81 287.94 122.16 283.6C181.17 262.9 246.85 278.02 306.66 288.76L451.8 453.33L498.66 785.9L359.23 917.33L214.09 936.76L135.23 927.62L58.6602 907.05C58.6602 907.05 215.61 940.19 297.9 829.34C380.19 718.48 370.66 552.77 316.95 465.53C263.24 378.29 235.81 354.67 180.95 324.96C147.68 306.94 77.5702 303.5 77.5002 303.5L79.5002 302.5Z" fill="url(#paint1_linear_2099_2145)"/>
<path d="M22.0996 239.24C22.0996 239.24 72.3896 203.43 74.6696 203.43C76.9496 203.43 151.62 179.81 151.62 179.81L259.05 201.14L359.62 270.47L464.76 408.37L489.43 555.42L512 759.52L337.84 876.29C337.84 876.29 507.2 738.2 372.19 428.85C265.95 185.43 22.0996 239.24 22.0996 239.24Z" fill="url(#paint2_linear_2099_2145)"/>
<path d="M1.51953 143.24L76.9495 92.1899L387.05 108.19L524.19 221.71L475.5 317.5L303.23 178.28L269.71 159.99C269.71 159.99 205.71 138.66 150.85 139.42C95.9895 140.18 1.51953 143.24 1.51953 143.24Z" fill="url(#paint3_linear_2099_2145)"/>
<path d="M0 144.76C0 144.76 109.71 0 399.24 0C598.4 0 819.28 101.48 910.57 286.08C977.6 421.62 961.73 593.56 895.88 727.52C831.91 857.66 711.26 939.41 571.57 970.74C513.1 983.85 453 988.96 393.14 988.96C393.14 988.96 136.34 966.91 66.09 912.49C63.64 910.59 61.41 908.65 59.43 906.67C59.43 906.67 245.33 970.67 355.05 860.96C464.77 751.25 467.81 589.72 409.91 431.25C352 272.76 185.9 128 22.86 240.76C22.86 240.76 38.1 195.05 155.43 166.09C191.95 157.08 227.74 154.86 262 159.24C337.81 168.95 406.19 211 458.66 283.42C458.66 283.42 369.8 132.66 216.37 111.23C62.95 89.81 0 144.76 0 144.76Z" fill="url(#paint4_linear_2099_2145)"/>
</g>
<g filter="url(#filter0_d_2099_2145)">
<path d="M1171.05 172.584H1377.39C1466.01 172.584 1531.48 202.013 1573.81 260.872C1616.79 319.731 1638.29 405.704 1638.29 518.792C1638.29 631.88 1616.79 717.853 1573.81 776.712C1531.48 835.571 1466.01 865 1377.39 865H1171.05V172.584ZM1370.45 773.736C1421.37 773.736 1459.06 756.872 1483.53 723.144C1508.66 688.755 1521.23 639.816 1521.23 576.328V461.256C1521.23 397.768 1508.66 349.16 1483.53 315.432C1459.06 281.043 1421.37 263.848 1370.45 263.848H1281.17V773.736H1370.45ZM1953.35 876.904C1914.34 876.904 1879.29 870.621 1848.2 858.056C1817.12 845.491 1791 827.635 1769.83 804.488C1748.67 781.341 1732.47 753.565 1721.23 721.16C1709.98 688.093 1704.36 651.059 1704.36 610.056C1704.36 569.053 1709.98 532.019 1721.23 498.952C1733.13 465.885 1749.33 437.779 1769.83 414.632C1791 390.824 1816.46 372.637 1846.22 360.072C1875.98 347.507 1909.05 341.224 1945.42 341.224C1981.13 341.224 2013.54 347.507 2042.63 360.072C2071.73 371.976 2096.53 389.171 2117.03 411.656C2137.54 434.141 2153.08 460.925 2163.66 492.008C2174.9 523.091 2180.52 557.48 2180.52 595.176V635.848H1813.48V652.712C1813.48 693.053 1826.05 726.12 1851.18 751.912C1876.31 777.043 1911.03 789.608 1955.34 789.608C1988.41 789.608 2016.51 782.664 2039.66 768.776C2063.47 754.227 2082.65 735.048 2097.19 711.24L2164.65 770.76C2147.46 800.52 2121 825.651 2085.29 846.152C2050.24 866.653 2006.26 876.904 1953.35 876.904ZM1945.42 423.56C1926.24 423.56 1908.38 426.867 1891.85 433.48C1875.98 440.093 1862.09 449.683 1850.19 462.248C1838.94 474.152 1830.02 488.371 1823.4 504.904C1816.79 521.437 1813.48 539.624 1813.48 559.464V566.408H2070.41V556.488C2070.41 516.147 2058.84 484.072 2035.69 460.264C2013.21 435.795 1983.11 423.56 1945.42 423.56ZM2278.34 353.128H2386.47V440.424H2392.42C2407.63 409.341 2427.8 385.203 2452.94 368.008C2478.07 350.152 2509.48 341.224 2547.17 341.224C2607.36 341.224 2655.3 363.709 2691.02 408.68C2726.73 453.651 2744.58 520.445 2744.58 609.064C2744.58 697.683 2726.73 764.477 2691.02 809.448C2655.3 854.419 2607.36 876.904 2547.17 876.904C2509.48 876.904 2478.07 868.307 2452.94 851.112C2427.8 833.256 2407.63 808.787 2392.42 777.704H2386.47V1063.4H2278.34V353.128ZM2502.53 788.616C2543.54 788.616 2574.95 776.051 2596.77 750.92C2619.26 725.789 2630.5 692.392 2630.5 650.728V567.4C2630.5 525.736 2619.26 492.339 2596.77 467.208C2574.95 442.077 2543.54 429.512 2502.53 429.512C2486.66 429.512 2471.78 431.496 2457.89 435.464C2444.01 439.432 2431.77 445.384 2421.19 453.32C2410.61 461.256 2402.01 471.176 2395.4 483.08C2389.45 494.323 2386.47 507.88 2386.47 523.752V694.376C2386.47 710.248 2389.45 724.136 2395.4 736.04C2402.01 747.283 2410.61 756.872 2421.19 764.808C2431.77 772.744 2444.01 778.696 2457.89 782.664C2471.78 786.632 2486.66 788.616 2502.53 788.616ZM2829.51 777.704H2999.14V218.216H2829.51V130.92H3107.27V777.704H3276.9V865H2829.51V777.704ZM3558.24 876.904C3520.54 876.904 3486.49 870.621 3456.06 858.056C3426.3 845.491 3400.84 827.635 3379.68 804.488C3359.18 781.341 3343.31 753.235 3332.06 720.168C3320.82 687.101 3315.2 650.067 3315.2 609.064C3315.2 568.061 3320.82 531.027 3332.06 497.96C3343.31 464.893 3359.18 436.787 3379.68 413.64C3400.84 390.493 3426.3 372.637 3456.06 360.072C3486.49 347.507 3520.54 341.224 3558.24 341.224C3595.94 341.224 3629.66 347.507 3659.42 360.072C3689.85 372.637 3715.31 390.493 3735.81 413.64C3756.97 436.787 3773.17 464.893 3784.42 497.96C3795.66 531.027 3801.28 568.061 3801.28 609.064C3801.28 650.067 3795.66 687.101 3784.42 720.168C3773.17 753.235 3756.97 781.341 3735.81 804.488C3715.31 827.635 3689.85 845.491 3659.42 858.056C3629.66 870.621 3595.94 876.904 3558.24 876.904ZM3558.24 791.592C3597.92 791.592 3629.33 779.688 3652.48 755.88C3676.29 731.411 3688.19 695.368 3688.19 647.752V570.376C3688.19 522.76 3676.29 487.048 3652.48 463.24C3629.33 438.771 3597.92 426.536 3558.24 426.536C3518.56 426.536 3486.82 438.771 3463.01 463.24C3439.86 487.048 3428.29 522.76 3428.29 570.376V647.752C3428.29 695.368 3439.86 731.411 3463.01 755.88C3486.82 779.688 3518.56 791.592 3558.24 791.592ZM4243.32 353.128H4352.44L4104.44 964.2C4091.22 997.267 4073.69 1022.07 4051.87 1038.6C4030.71 1055.13 3999.95 1063.4 3959.61 1063.4H3873.31V976.104H3994.33L4040.96 858.056L3834.62 353.128H3947.71L4029.05 567.4L4092.54 742.984H4098.49L4161.98 567.4L4243.32 353.128ZM4608.99 876.904C4571.29 876.904 4537.23 870.621 4506.81 858.056C4477.05 845.491 4451.59 827.635 4430.43 804.488C4409.92 781.341 4394.05 753.235 4382.81 720.168C4371.57 687.101 4365.95 650.067 4365.95 609.064C4365.95 568.061 4371.57 531.027 4382.81 497.96C4394.05 464.893 4409.92 436.787 4430.43 413.64C4451.59 390.493 4477.05 372.637 4506.81 360.072C4537.23 347.507 4571.29 341.224 4608.99 341.224C4646.68 341.224 4680.41 347.507 4710.17 360.072C4740.59 372.637 4766.05 390.493 4786.55 413.64C4807.72 436.787 4823.92 464.893 4835.16 497.96C4846.4 531.027 4852.03 568.061 4852.03 609.064C4852.03 650.067 4846.4 687.101 4835.16 720.168C4823.92 753.235 4807.72 781.341 4786.55 804.488C4766.05 827.635 4740.59 845.491 4710.17 858.056C4680.41 870.621 4646.68 876.904 4608.99 876.904ZM4608.99 791.592C4648.67 791.592 4680.08 779.688 4703.23 755.88C4727.03 731.411 4738.94 695.368 4738.94 647.752V570.376C4738.94 522.76 4727.03 487.048 4703.23 463.24C4680.08 438.771 4648.67 426.536 4608.99 426.536C4569.31 426.536 4537.56 438.771 4513.75 463.24C4490.61 487.048 4479.03 522.76 4479.03 570.376V647.752C4479.03 695.368 4490.61 731.411 4513.75 755.88C4537.56 779.688 4569.31 791.592 4608.99 791.592Z" fill="#D1D5DB"/>
</g>
<defs>
<filter id="filter0_d_2099_2145" x="1167.05" y="130.92" width="3688.97" height="940.48" filterUnits="userSpaceOnUse" color-interpolation-filters="sRGB">
<feFlood flood-opacity="0" result="BackgroundImageFix"/>
<feColorMatrix in="SourceAlpha" type="matrix" values="0 0 0 0 0 0 0 0 0 0 0 0 0 0 0 0 0 0 127 0" result="hardAlpha"/>
<feOffset dy="4"/>
<feGaussianBlur stdDeviation="2"/>
<feComposite in2="hardAlpha" operator="out"/>
<feColorMatrix type="matrix" values="0 0 0 0 0 0 0 0 0 0 0 0 0 0 0 0 0 0 0.25 0"/>
<feBlend mode="normal" in2="BackgroundImageFix" result="effect1_dropShadow_2099_2145"/>
<feBlend mode="normal" in="SourceGraphic" in2="effect1_dropShadow_2099_2145" result="shape"/>
</filter>
<linearGradient id="paint0_linear_2099_2145" x1="241.95" y1="888.76" x2="241.95" y2="292.19" gradientUnits="userSpaceOnUse">
<stop offset="0.73" stop-color="#050612"/>
<stop offset="1" stop-color="#2A10AC"/>
</linearGradient>
<linearGradient id="paint1_linear_2099_2145" x1="278.67" y1="936.76" x2="278.67" y2="273.3" gradientUnits="userSpaceOnUse">
<stop stop-color="#050612"/>
<stop offset="0.24" stop-color="#2A10AC"/>
<stop offset="0.82" stop-color="#C924FA"/>
</linearGradient>
<linearGradient id="paint2_linear_2099_2145" x1="267.05" y1="857.61" x2="267.05" y2="161.13" gradientUnits="userSpaceOnUse">
<stop offset="0.79" stop-color="#050612"/>
<stop offset="0.97" stop-color="#210FA8"/>
<stop offset="1" stop-color="#050612"/>
</linearGradient>
<linearGradient id="paint3_linear_2099_2145" x1="262.86" y1="281.14" x2="262.86" y2="92.1899" gradientUnits="userSpaceOnUse">
<stop offset="0.69" stop-color="#050612"/>
<stop offset="0.96" stop-color="#210FA8"/>
<stop offset="1" stop-color="#050612"/>
</linearGradient>
<linearGradient id="paint4_linear_2099_2145" x1="476.85" y1="1000.75" x2="476.85" y2="11.8" gradientUnits="userSpaceOnUse">
<stop stop-color="#080B12"/>
<stop offset="0.56" stop-color="#210FA8"/>
<stop offset="1" stop-color="#C924FA"/>
</linearGradient>
<clipPath id="clip0_2099_2145">
<rect width="953.71" height="988.95" fill="white"/>
</clipPath>
</defs>
</svg>
