<svg width="20" height="20" viewBox="0 0 20 20" fill="none" xmlns="http://www.w3.org/2000/svg">
<path fill-rule="evenodd" clip-rule="evenodd" d="M11.3333 15.3335C11.3333 16.0699 10.7364 16.6668 10 16.6668C9.26362 16.6668 8.66667 16.0699 8.66667 15.3335C8.66667 14.9353 8.84125 14.5778 9.11806 14.3335H8.83333C8.189 14.3335 7.66667 13.8112 7.66667 13.1668C7.66667 12.7704 7.86442 12.4201 8.16667 12.2093V6.00016H7.33333C6.70479 6.00016 6.39052 6.00016 6.19526 5.8049C6 5.60964 6 5.29537 6 4.66683C6 4.03829 6 3.72402 6.19526 3.52876C6.39052 3.3335 6.70479 3.3335 7.33333 3.3335H12.6667C13.2952 3.3335 13.6095 3.3335 13.8047 3.52876C14 3.72402 14 4.03829 14 4.66683C14 5.29537 14 5.60964 13.8047 5.8049C13.6095 6.00016 13.2952 6.00016 12.6667 6.00016H11.8333V12.2093C12.1356 12.4201 12.3333 12.7704 12.3333 13.1668C12.3333 13.8112 11.811 14.3335 11.1667 14.3335H10.8819C11.1587 14.5778 11.3333 14.9353 11.3333 15.3335ZM10.8333 6.00016H9.16667V12.0002H10.8333V6.00016Z" fill="white"/>
<path opacity="0.5" fill-rule="evenodd" clip-rule="evenodd" d="M6.8483 7.21235C6.91527 6.94445 7.18674 6.78157 7.45464 6.84854L12.788 8.18188C13.0559 8.24885 13.2187 8.52032 13.1518 8.78822C13.0848 9.05611 12.8133 9.21899 12.5454 9.15202L7.2121 7.81869C6.9442 7.75171 6.78132 7.48024 6.8483 7.21235ZM6.8483 9.54568C6.91527 9.27778 7.18674 9.1149 7.45464 9.18188L12.788 10.5152C13.0559 10.5822 13.2187 10.8537 13.1518 11.1215C13.0848 11.3894 12.8133 11.5523 12.5454 11.4854L7.2121 10.152C6.9442 10.085 6.78132 9.81358 6.8483 9.54568Z" fill="url(#paint0_linear_5_1655)"/>
<path opacity="0.5" fill-rule="evenodd" clip-rule="evenodd" d="M15.5409 6.98174C15.7351 7.17799 15.7335 7.49457 15.5373 7.68884L15.0659 8.15548C14.8696 8.34975 14.553 8.34814 14.3588 8.15189C14.1645 7.95564 14.1661 7.63906 14.3624 7.44479L14.8338 6.97815C15.03 6.78388 15.3466 6.78549 15.5409 6.98174ZM4.45898 6.98174C4.65325 6.78549 4.96982 6.78388 5.16608 6.97815L5.63748 7.44479C5.83373 7.63906 5.83534 7.95564 5.64107 8.15189C5.4468 8.34814 5.13022 8.34975 4.93397 8.15548L4.46257 7.68884C4.26632 7.49457 4.26471 7.17799 4.45898 6.98174ZM16.6666 10.1665H15.3333C15.0571 10.1665 14.8333 9.94265 14.8333 9.66651C14.8333 9.39037 15.0571 9.16651 15.3333 9.16651H16.6666C16.9427 9.16651 17.1666 9.39036 17.1666 9.66651C17.1666 9.94265 16.9427 10.1665 16.6666 10.1665ZM2.83325 9.66715C2.83325 9.39101 3.05711 9.16715 3.33325 9.16715H4.66659C4.94273 9.16715 5.16659 9.39101 5.16659 9.66715C5.16659 9.94329 4.94273 10.1672 4.66659 10.1672H3.33325C3.05711 10.1672 2.83325 9.94329 2.83325 9.66715ZM5.64107 11.1818C5.83534 11.378 5.83373 11.6946 5.63748 11.8889L5.16608 12.3555C4.96982 12.5498 4.65325 12.5482 4.45898 12.3519C4.26471 12.1557 4.26632 11.8391 4.46257 11.6448L4.93397 11.1782C5.13022 10.9839 5.4468 10.9855 5.64107 11.1818ZM14.3588 11.1818C14.553 10.9855 14.8696 10.9839 15.0659 11.1782L15.5373 11.6448C15.7335 11.8391 15.7351 12.1557 15.5409 12.3519C15.3466 12.5482 15.03 12.5498 14.8338 12.3555L14.3624 11.8889C14.1661 11.6946 14.1645 11.378 14.3588 11.1818Z" fill="white"/>
<defs>
<linearGradient id="paint0_linear_5_1655" x1="10" y1="6.8335" x2="10" y2="11.5004" gradientUnits="userSpaceOnUse">
<stop stop-color="#DDD6FE"/>
<stop offset="1" stop-color="#423679"/>
</linearGradient>
</defs>
</svg>
