<svg width="48" height="48" viewBox="0 0 48 48" fill="none" xmlns="http://www.w3.org/2000/svg">
<path fill-rule="evenodd" clip-rule="evenodd" d="M15.0912 28.6178C13.8754 30.3209 11.5775 32.1545 8.44911 33.6809C7.63613 34.0777 8.00289 35.3071 8.90034 35.1937C15.4734 34.3622 19.7337 31.4834 22.0602 27.2024C22.9256 25.6102 23.4692 23.9155 23.7587 22.1854C23.9495 21.0448 24 20.1887 24 19.1999C24 14.7817 20.4183 11.2 15.9999 11.2C11.5817 11.2 7.99995 14.7817 7.99995 19.1999C7.99995 23.6182 11.6388 27.2024 15.8205 27.2024C15.5999 27.8081 15.5469 27.9793 15.0912 28.6178ZM32.6912 28.6178C31.4754 30.3209 29.1776 32.1545 26.0492 33.6809C25.2362 34.0777 25.6029 35.3071 26.5004 35.1937C33.0734 34.3622 37.3337 31.4834 39.6602 27.2024C40.5255 25.6102 41.0691 23.9155 41.3586 22.1854C41.5496 21.0448 41.6 20.1887 41.6 19.1999C41.6 14.7817 38.0183 11.2 33.6 11.2C29.1816 11.2 25.5999 14.7817 25.5999 19.1999C25.5999 23.6182 29.2388 27.2024 33.4205 27.2024C33.1998 27.8081 33.1469 27.9793 32.6912 28.6178Z" fill="url(#paint0_linear_5_1066)"/>
<defs>
<linearGradient id="paint0_linear_5_1066" x1="47.0415" y1="23.0266" x2="1.00281" y2="21.0625" gradientUnits="userSpaceOnUse">
<stop stop-color="#635371"/>
<stop offset="0.485507" stop-color="#EDEDF2"/>
<stop offset="0.984375" stop-color="#635371"/>
</linearGradient>
</defs>
</svg>
