<svg width="20" height="20" viewBox="0 0 20 20" fill="none" xmlns="http://www.w3.org/2000/svg">
<path d="M8.85137 13.01C8.85447 12.9367 8.97579 12.9076 9.01177 12.9715C9.18065 13.2713 9.46874 13.7122 9.79565 13.9127C10.1226 14.1132 10.6462 14.17 10.9899 14.1846C11.0632 14.1877 11.0923 14.309 11.0284 14.345C10.7286 14.5139 10.2877 14.802 10.0872 15.1289C9.88674 15.4558 9.82986 15.9794 9.81527 16.3232C9.81216 16.3964 9.69085 16.4255 9.65487 16.3616C9.48599 16.0618 9.19789 15.6209 8.87099 15.4205C8.54408 15.22 8.02048 15.1631 7.6767 15.1485C7.60346 15.1454 7.57438 15.0241 7.63825 14.9881C7.93804 14.8192 8.37895 14.5311 8.57942 14.2042C8.7799 13.8773 8.83677 13.3537 8.85137 13.01Z" fill="white"/>
<path opacity="0.5" d="M14.3281 12.3432C14.3224 12.2701 14.1945 12.2395 14.1564 12.3021C14.0415 12.4904 13.8759 12.7177 13.6917 12.8306C13.5076 12.9435 13.2299 12.9881 13.01 13.0051C12.9369 13.0107 12.9062 13.1386 12.9688 13.1768C13.1571 13.2917 13.3845 13.4573 13.4974 13.6414C13.6103 13.8255 13.6549 14.1033 13.6718 14.3232C13.6775 14.3963 13.8054 14.4269 13.8435 14.3644C13.9584 14.176 14.1241 13.9487 14.3082 13.8358C14.4923 13.7229 14.77 13.6783 14.9899 13.6613C15.063 13.6557 15.0937 13.5278 15.0311 13.4896C14.8428 13.3748 14.6155 13.2091 14.5026 13.025C14.3896 12.8409 14.3451 12.5632 14.3281 12.3432Z" fill="white"/>
<path d="M11.8024 4.66791L11.6409 4.46386C11.0165 3.67515 10.7043 3.28079 10.341 3.33901C9.9778 3.39722 9.80412 3.86946 9.45675 4.81393L9.36689 5.05827C9.26818 5.32666 9.21882 5.46086 9.12416 5.55935C9.02951 5.65785 8.90026 5.70949 8.64177 5.81278L8.40644 5.90682L8.2412 5.97293C7.44153 6.29377 7.03857 6.47558 6.98712 6.82887C6.93225 7.2057 7.31365 7.52807 8.07645 8.17281L8.2738 8.33961C8.49056 8.52282 8.59894 8.61443 8.66108 8.73929C8.72321 8.86415 8.73205 9.00813 8.74974 9.2961L8.76585 9.55827C8.8281 10.5716 8.85922 11.0783 9.18853 11.253C9.51784 11.4277 9.92724 11.1547 10.746 10.6087L10.746 10.6087L10.9579 10.4674C11.1906 10.3122 11.3069 10.2347 11.44 10.2133C11.573 10.192 11.7077 10.2294 11.9771 10.304L12.2224 10.372C13.1705 10.6348 13.6446 10.7663 13.903 10.4974C14.1614 10.2285 14.033 9.73741 13.7763 8.75523L13.7098 8.50112C13.6369 8.22202 13.6004 8.08247 13.6205 7.94442C13.6406 7.80638 13.715 7.68548 13.8638 7.44368L13.8638 7.44367L13.9993 7.22352C14.523 6.37259 14.7849 5.94713 14.6153 5.60627C14.4457 5.26541 13.9569 5.2349 12.9794 5.17388L12.7265 5.1581C12.4488 5.14076 12.3099 5.13209 12.1892 5.0681C12.0686 5.00411 11.9799 4.89204 11.8025 4.66792L11.8024 4.66791Z" fill="white"/>
<path opacity="0.5" d="M7.89008 10.8841C6.46523 11.5802 5.27962 12.6827 4.83237 14.0002C4.33067 10.8618 5.02659 8.83514 6.14214 7.57556C6.23827 7.77204 6.36319 7.93471 6.47539 8.06184C6.70866 8.32612 7.04354 8.60902 7.38357 8.89628L7.62825 9.10307C7.67464 9.14229 7.71073 9.17281 7.7414 9.19928C7.74452 9.24218 7.74761 9.29225 7.7516 9.35714L7.77147 9.68081C7.7982 10.1175 7.82428 10.5437 7.89008 10.8841Z" fill="white"/>
</svg>
